<?xml version="1.0" encoding="UTF-8" standalone="no"?>
<!DOCTYPE svg PUBLIC "-//W3C//DTD SVG 1.1//EN"
 "http://www.w3.org/Graphics/SVG/1.1/DTD/svg11.dtd">
<!-- Generated by graphviz version 2.40.1 (20161225.0304)
 -->
<!-- Title: G Pages: 1 -->
<svg width="1472pt" height="1556pt"
 viewBox="0.00 0.00 1472.45 1556.00" xmlns="http://www.w3.org/2000/svg" xmlns:xlink="http://www.w3.org/1999/xlink">
  <style type="text/css">
    @font-face {
      font-family : Bonk;
      src         : url('./Impact.ttf');
    }
  </style>

<g id="graph0" class="graph" transform="scale(1 1) rotate(0) translate(4 1552)">
<title>G</title>
<polygon fill="#eeeeee" stroke="transparent" points="-4,4 -4,-1552 1468.4516,-1552 1468.4516,4 -4,4"/>
<!-- n0 -->
<g id="node1" class="node">
<title>n0</title>
<polygon fill="#ffffff" stroke="#000000" points="509,-1548 455,-1548 455,-1512 509,-1512 509,-1548"/>
<text text-anchor="middle" x="482" y="-1525.8" font-family="Times New Roman" font-size="14.00" fill="#000000">Init</text>
</g>
<!-- n1 -->
<g id="node2" class="node">
<title>n1</title>
<polygon fill="#ffffff" stroke="#000000" points="584.479,-1476 379.521,-1476 379.521,-1440 584.479,-1440 584.479,-1476"/>
<text text-anchor="middle" x="482" y="-1453.8" font-family="Times New Roman" font-size="14.00" fill="#000000">CheckShouldRunOptionalChecks</text>
</g>
<!-- n0&#45;&gt;n1 -->
<g id="edge1" class="edge">
<title>n0&#45;&gt;n1</title>
<path fill="none" stroke="#333333" d="M482,-1511.8314C482,-1504.131 482,-1494.9743 482,-1486.4166"/>
<polygon fill="#333333" stroke="#333333" points="485.5001,-1486.4132 482,-1476.4133 478.5001,-1486.4133 485.5001,-1486.4132"/>
<text text-anchor="middle" x="473.0048" y="-1506.4314" font-family="Open Sans, Helvetica Neue, Helvetica, Arial, sans-serif" font-size="6.00" fill="#000000">success</text>
</g>
<!-- n9 -->
<g id="node10" class="node">
<title>n9</title>
<polygon fill="#ddddff" stroke="#000000" points="422,-612 368,-612 368,-576 422,-576 422,-612"/>
<text text-anchor="middle" x="395" y="-589.8" font-family="Times New Roman" font-size="14.00" fill="#000000">Failed</text>
</g>
<!-- n0&#45;&gt;n9 -->
<g id="edge2" class="edge">
<title>n0&#45;&gt;n9</title>
<path fill="none" stroke="#666699" d="M509.183,-1524.0504C534.7613,-1517.001 572.1588,-1502.6858 593,-1476 618.1632,-1443.7801 612,-1426.8816 612,-1386 612,-1386 612,-1386 612,-1026 612,-917.9424 628.7188,-861.5273 546,-792 463.4325,-722.5999 376.3847,-837.7299 306,-756 269.0507,-713.095 325.3178,-652.3732 363.8552,-618.7783"/>
<polygon fill="none" stroke="#666699" points="366.4261,-621.1861 371.7696,-612.0374 361.8872,-615.857 366.4261,-621.1861"/>
<text text-anchor="middle" x="517.0112" y="-1525.8504" font-family="Open Sans, Helvetica Neue, Helvetica, Arial, sans-serif" font-size="6.00" fill="#000000">failure</text>
</g>
<!-- n2 -->
<g id="node3" class="node">
<title>n2</title>
<polygon fill="#ffffff" stroke="#000000" points="563.1657,-1404 400.8343,-1404 400.8343,-1368 563.1657,-1368 563.1657,-1404"/>
<text text-anchor="middle" x="482" y="-1381.8" font-family="Times New Roman" font-size="14.00" fill="#000000">CheckValidReleaseGroup</text>
</g>
<!-- n1&#45;&gt;n2 -->
<g id="edge3" class="edge">
<title>n1&#45;&gt;n2</title>
<path fill="none" stroke="#333333" d="M482,-1439.8314C482,-1432.131 482,-1422.9743 482,-1414.4166"/>
<polygon fill="#333333" stroke="#333333" points="485.5001,-1414.4132 482,-1404.4133 478.5001,-1414.4133 485.5001,-1414.4132"/>
<text text-anchor="middle" x="473.0048" y="-1434.4314" font-family="Open Sans, Helvetica Neue, Helvetica, Arial, sans-serif" font-size="6.00" fill="#000000">success</text>
</g>
<!-- n3 -->
<g id="node4" class="node">
<title>n3</title>
<polygon fill="#ffffff" stroke="#000000" points="525.5454,-1332 438.4546,-1332 438.4546,-1296 525.5454,-1296 525.5454,-1332"/>
<text text-anchor="middle" x="482" y="-1309.8" font-family="Times New Roman" font-size="14.00" fill="#000000">CheckPolicy</text>
</g>
<!-- n2&#45;&gt;n3 -->
<g id="edge4" class="edge">
<title>n2&#45;&gt;n3</title>
<path fill="none" stroke="#333333" d="M482,-1367.8314C482,-1360.131 482,-1350.9743 482,-1342.4166"/>
<polygon fill="#333333" stroke="#333333" points="485.5001,-1342.4132 482,-1332.4133 478.5001,-1342.4133 485.5001,-1342.4132"/>
<text text-anchor="middle" x="473.0048" y="-1362.4314" font-family="Open Sans, Helvetica Neue, Helvetica, Arial, sans-serif" font-size="6.00" fill="#000000">success</text>
</g>
<!-- n2&#45;&gt;n9 -->
<g id="edge5" class="edge">
<title>n2&#45;&gt;n9</title>
<path fill="none" stroke="#666699" d="M400.7803,-1378.5906C263.414,-1363.7923 0,-1324.6409 0,-1242 0,-1242 0,-1242 0,-738 0,-692.8741 10.3186,-674.2835 47,-648 96.3466,-612.6414 278.5404,-599.6455 357.7835,-595.5947"/>
<polygon fill="none" stroke="#666699" points="357.9969,-599.0885 367.8131,-595.1019 357.6534,-592.0969 357.9969,-599.0885"/>
<text text-anchor="middle" x="392.9521" y="-1380.3906" font-family="Open Sans, Helvetica Neue, Helvetica, Arial, sans-serif" font-size="6.00" fill="#000000">failure</text>
</g>
<!-- n4 -->
<g id="node5" class="node">
<title>n4</title>
<polygon fill="#ffffff" stroke="#000000" points="540.5786,-1260 423.4214,-1260 423.4214,-1224 540.5786,-1224 540.5786,-1260"/>
<text text-anchor="middle" x="482" y="-1237.8" font-family="Times New Roman" font-size="14.00" fill="#000000">CheckHasRemote</text>
</g>
<!-- n3&#45;&gt;n4 -->
<g id="edge6" class="edge">
<title>n3&#45;&gt;n4</title>
<path fill="none" stroke="#333333" d="M482,-1295.8314C482,-1288.131 482,-1278.9743 482,-1270.4166"/>
<polygon fill="#333333" stroke="#333333" points="485.5001,-1270.4132 482,-1260.4133 478.5001,-1270.4133 485.5001,-1270.4132"/>
<text text-anchor="middle" x="473.0048" y="-1290.4314" font-family="Open Sans, Helvetica Neue, Helvetica, Arial, sans-serif" font-size="6.00" fill="#000000">success</text>
</g>
<!-- n3&#45;&gt;n9 -->
<g id="edge7" class="edge">
<title>n3&#45;&gt;n9</title>
<path fill="none" stroke="#666699" d="M438.2124,-1309.2669C326.198,-1295.9503 38,-1253.5684 38,-1170 38,-1170 38,-1170 38,-738 38,-692.4558 50.0093,-674.5699 87,-648 129.8659,-617.2099 285.2935,-602.0402 357.5686,-596.5247"/>
<polygon fill="none" stroke="#666699" points="357.8918,-600.0105 367.6055,-595.7803 357.3739,-593.0297 357.8918,-600.0105"/>
<text text-anchor="middle" x="430.3842" y="-1311.0669" font-family="Open Sans, Helvetica Neue, Helvetica, Arial, sans-serif" font-size="6.00" fill="#000000">failure</text>
</g>
<!-- n5 -->
<g id="node6" class="node">
<title>n5</title>
<polygon fill="#ffffff" stroke="#000000" points="557.7781,-1188 406.2219,-1188 406.2219,-1152 557.7781,-1152 557.7781,-1188"/>
<text text-anchor="middle" x="482" y="-1165.8" font-family="Times New Roman" font-size="14.00" fill="#000000">CheckBranchUpToDate</text>
</g>
<!-- n4&#45;&gt;n5 -->
<g id="edge8" class="edge">
<title>n4&#45;&gt;n5</title>
<path fill="none" stroke="#333333" d="M482,-1223.8314C482,-1216.131 482,-1206.9743 482,-1198.4166"/>
<polygon fill="#333333" stroke="#333333" points="485.5001,-1198.4132 482,-1188.4133 478.5001,-1198.4133 485.5001,-1198.4132"/>
<text text-anchor="middle" x="473.0048" y="-1218.4314" font-family="Open Sans, Helvetica Neue, Helvetica, Arial, sans-serif" font-size="6.00" fill="#000000">success</text>
</g>
<!-- n4&#45;&gt;n9 -->
<g id="edge9" class="edge">
<title>n4&#45;&gt;n9</title>
<path fill="none" stroke="#666699" d="M423.3977,-1233.7214C310.9638,-1216.1849 76,-1170.8251 76,-1098 76,-1098 76,-1098 76,-738 76,-691.3524 91.9183,-674.9404 130,-648 166.2184,-622.3778 293.3732,-605.1575 357.4688,-597.897"/>
<polygon fill="none" stroke="#666699" points="358.0076,-601.3588 367.5606,-596.7774 357.2356,-594.4015 358.0076,-601.3588"/>
<text text-anchor="middle" x="415.5695" y="-1235.5214" font-family="Open Sans, Helvetica Neue, Helvetica, Arial, sans-serif" font-size="6.00" fill="#000000">failure</text>
</g>
<!-- n6 -->
<g id="node7" class="node">
<title>n6</title>
<polygon fill="#ffffff" stroke="#000000" points="584.3992,-1116 379.6008,-1116 379.6008,-1080 584.3992,-1080 584.3992,-1116"/>
<text text-anchor="middle" x="482" y="-1093.8" font-family="Times New Roman" font-size="14.00" fill="#000000">CheckNoPrereleaseDependencies</text>
</g>
<!-- n5&#45;&gt;n6 -->
<g id="edge10" class="edge">
<title>n5&#45;&gt;n6</title>
<path fill="none" stroke="#333333" d="M482,-1151.8314C482,-1144.131 482,-1134.9743 482,-1126.4166"/>
<polygon fill="#333333" stroke="#333333" points="485.5001,-1126.4132 482,-1116.4133 478.5001,-1126.4133 485.5001,-1126.4132"/>
<text text-anchor="middle" x="473.0048" y="-1146.4314" font-family="Open Sans, Helvetica Neue, Helvetica, Arial, sans-serif" font-size="6.00" fill="#000000">success</text>
</g>
<!-- n5&#45;&gt;n9 -->
<g id="edge11" class="edge">
<title>n5&#45;&gt;n9</title>
<path fill="none" stroke="#666699" d="M406.1964,-1156.2405C298.4692,-1134.4924 114,-1088.1742 114,-1026 114,-1026 114,-1026 114,-738 114,-629.7562 281.1842,-602.8229 357.6417,-596.1654"/>
<polygon fill="none" stroke="#666699" points="358.1115,-599.6391 367.8012,-595.3542 357.5543,-592.6613 358.1115,-599.6391"/>
<text text-anchor="middle" x="398.3682" y="-1158.0405" font-family="Open Sans, Helvetica Neue, Helvetica, Arial, sans-serif" font-size="6.00" fill="#000000">failure</text>
</g>
<!-- n7 -->
<g id="node8" class="node">
<title>n7</title>
<polygon fill="#800080" stroke="#000000" points="828.2921,-1044 697.7079,-1044 697.7079,-1008 828.2921,-1008 828.2921,-1044"/>
<text text-anchor="middle" x="763" y="-1021.8" font-family="Times New Roman" font-size="14.00" fill="#ffffff">AskForReleaseType</text>
</g>
<!-- n6&#45;&gt;n7 -->
<g id="edge12" class="edge">
<title>n6&#45;&gt;n7</title>
<path fill="none" stroke="#333333" d="M552.5455,-1079.9243C593.7845,-1069.3577 645.8187,-1056.0251 687.8288,-1045.2609"/>
<polygon fill="#333333" stroke="#333333" points="688.9102,-1048.597 697.7285,-1042.7244 687.1727,-1041.8161 688.9102,-1048.597"/>
<text text-anchor="middle" x="543.5503" y="-1074.5243" font-family="Open Sans, Helvetica Neue, Helvetica, Arial, sans-serif" font-size="6.00" fill="#000000">success</text>
</g>
<!-- n8 -->
<g id="node9" class="node">
<title>n8</title>
<polygon fill="#4682b4" stroke="#000000" points="576.3792,-1044 379.6208,-1044 379.6208,-1008 576.3792,-1008 576.3792,-1044"/>
<text text-anchor="middle" x="478" y="-1021.8" font-family="Times New Roman" font-size="14.00" fill="#ffffff">DoBumpReleasedDependencies</text>
</g>
<!-- n6&#45;&gt;n8 -->
<g id="edge13" class="edge">
<title>n6&#45;&gt;n8</title>
<path fill="none" stroke="#777777" d="M480.9906,-1079.8314C480.5628,-1072.131 480.0541,-1062.9743 479.5787,-1054.4166"/>
<polygon fill="none" stroke="#777777" points="483.0724,-1054.2037 479.023,-1044.4133 476.0831,-1054.592 483.0724,-1054.2037"/>
<text text-anchor="middle" x="473.1624" y="-1074.4314" font-family="Open Sans, Helvetica Neue, Helvetica, Arial, sans-serif" font-size="6.00" fill="#000000">failure</text>
</g>
<!-- n19 -->
<g id="node20" class="node">
<title>n19</title>
<polygon fill="#4682b4" stroke="#000000" points="747.7395,-972 640.2605,-972 640.2605,-936 747.7395,-936 747.7395,-972"/>
<text text-anchor="middle" x="694" y="-949.8" font-family="Times New Roman" font-size="14.00" fill="#ffffff">DoPatchRelease</text>
</g>
<!-- n7&#45;&gt;n19 -->
<g id="edge14" class="edge">
<title>n7&#45;&gt;n19</title>
<path fill="none" stroke="#333333" d="M745.5884,-1007.8314C737.479,-999.3694 727.6844,-989.1489 718.818,-979.8971"/>
<polygon fill="#333333" stroke="#333333" points="721.0921,-977.2115 711.646,-972.4133 716.0382,-982.0549 721.0921,-977.2115"/>
<text text-anchor="middle" x="739.0913" y="-1002.4314" font-family="Open Sans, Helvetica Neue, Helvetica, Arial, sans-serif" font-size="6.00" fill="#000000">patch</text>
</g>
<!-- n29 -->
<g id="node30" class="node">
<title>n29</title>
<polygon fill="#4682b4" stroke="#000000" points="1027.6332,-684 916.3668,-684 916.3668,-648 1027.6332,-648 1027.6332,-684"/>
<text text-anchor="middle" x="972" y="-661.8" font-family="Times New Roman" font-size="14.00" fill="#ffffff">DoMinorRelease</text>
</g>
<!-- n7&#45;&gt;n29 -->
<g id="edge15" class="edge">
<title>n7&#45;&gt;n29</title>
<path fill="none" stroke="#333333" d="M828.2692,-1010.4469C889.5922,-991.4875 972,-952.8319 972,-882 972,-882 972,-882 972,-810 972,-769.876 972,-723.4631 972,-694.4177"/>
<polygon fill="#333333" stroke="#333333" points="975.5001,-694.1853 972,-684.1854 968.5001,-694.1854 975.5001,-694.1853"/>
<text text-anchor="middle" x="835.4353" y="-1012.2469" font-family="Open Sans, Helvetica Neue, Helvetica, Arial, sans-serif" font-size="6.00" fill="#000000">minor</text>
</g>
<!-- n39 -->
<g id="node40" class="node">
<title>n39</title>
<polygon fill="#4682b4" stroke="#000000" points="876.3473,-972 765.6527,-972 765.6527,-936 876.3473,-936 876.3473,-972"/>
<text text-anchor="middle" x="821" y="-949.8" font-family="Times New Roman" font-size="14.00" fill="#ffffff">DoMajorRelease</text>
</g>
<!-- n7&#45;&gt;n39 -->
<g id="edge16" class="edge">
<title>n7&#45;&gt;n39</title>
<path fill="none" stroke="#333333" d="M777.6358,-1007.8314C784.3161,-999.5386 792.3568,-989.557 799.6904,-980.4533"/>
<polygon fill="#333333" stroke="#333333" points="802.6194,-982.3965 806.1671,-972.4133 797.1681,-978.0052 802.6194,-982.3965"/>
<text text-anchor="middle" x="770.638" y="-1002.4314" font-family="Open Sans, Helvetica Neue, Helvetica, Arial, sans-serif" font-size="6.00" fill="#000000">major</text>
</g>
<!-- n10 -->
<g id="node11" class="node">
<title>n10</title>
<polygon fill="#ffffff" stroke="#000000" points="583.8992,-972 372.1008,-972 372.1008,-936 583.8992,-936 583.8992,-972"/>
<text text-anchor="middle" x="478" y="-949.8" font-family="Times New Roman" font-size="14.00" fill="#000000">CheckNoPrereleaseDependencies2</text>
</g>
<!-- n8&#45;&gt;n10 -->
<g id="edge17" class="edge">
<title>n8&#45;&gt;n10</title>
<path fill="none" stroke="#333333" d="M478,-1007.8314C478,-1000.131 478,-990.9743 478,-982.4166"/>
<polygon fill="#333333" stroke="#333333" points="481.5001,-982.4132 478,-972.4133 474.5001,-982.4133 481.5001,-982.4132"/>
<text text-anchor="middle" x="469.0048" y="-1002.4314" font-family="Open Sans, Helvetica Neue, Helvetica, Arial, sans-serif" font-size="6.00" fill="#000000">success</text>
</g>
<!-- n13 -->
<g id="node14" class="node">
<title>n13</title>
<polygon fill="#ffffff" stroke="#000000" points="353.8992,-972 142.1008,-972 142.1008,-936 353.8992,-936 353.8992,-972"/>
<text text-anchor="middle" x="248" y="-949.8" font-family="Times New Roman" font-size="14.00" fill="#000000">CheckNoPrereleaseDependencies3</text>
</g>
<!-- n8&#45;&gt;n13 -->
<g id="edge18" class="edge">
<title>n8&#45;&gt;n13</title>
<path fill="none" stroke="#333333" d="M420.2582,-1007.9243C388.4057,-997.9531 348.6851,-985.5188 315.4156,-975.104"/>
<polygon fill="#333333" stroke="#333333" points="316.3546,-971.7305 305.7656,-972.0831 314.2633,-978.4109 316.3546,-971.7305"/>
<text text-anchor="middle" x="412.43" y="-1002.5243" font-family="Open Sans, Helvetica Neue, Helvetica, Arial, sans-serif" font-size="6.00" fill="#000000">failure</text>
</g>
<!-- n11 -->
<g id="node12" class="node">
<title>n11</title>
<polygon fill="#ffffff" stroke="#000000" points="561.1038,-900 394.8962,-900 394.8962,-864 561.1038,-864 561.1038,-900"/>
<text text-anchor="middle" x="478" y="-877.8" font-family="Times New Roman" font-size="14.00" fill="#000000">CheckShouldCommitDeps</text>
</g>
<!-- n10&#45;&gt;n11 -->
<g id="edge19" class="edge">
<title>n10&#45;&gt;n11</title>
<path fill="none" stroke="#333333" d="M478,-935.8314C478,-928.131 478,-918.9743 478,-910.4166"/>
<polygon fill="#333333" stroke="#333333" points="481.5001,-910.4132 478,-900.4133 474.5001,-910.4133 481.5001,-910.4132"/>
<text text-anchor="middle" x="469.0048" y="-930.4314" font-family="Open Sans, Helvetica Neue, Helvetica, Arial, sans-serif" font-size="6.00" fill="#000000">success</text>
</g>
<!-- n12 -->
<g id="node13" class="node">
<title>n12</title>
<polygon fill="#ddddff" stroke="#000000" points="537.1625,-828 418.8375,-828 418.8375,-792 537.1625,-792 537.1625,-828"/>
<text text-anchor="middle" x="478" y="-805.8" font-family="Times New Roman" font-size="14.00" fill="#000000">PromptToPRDeps</text>
</g>
<!-- n11&#45;&gt;n12 -->
<g id="edge20" class="edge">
<title>n11&#45;&gt;n12</title>
<path fill="none" stroke="#222255" d="M478,-863.8314C478,-856.131 478,-846.9743 478,-838.4166"/>
<polygon fill="#222255" stroke="#222255" points="481.5001,-838.4132 478,-828.4133 474.5001,-838.4133 481.5001,-838.4132"/>
<text text-anchor="middle" x="469.0048" y="-858.4314" font-family="Open Sans, Helvetica Neue, Helvetica, Arial, sans-serif" font-size="6.00" fill="#000000">success</text>
</g>
<!-- n14 -->
<g id="node15" class="node">
<title>n14</title>
<polygon fill="#ddddff" stroke="#000000" points="320.573,-900 175.427,-900 175.427,-864 320.573,-864 320.573,-900"/>
<text text-anchor="middle" x="248" y="-877.8" font-family="Times New Roman" font-size="14.00" fill="#000000">PromptToReleaseDeps</text>
</g>
<!-- n13&#45;&gt;n14 -->
<g id="edge21" class="edge">
<title>n13&#45;&gt;n14</title>
<path fill="none" stroke="#222255" d="M248,-935.8314C248,-928.131 248,-918.9743 248,-910.4166"/>
<polygon fill="#222255" stroke="#222255" points="251.5001,-910.4132 248,-900.4133 244.5001,-910.4133 251.5001,-910.4132"/>
<text text-anchor="middle" x="240.1718" y="-930.4314" font-family="Open Sans, Helvetica Neue, Helvetica, Arial, sans-serif" font-size="6.00" fill="#000000">failure</text>
</g>
<!-- n15 -->
<g id="node16" class="node">
<title>n15</title>
<polygon fill="#4682b4" stroke="#000000" points="1304.1317,-180 1157.8683,-180 1157.8683,-144 1304.1317,-144 1304.1317,-180"/>
<text text-anchor="middle" x="1231" y="-157.8" font-family="Times New Roman" font-size="14.00" fill="#ffffff">DoReleaseGroupBump</text>
</g>
<!-- n16 -->
<g id="node17" class="node">
<title>n16</title>
<polygon fill="#ffffff" stroke="#000000" points="1316.5657,-108 1145.4343,-108 1145.4343,-72 1316.5657,-72 1316.5657,-108"/>
<text text-anchor="middle" x="1231" y="-85.8" font-family="Times New Roman" font-size="14.00" fill="#000000">CheckShouldCommitBump</text>
</g>
<!-- n15&#45;&gt;n16 -->
<g id="edge22" class="edge">
<title>n15&#45;&gt;n16</title>
<path fill="none" stroke="#333333" d="M1231,-143.8314C1231,-136.131 1231,-126.9743 1231,-118.4166"/>
<polygon fill="#333333" stroke="#333333" points="1234.5001,-118.4132 1231,-108.4133 1227.5001,-118.4133 1234.5001,-118.4132"/>
<text text-anchor="middle" x="1222.0048" y="-138.4314" font-family="Open Sans, Helvetica Neue, Helvetica, Arial, sans-serif" font-size="6.00" fill="#000000">success</text>
</g>
<!-- n17 -->
<g id="node18" class="node">
<title>n17</title>
<polygon fill="#ddddff" stroke="#000000" points="1293.1235,-36 1168.8765,-36 1168.8765,0 1293.1235,0 1293.1235,-36"/>
<text text-anchor="middle" x="1231" y="-13.8" font-family="Times New Roman" font-size="14.00" fill="#000000">PromptToPRBump</text>
</g>
<!-- n16&#45;&gt;n17 -->
<g id="edge23" class="edge">
<title>n16&#45;&gt;n17</title>
<path fill="none" stroke="#222255" d="M1231,-71.8314C1231,-64.131 1231,-54.9743 1231,-46.4166"/>
<polygon fill="#222255" stroke="#222255" points="1234.5001,-46.4132 1231,-36.4133 1227.5001,-46.4133 1234.5001,-46.4132"/>
<text text-anchor="middle" x="1222.0048" y="-66.4314" font-family="Open Sans, Helvetica Neue, Helvetica, Arial, sans-serif" font-size="6.00" fill="#000000">success</text>
</g>
<!-- n18 -->
<g id="node19" class="node">
<title>n18</title>
<polygon fill="#ddddff" stroke="#000000" points="1464.4032,-36 1311.5968,-36 1311.5968,0 1464.4032,0 1464.4032,-36"/>
<text text-anchor="middle" x="1388" y="-13.8" font-family="Times New Roman" font-size="14.00" fill="#000000">PromptToCommitBump</text>
</g>
<!-- n16&#45;&gt;n18 -->
<g id="edge24" class="edge">
<title>n16&#45;&gt;n18</title>
<path fill="none" stroke="#666699" d="M1270.6177,-71.8314C1291.5222,-62.2446 1317.3483,-50.4008 1339.4488,-40.2655"/>
<polygon fill="none" stroke="#666699" points="1341.0364,-43.388 1348.6672,-36.038 1338.1184,-37.0252 1341.0364,-43.388"/>
<text text-anchor="middle" x="1262.7895" y="-66.4314" font-family="Open Sans, Helvetica Neue, Helvetica, Arial, sans-serif" font-size="6.00" fill="#000000">failure</text>
</g>
<!-- n20 -->
<g id="node21" class="node">
<title>n20</title>
<polygon fill="#ffffff" stroke="#000000" points="731.3525,-756 492.6475,-756 492.6475,-720 731.3525,-720 731.3525,-756"/>
<text text-anchor="middle" x="612" y="-733.8" font-family="Times New Roman" font-size="14.00" fill="#000000">CheckDoesReleaseFromReleaseBranch</text>
</g>
<!-- n19&#45;&gt;n20 -->
<g id="edge25" class="edge">
<title>n19&#45;&gt;n20</title>
<path fill="none" stroke="#333333" d="M687.1498,-935.9555C672.7998,-898.1556 639.5044,-810.4506 622.4612,-765.5564"/>
<polygon fill="#333333" stroke="#333333" points="625.7098,-764.2518 618.8884,-756.1451 619.1655,-766.7363 625.7098,-764.2518"/>
<text text-anchor="middle" x="678.1546" y="-930.5555" font-family="Open Sans, Helvetica Neue, Helvetica, Arial, sans-serif" font-size="6.00" fill="#000000">success</text>
</g>
<!-- n21 -->
<g id="node22" class="node">
<title>n21</title>
<polygon fill="#ffffff" stroke="#000000" points="611.3291,-684 458.6709,-684 458.6709,-648 611.3291,-648 611.3291,-684"/>
<text text-anchor="middle" x="535" y="-661.8" font-family="Times New Roman" font-size="14.00" fill="#000000">CheckOnReleaseBranch</text>
</g>
<!-- n20&#45;&gt;n21 -->
<g id="edge26" class="edge">
<title>n20&#45;&gt;n21</title>
<path fill="none" stroke="#333333" d="M592.5696,-719.8314C583.268,-711.1337 571.9796,-700.5783 561.8714,-691.1265"/>
<polygon fill="#333333" stroke="#333333" points="564.1189,-688.4363 554.4241,-684.1628 559.3379,-693.5493 564.1189,-688.4363"/>
<text text-anchor="middle" x="583.5744" y="-714.4314" font-family="Open Sans, Helvetica Neue, Helvetica, Arial, sans-serif" font-size="6.00" fill="#000000">success</text>
</g>
<!-- n22 -->
<g id="node23" class="node">
<title>n22</title>
<polygon fill="#ffffff" stroke="#000000" points="792.7227,-324 657.2773,-324 657.2773,-288 792.7227,-288 792.7227,-324"/>
<text text-anchor="middle" x="725" y="-301.8" font-family="Times New Roman" font-size="14.00" fill="#000000">CheckReleaseIsDone</text>
</g>
<!-- n20&#45;&gt;n22 -->
<g id="edge27" class="edge">
<title>n20&#45;&gt;n22</title>
<path fill="none" stroke="#777777" d="M709.0118,-719.9814C729.6349,-712.0216 749.525,-700.5456 764,-684 790.9182,-653.2312 783,-634.8816 783,-594 783,-594 783,-594 783,-450 783,-406.6562 760.1108,-360.9417 743.0907,-332.9402"/>
<polygon fill="none" stroke="#777777" points="745.8602,-330.7684 737.5851,-324.1522 739.9281,-334.4847 745.8602,-330.7684"/>
</g>
<!-- n21&#45;&gt;n9 -->
<g id="edge29" class="edge">
<title>n21&#45;&gt;n9</title>
<path fill="none" stroke="#666699" d="M499.6721,-647.8314C478.7858,-637.0898 452.3899,-623.5148 431.3308,-612.6844"/>
<polygon fill="none" stroke="#666699" points="432.861,-609.5357 422.3674,-608.0747 429.6596,-615.7607 432.861,-609.5357"/>
<text text-anchor="middle" x="491.8439" y="-642.4314" font-family="Open Sans, Helvetica Neue, Helvetica, Arial, sans-serif" font-size="6.00" fill="#000000">failure</text>
</g>
<!-- n21&#45;&gt;n22 -->
<g id="edge28" class="edge">
<title>n21&#45;&gt;n22</title>
<path fill="none" stroke="#333333" d="M539.3512,-647.9379C545.5022,-620.7787 556,-567.7286 556,-522 556,-522 556,-522 556,-450 556,-390.792 616.8405,-350.7934 665.5126,-328.268"/>
<polygon fill="#333333" stroke="#333333" points="667.0561,-331.4118 674.752,-324.13 664.1949,-325.0232 667.0561,-331.4118"/>
<text text-anchor="middle" x="530.356" y="-642.5379" font-family="Open Sans, Helvetica Neue, Helvetica, Arial, sans-serif" font-size="6.00" fill="#000000">success</text>
</g>
<!-- n23 -->
<g id="node24" class="node">
<title>n23</title>
<polygon fill="#ffffff" stroke="#000000" points="834.7128,-252 615.2872,-252 615.2872,-216 834.7128,-216 834.7128,-252"/>
<text text-anchor="middle" x="725" y="-229.8" font-family="Times New Roman" font-size="14.00" fill="#000000">CheckReleaseGroupIsBumpedPatch</text>
</g>
<!-- n22&#45;&gt;n23 -->
<g id="edge30" class="edge">
<title>n22&#45;&gt;n23</title>
<path fill="none" stroke="#333333" d="M725,-287.8314C725,-280.131 725,-270.9743 725,-262.4166"/>
<polygon fill="#333333" stroke="#333333" points="728.5001,-262.4132 725,-252.4133 721.5001,-262.4133 728.5001,-262.4132"/>
<text text-anchor="middle" x="716.0048" y="-282.4314" font-family="Open Sans, Helvetica Neue, Helvetica, Arial, sans-serif" font-size="6.00" fill="#000000">success</text>
</g>
<!-- n27 -->
<g id="node28" class="node">
<title>n27</title>
<polygon fill="#ddddff" stroke="#000000" points="969.3076,-252 852.6924,-252 852.6924,-216 969.3076,-216 969.3076,-252"/>
<text text-anchor="middle" x="911" y="-229.8" font-family="Times New Roman" font-size="14.00" fill="#000000">PromptToRelease</text>
</g>
<!-- n22&#45;&gt;n27 -->
<g id="edge31" class="edge">
<title>n22&#45;&gt;n27</title>
<path fill="none" stroke="#666699" d="M771.9357,-287.8314C797.1437,-278.0734 828.3926,-265.977 854.8791,-255.7242"/>
<polygon fill="none" stroke="#666699" points="856.3397,-258.912 864.4019,-252.038 853.8127,-252.384 856.3397,-258.912"/>
<text text-anchor="middle" x="764.1075" y="-282.4314" font-family="Open Sans, Helvetica Neue, Helvetica, Arial, sans-serif" font-size="6.00" fill="#000000">failure</text>
</g>
<!-- n23&#45;&gt;n15 -->
<g id="edge33" class="edge">
<title>n23&#45;&gt;n15</title>
<path fill="none" stroke="#777777" d="M834.8934,-217.3305C837.9614,-216.8802 841.0018,-216.4359 844,-216 948.5636,-200.7972 1069.149,-184.1042 1147.5527,-173.3621"/>
<polygon fill="none" stroke="#777777" points="1148.42,-176.776 1157.8528,-171.9518 1147.4704,-169.8407 1148.42,-176.776"/>
<text text-anchor="middle" x="842.7216" y="-219.1305" font-family="Open Sans, Helvetica Neue, Helvetica, Arial, sans-serif" font-size="6.00" fill="#000000">failure</text>
</g>
<!-- n24 -->
<g id="node25" class="node">
<title>n24</title>
<polygon fill="#ffffff" stroke="#000000" points="808.8835,-180 661.1165,-180 661.1165,-144 808.8835,-144 808.8835,-180"/>
<text text-anchor="middle" x="735" y="-157.8" font-family="Times New Roman" font-size="14.00" fill="#000000">CheckTypeTestPrepare</text>
</g>
<!-- n23&#45;&gt;n24 -->
<g id="edge32" class="edge">
<title>n23&#45;&gt;n24</title>
<path fill="none" stroke="#333333" d="M727.5234,-215.8314C728.5929,-208.131 729.8647,-198.9743 731.0532,-190.4166"/>
<polygon fill="#333333" stroke="#333333" points="734.5336,-190.7997 732.4426,-180.4133 727.6001,-189.8367 734.5336,-190.7997"/>
<text text-anchor="middle" x="718.5282" y="-210.4314" font-family="Open Sans, Helvetica Neue, Helvetica, Arial, sans-serif" font-size="6.00" fill="#000000">success</text>
</g>
<!-- n25 -->
<g id="node26" class="node">
<title>n25</title>
<polygon fill="#ffffff" stroke="#000000" points="918.6517,-108 763.3483,-108 763.3483,-72 918.6517,-72 918.6517,-108"/>
<text text-anchor="middle" x="841" y="-85.8" font-family="Times New Roman" font-size="14.00" fill="#000000">CheckTypeTestGenerate</text>
</g>
<!-- n24&#45;&gt;n25 -->
<g id="edge34" class="edge">
<title>n24&#45;&gt;n25</title>
<path fill="none" stroke="#333333" d="M761.7483,-143.8314C775.0553,-134.7927 791.316,-123.7476 805.6375,-114.0198"/>
<polygon fill="#333333" stroke="#333333" points="807.9547,-116.677 814.2603,-108.1628 804.0215,-110.8864 807.9547,-116.677"/>
<text text-anchor="middle" x="752.7531" y="-138.4314" font-family="Open Sans, Helvetica Neue, Helvetica, Arial, sans-serif" font-size="6.00" fill="#000000">success</text>
</g>
<!-- n28 -->
<g id="node29" class="node">
<title>n28</title>
<polygon fill="#ddddff" stroke="#000000" points="865.4284,-36 710.5716,-36 710.5716,0 865.4284,0 865.4284,-36"/>
<text text-anchor="middle" x="788" y="-13.8" font-family="Times New Roman" font-size="14.00" fill="#000000">PromptToRunTypeTests</text>
</g>
<!-- n24&#45;&gt;n28 -->
<g id="edge35" class="edge">
<title>n24&#45;&gt;n28</title>
<path fill="none" stroke="#666699" d="M736.9185,-143.8612C739.3188,-125.2825 744.3444,-95.8288 754,-72 757.829,-62.5506 763.299,-52.9164 768.7354,-44.4515"/>
<polygon fill="none" stroke="#666699" points="771.6647,-46.3674 774.3183,-36.1102 765.8474,-42.4738 771.6647,-46.3674"/>
<text text-anchor="middle" x="729.0903" y="-138.4612" font-family="Open Sans, Helvetica Neue, Helvetica, Arial, sans-serif" font-size="6.00" fill="#000000">failure</text>
</g>
<!-- n26 -->
<g id="node27" class="node">
<title>n26</title>
<polygon fill="#008000" stroke="#000000" points="1081.9678,-36 968.0322,-36 968.0322,0 1081.9678,0 1081.9678,-36"/>
<text text-anchor="middle" x="1025" y="-13.8" font-family="Times New Roman" font-size="14.00" fill="#ffffff">ReleaseComplete</text>
</g>
<!-- n25&#45;&gt;n26 -->
<g id="edge36" class="edge">
<title>n25&#45;&gt;n26</title>
<path fill="none" stroke="#222255" d="M887.431,-71.8314C912.368,-62.0734 943.2809,-49.977 969.4826,-39.7242"/>
<polygon fill="#222255" stroke="#222255" points="970.8659,-42.9414 978.9029,-36.038 968.3151,-36.4227 970.8659,-42.9414"/>
<text text-anchor="middle" x="878.4358" y="-66.4314" font-family="Open Sans, Helvetica Neue, Helvetica, Arial, sans-serif" font-size="6.00" fill="#000000">success</text>
</g>
<!-- n25&#45;&gt;n28 -->
<g id="edge37" class="edge">
<title>n25&#45;&gt;n28</title>
<path fill="none" stroke="#666699" d="M827.6259,-71.8314C821.5838,-63.6232 814.3237,-53.7606 807.6779,-44.7323"/>
<polygon fill="none" stroke="#666699" points="810.3011,-42.3918 801.5542,-36.4133 804.6637,-46.5415 810.3011,-42.3918"/>
<text text-anchor="middle" x="819.7977" y="-66.4314" font-family="Open Sans, Helvetica Neue, Helvetica, Arial, sans-serif" font-size="6.00" fill="#000000">failure</text>
</g>
<!-- n30 -->
<g id="node31" class="node">
<title>n30</title>
<polygon fill="#ffffff" stroke="#000000" points="1094.8525,-612 849.1475,-612 849.1475,-576 1094.8525,-576 1094.8525,-612"/>
<text text-anchor="middle" x="972" y="-589.8" font-family="Times New Roman" font-size="14.00" fill="#000000">CheckDoesReleaseFromReleaseBranch2</text>
</g>
<!-- n29&#45;&gt;n30 -->
<g id="edge38" class="edge">
<title>n29&#45;&gt;n30</title>
<path fill="none" stroke="#333333" d="M972,-647.8314C972,-640.131 972,-630.9743 972,-622.4166"/>
<polygon fill="#333333" stroke="#333333" points="975.5001,-622.4132 972,-612.4133 968.5001,-622.4133 975.5001,-622.4132"/>
<text text-anchor="middle" x="963.0048" y="-642.4314" font-family="Open Sans, Helvetica Neue, Helvetica, Arial, sans-serif" font-size="6.00" fill="#000000">success</text>
</g>
<!-- n31 -->
<g id="node32" class="node">
<title>n31</title>
<polygon fill="#ffffff" stroke="#000000" points="1127.8291,-540 968.1709,-540 968.1709,-504 1127.8291,-504 1127.8291,-540"/>
<text text-anchor="middle" x="1048" y="-517.8" font-family="Times New Roman" font-size="14.00" fill="#000000">CheckOnReleaseBranch2</text>
</g>
<!-- n30&#45;&gt;n31 -->
<g id="edge39" class="edge">
<title>n30&#45;&gt;n31</title>
<path fill="none" stroke="#333333" d="M991.178,-575.8314C1000.3588,-567.1337 1011.5006,-556.5783 1021.4776,-547.1265"/>
<polygon fill="#333333" stroke="#333333" points="1023.9757,-549.5811 1028.8281,-540.1628 1019.1615,-544.4995 1023.9757,-549.5811"/>
<text text-anchor="middle" x="982.1828" y="-570.4314" font-family="Open Sans, Helvetica Neue, Helvetica, Arial, sans-serif" font-size="6.00" fill="#000000">success</text>
</g>
<!-- n33 -->
<g id="node34" class="node">
<title>n33</title>
<polygon fill="#ffffff" stroke="#000000" points="1203.2227,-324 1060.7773,-324 1060.7773,-288 1203.2227,-288 1203.2227,-324"/>
<text text-anchor="middle" x="1132" y="-301.8" font-family="Times New Roman" font-size="14.00" fill="#000000">CheckReleaseIsDone2</text>
</g>
<!-- n30&#45;&gt;n33 -->
<g id="edge40" class="edge">
<title>n30&#45;&gt;n33</title>
<path fill="none" stroke="#777777" d="M957.833,-575.7836C934.8854,-543.8993 895.2059,-477.086 927,-432 954.4639,-393.0546 987.3825,-420.9245 1028,-396 1047.8288,-383.8323 1048.5412,-375.3761 1066,-360 1077.2648,-350.079 1089.9595,-339.546 1101.1843,-330.4421"/>
<polygon fill="none" stroke="#777777" points="1103.4687,-333.0963 1109.0565,-324.0948 1099.0749,-327.6469 1103.4687,-333.0963"/>
<text text-anchor="middle" x="950.0048" y="-570.3836" font-family="Open Sans, Helvetica Neue, Helvetica, Arial, sans-serif" font-size="6.00" fill="#000000">failure</text>
</g>
<!-- n32 -->
<g id="node33" class="node">
<title>n32</title>
<polygon fill="#ffffff" stroke="#000000" points="1301.2128,-396 1074.7872,-396 1074.7872,-360 1301.2128,-360 1301.2128,-396"/>
<text text-anchor="middle" x="1188" y="-373.8" font-family="Times New Roman" font-size="14.00" fill="#000000">CheckReleaseGroupIsBumpedPatch2</text>
</g>
<!-- n31&#45;&gt;n32 -->
<g id="edge41" class="edge">
<title>n31&#45;&gt;n32</title>
<path fill="none" stroke="#333333" d="M1117.6065,-503.9124C1136.7524,-495.8136 1155.8445,-484.2834 1169,-468 1182.9718,-450.7064 1187.3663,-425.6052 1188.4682,-406.3027"/>
<polygon fill="#333333" stroke="#333333" points="1191.9678,-406.3665 1188.7815,-396.2622 1184.9712,-406.1481 1191.9678,-406.3665"/>
<text text-anchor="middle" x="1108.6113" y="-498.5124" font-family="Open Sans, Helvetica Neue, Helvetica, Arial, sans-serif" font-size="6.00" fill="#000000">success</text>
</g>
<!-- n36 -->
<g id="node37" class="node">
<title>n36</title>
<polygon fill="#ffffff" stroke="#000000" points="1159.6063,-468 936.3937,-468 936.3937,-432 1159.6063,-432 1159.6063,-468"/>
<text text-anchor="middle" x="1048" y="-445.8" font-family="Times New Roman" font-size="14.00" fill="#000000">CheckReleaseGroupIsBumpedMinor</text>
</g>
<!-- n31&#45;&gt;n36 -->
<g id="edge42" class="edge">
<title>n31&#45;&gt;n36</title>
<path fill="none" stroke="#777777" d="M1048,-503.8314C1048,-496.131 1048,-486.9743 1048,-478.4166"/>
<polygon fill="none" stroke="#777777" points="1051.5001,-478.4132 1048,-468.4133 1044.5001,-478.4133 1051.5001,-478.4132"/>
<text text-anchor="middle" x="1040.1718" y="-498.4314" font-family="Open Sans, Helvetica Neue, Helvetica, Arial, sans-serif" font-size="6.00" fill="#000000">failure</text>
</g>
<!-- n32&#45;&gt;n15 -->
<g id="edge44" class="edge">
<title>n32&#45;&gt;n15</title>
<path fill="none" stroke="#777777" d="M1197.8804,-359.5207C1202.9017,-349.3219 1208.6376,-336.269 1212,-324 1224.5075,-278.3612 1228.7821,-223.2759 1230.2425,-190.5241"/>
<polygon fill="none" stroke="#777777" points="1233.748,-190.4471 1230.6377,-180.3191 1226.7533,-190.1761 1233.748,-190.4471"/>
<text text-anchor="middle" x="1190.0522" y="-354.1207" font-family="Open Sans, Helvetica Neue, Helvetica, Arial, sans-serif" font-size="6.00" fill="#000000">failure</text>
</g>
<!-- n32&#45;&gt;n33 -->
<g id="edge43" class="edge">
<title>n32&#45;&gt;n33</title>
<path fill="none" stroke="#333333" d="M1173.8688,-359.8314C1167.4189,-351.5386 1159.6555,-341.557 1152.5748,-332.4533"/>
<polygon fill="#333333" stroke="#333333" points="1155.2236,-330.158 1146.3214,-324.4133 1149.6981,-334.4556 1155.2236,-330.158"/>
<text text-anchor="middle" x="1164.8736" y="-354.4314" font-family="Open Sans, Helvetica Neue, Helvetica, Arial, sans-serif" font-size="6.00" fill="#000000">success</text>
</g>
<!-- n33&#45;&gt;n27 -->
<g id="edge46" class="edge">
<title>n33&#45;&gt;n27</title>
<path fill="none" stroke="#666699" d="M1076.5176,-287.9243C1046.0429,-277.9959 1008.0727,-265.6255 976.1895,-255.2382"/>
<polygon fill="none" stroke="#666699" points="977.0975,-251.853 966.5052,-252.0831 974.9291,-258.5087 977.0975,-251.853"/>
<text text-anchor="middle" x="1068.6894" y="-282.5243" font-family="Open Sans, Helvetica Neue, Helvetica, Arial, sans-serif" font-size="6.00" fill="#000000">failure</text>
</g>
<!-- n34 -->
<g id="node35" class="node">
<title>n34</title>
<polygon fill="#ffffff" stroke="#000000" points="1172.3835,-252 1017.6165,-252 1017.6165,-216 1172.3835,-216 1172.3835,-252"/>
<text text-anchor="middle" x="1095" y="-229.8" font-family="Times New Roman" font-size="14.00" fill="#000000">CheckTypeTestPrepare2</text>
</g>
<!-- n33&#45;&gt;n34 -->
<g id="edge45" class="edge">
<title>n33&#45;&gt;n34</title>
<path fill="none" stroke="#333333" d="M1122.6633,-287.8314C1118.5757,-279.8771 1113.6896,-270.369 1109.1691,-261.5723"/>
<polygon fill="#333333" stroke="#333333" points="1112.1461,-259.7078 1104.4624,-252.4133 1105.9201,-262.9074 1112.1461,-259.7078"/>
<text text-anchor="middle" x="1113.6681" y="-282.4314" font-family="Open Sans, Helvetica Neue, Helvetica, Arial, sans-serif" font-size="6.00" fill="#000000">success</text>
</g>
<!-- n35 -->
<g id="node36" class="node">
<title>n35</title>
<polygon fill="#ffffff" stroke="#000000" points="1118.1517,-108 955.8483,-108 955.8483,-72 1118.1517,-72 1118.1517,-108"/>
<text text-anchor="middle" x="1037" y="-85.8" font-family="Times New Roman" font-size="14.00" fill="#000000">CheckTypeTestGenerate2</text>
</g>
<!-- n34&#45;&gt;n35 -->
<g id="edge47" class="edge">
<title>n34&#45;&gt;n35</title>
<path fill="none" stroke="#333333" d="M1087.6543,-215.7623C1077.6744,-190.9846 1059.7454,-146.4714 1048.1142,-117.5939"/>
<polygon fill="#333333" stroke="#333333" points="1051.2688,-116.0578 1044.2861,-108.0896 1044.7757,-118.6731 1051.2688,-116.0578"/>
<text text-anchor="middle" x="1078.6591" y="-210.3623" font-family="Open Sans, Helvetica Neue, Helvetica, Arial, sans-serif" font-size="6.00" fill="#000000">success</text>
</g>
<!-- n35&#45;&gt;n26 -->
<g id="edge48" class="edge">
<title>n35&#45;&gt;n26</title>
<path fill="none" stroke="#222255" d="M1033.9719,-71.8314C1032.6885,-64.131 1031.1624,-54.9743 1029.7361,-46.4166"/>
<polygon fill="#222255" stroke="#222255" points="1033.1653,-45.7018 1028.0689,-36.4133 1026.2606,-46.8526 1033.1653,-45.7018"/>
<text text-anchor="middle" x="1024.9767" y="-66.4314" font-family="Open Sans, Helvetica Neue, Helvetica, Arial, sans-serif" font-size="6.00" fill="#000000">success</text>
</g>
<!-- n36&#45;&gt;n15 -->
<g id="edge50" class="edge">
<title>n36&#45;&gt;n15</title>
<path fill="none" stroke="#777777" d="M1159.9412,-440.903C1222.1065,-433.2724 1290.71,-419.6712 1310,-396 1361.4882,-332.8175 1292.9573,-234.4494 1254.2543,-187.9836"/>
<polygon fill="none" stroke="#777777" points="1256.7794,-185.55 1247.638,-180.1942 1251.4442,-190.0817 1256.7794,-185.55"/>
<text text-anchor="middle" x="1167.7694" y="-442.703" font-family="Open Sans, Helvetica Neue, Helvetica, Arial, sans-serif" font-size="6.00" fill="#000000">failure</text>
</g>
<!-- n37 -->
<g id="node38" class="node">
<title>n37</title>
<polygon fill="#ffffff" stroke="#000000" points="1018.9454,-396 849.0546,-396 849.0546,-360 1018.9454,-360 1018.9454,-396"/>
<text text-anchor="middle" x="934" y="-373.8" font-family="Times New Roman" font-size="14.00" fill="#000000">CheckReleaseBranchExists</text>
</g>
<!-- n36&#45;&gt;n37 -->
<g id="edge49" class="edge">
<title>n36&#45;&gt;n37</title>
<path fill="none" stroke="#333333" d="M1019.233,-431.8314C1004.7867,-422.7074 987.1035,-411.539 971.596,-401.7449"/>
<polygon fill="#333333" stroke="#333333" points="973.0817,-398.5436 962.7578,-396.1628 969.3437,-404.462 973.0817,-398.5436"/>
<text text-anchor="middle" x="1010.2378" y="-426.4314" font-family="Open Sans, Helvetica Neue, Helvetica, Arial, sans-serif" font-size="6.00" fill="#000000">success</text>
</g>
<!-- n37&#45;&gt;n22 -->
<g id="edge51" class="edge">
<title>n37&#45;&gt;n22</title>
<path fill="none" stroke="#333333" d="M881.5302,-359.9243C852.8345,-350.0387 817.1112,-337.7321 787.04,-327.3726"/>
<polygon fill="#333333" stroke="#333333" points="788.0861,-324.0312 777.4913,-324.0831 785.806,-330.6495 788.0861,-324.0312"/>
<text text-anchor="middle" x="872.535" y="-354.5243" font-family="Open Sans, Helvetica Neue, Helvetica, Arial, sans-serif" font-size="6.00" fill="#000000">success</text>
</g>
<!-- n38 -->
<g id="node39" class="node">
<title>n38</title>
<polygon fill="#ddddff" stroke="#000000" points="1042.7654,-324 849.2346,-324 849.2346,-288 1042.7654,-288 1042.7654,-324"/>
<text text-anchor="middle" x="946" y="-301.8" font-family="Times New Roman" font-size="14.00" fill="#000000">PromptToCreateReleaseBranch</text>
</g>
<!-- n37&#45;&gt;n38 -->
<g id="edge52" class="edge">
<title>n37&#45;&gt;n38</title>
<path fill="none" stroke="#222255" d="M937.0281,-359.8314C938.3115,-352.131 939.8376,-342.9743 941.2639,-334.4166"/>
<polygon fill="#222255" stroke="#222255" points="944.7394,-334.8526 942.9311,-324.4133 937.8347,-333.7018 944.7394,-334.8526"/>
<text text-anchor="middle" x="929.1999" y="-354.4314" font-family="Open Sans, Helvetica Neue, Helvetica, Arial, sans-serif" font-size="6.00" fill="#000000">failure</text>
</g>
<!-- n40 -->
<g id="node41" class="node">
<title>n40</title>
<polygon fill="#ffffff" stroke="#000000" points="943.8525,-900 698.1475,-900 698.1475,-864 943.8525,-864 943.8525,-900"/>
<text text-anchor="middle" x="821" y="-877.8" font-family="Times New Roman" font-size="14.00" fill="#000000">CheckDoesReleaseFromReleaseBranch3</text>
</g>
<!-- n39&#45;&gt;n40 -->
<g id="edge53" class="edge">
<title>n39&#45;&gt;n40</title>
<path fill="none" stroke="#333333" d="M821,-935.8314C821,-928.131 821,-918.9743 821,-910.4166"/>
<polygon fill="#333333" stroke="#333333" points="824.5001,-910.4132 821,-900.4133 817.5001,-910.4133 824.5001,-910.4132"/>
<text text-anchor="middle" x="812.0048" y="-930.4314" font-family="Open Sans, Helvetica Neue, Helvetica, Arial, sans-serif" font-size="6.00" fill="#000000">success</text>
</g>
<!-- n41 -->
<g id="node42" class="node">
<title>n41</title>
<polygon fill="#ffffff" stroke="#000000" points="903.7738,-828 738.2262,-828 738.2262,-792 903.7738,-792 903.7738,-828"/>
<text text-anchor="middle" x="821" y="-805.8" font-family="Times New Roman" font-size="14.00" fill="#000000">CheckMainNextIntegrated</text>
</g>
<!-- n40&#45;&gt;n41 -->
<g id="edge54" class="edge">
<title>n40&#45;&gt;n41</title>
<path fill="none" stroke="#333333" d="M821,-863.8314C821,-856.131 821,-846.9743 821,-838.4166"/>
<polygon fill="#333333" stroke="#333333" points="824.5001,-838.4132 821,-828.4133 817.5001,-838.4133 824.5001,-838.4132"/>
<text text-anchor="middle" x="812.0048" y="-858.4314" font-family="Open Sans, Helvetica Neue, Helvetica, Arial, sans-serif" font-size="6.00" fill="#000000">success</text>
</g>
<!-- n42 -->
<g id="node43" class="node">
<title>n42</title>
<polygon fill="#ffffff" stroke="#000000" points="892.2227,-756 749.7773,-756 749.7773,-720 892.2227,-720 892.2227,-756"/>
<text text-anchor="middle" x="821" y="-733.8" font-family="Times New Roman" font-size="14.00" fill="#000000">CheckReleaseIsDone3</text>
</g>
<!-- n40&#45;&gt;n42 -->
<g id="edge55" class="edge">
<title>n40&#45;&gt;n42</title>
<path fill="none" stroke="#777777" d="M872.0855,-863.9348C888.0666,-855.5922 903.8895,-843.9115 913,-828 920.9502,-814.115 920.9502,-805.885 913,-792 905.5977,-779.0719 893.7642,-768.9368 881.015,-761.1159"/>
<polygon fill="none" stroke="#777777" points="882.5128,-757.942 872.0855,-756.0652 879.0665,-764.0349 882.5128,-757.942"/>
<text text-anchor="middle" x="864.2573" y="-858.5348" font-family="Open Sans, Helvetica Neue, Helvetica, Arial, sans-serif" font-size="6.00" fill="#000000">failure</text>
</g>
<!-- n41&#45;&gt;n42 -->
<g id="edge56" class="edge">
<title>n41&#45;&gt;n42</title>
<path fill="none" stroke="#333333" d="M821,-791.8314C821,-784.131 821,-774.9743 821,-766.4166"/>
<polygon fill="#333333" stroke="#333333" points="824.5001,-766.4132 821,-756.4133 817.5001,-766.4133 824.5001,-766.4132"/>
<text text-anchor="middle" x="812.0048" y="-786.4314" font-family="Open Sans, Helvetica Neue, Helvetica, Arial, sans-serif" font-size="6.00" fill="#000000">success</text>
</g>
<!-- n43 -->
<g id="node44" class="node">
<title>n43</title>
<polygon fill="#ffffff" stroke="#000000" points="474.8291,-756 315.1709,-756 315.1709,-720 474.8291,-720 474.8291,-756"/>
<text text-anchor="middle" x="395" y="-733.8" font-family="Times New Roman" font-size="14.00" fill="#000000">CheckOnReleaseBranch3</text>
</g>
<!-- n41&#45;&gt;n43 -->
<g id="edge57" class="edge">
<title>n41&#45;&gt;n43</title>
<path fill="none" stroke="#777777" d="M738.0901,-797.6761C672.179,-787.6563 577.3826,-772.7518 485.1001,-756.1642"/>
<polygon fill="none" stroke="#777777" points="485.4869,-752.6775 475.0241,-754.3444 484.2428,-759.5661 485.4869,-752.6775"/>
<text text-anchor="middle" x="730.2619" y="-799.4761" font-family="Open Sans, Helvetica Neue, Helvetica, Arial, sans-serif" font-size="6.00" fill="#000000">failure</text>
</g>
<!-- n42&#45;&gt;n27 -->
<g id="edge59" class="edge">
<title>n42&#45;&gt;n27</title>
<path fill="none" stroke="#222255" d="M821,-719.8146C821,-692.4983 821,-639.25 821,-594 821,-594 821,-594 821,-378 821,-337.1184 818.1351,-322.5432 840,-288 847.3923,-276.3213 858.2599,-266.2223 869.2811,-258.0211"/>
<polygon fill="#222255" stroke="#222255" points="871.5086,-260.7338 877.684,-252.1247 867.4878,-255.0037 871.5086,-260.7338"/>
<text text-anchor="middle" x="812.0048" y="-714.4146" font-family="Open Sans, Helvetica Neue, Helvetica, Arial, sans-serif" font-size="6.00" fill="#000000">success</text>
</g>
<!-- n42&#45;&gt;n29 -->
<g id="edge58" class="edge">
<title>n42&#45;&gt;n29</title>
<path fill="none" stroke="#777777" d="M859.1037,-719.8314C879.1195,-710.2874 903.8267,-698.5065 925.0194,-688.4013"/>
<polygon fill="none" stroke="#777777" points="926.6503,-691.5013 934.1703,-684.038 923.6375,-685.1828 926.6503,-691.5013"/>
<text text-anchor="middle" x="851.2755" y="-714.4314" font-family="Open Sans, Helvetica Neue, Helvetica, Arial, sans-serif" font-size="6.00" fill="#000000">failure</text>
</g>
<!-- n43&#45;&gt;n9 -->
<g id="edge60" class="edge">
<title>n43&#45;&gt;n9</title>
<path fill="none" stroke="#222255" d="M395,-719.7623C395,-695.201 395,-651.2474 395,-622.3541"/>
<polygon fill="#222255" stroke="#222255" points="398.5001,-622.0896 395,-612.0896 391.5001,-622.0897 398.5001,-622.0896"/>
<text text-anchor="middle" x="386.0048" y="-714.3623" font-family="Open Sans, Helvetica Neue, Helvetica, Arial, sans-serif" font-size="6.00" fill="#000000">success</text>
</g>
<!-- n44 -->
<g id="node45" class="node">
<title>n44</title>
<polygon fill="#ffffff" stroke="#000000" points="754.6192,-684 629.3808,-684 629.3808,-648 754.6192,-648 754.6192,-684"/>
<text text-anchor="middle" x="692" y="-661.8" font-family="Times New Roman" font-size="14.00" fill="#000000">CheckBranchName</text>
</g>
<!-- n43&#45;&gt;n44 -->
<g id="edge61" class="edge">
<title>n43&#45;&gt;n44</title>
<path fill="none" stroke="#777777" d="M470.8134,-719.9929C511.9936,-710.1675 564.0585,-697.6739 619.2135,-684.1826"/>
<polygon fill="none" stroke="#777777" points="620.2995,-687.5201 629.18,-681.742 618.6345,-680.721 620.2995,-687.5201"/>
<text text-anchor="middle" x="462.9852" y="-714.5929" font-family="Open Sans, Helvetica Neue, Helvetica, Arial, sans-serif" font-size="6.00" fill="#000000">failure</text>
</g>
<!-- n44&#45;&gt;n9 -->
<g id="edge63" class="edge">
<title>n44&#45;&gt;n9</title>
<path fill="none" stroke="#666699" d="M629.18,-650.258C626.0767,-649.4919 623.0035,-648.7358 620,-648 553.7573,-631.7709 476.4187,-613.3176 431.8359,-602.728"/>
<polygon fill="none" stroke="#666699" points="432.5727,-599.3057 422.0346,-600.4013 430.9558,-606.1165 432.5727,-599.3057"/>
<text text-anchor="middle" x="621.3518" y="-652.058" font-family="Open Sans, Helvetica Neue, Helvetica, Arial, sans-serif" font-size="6.00" fill="#000000">failure</text>
</g>
<!-- n45 -->
<g id="node46" class="node">
<title>n45</title>
<polygon fill="#ddddff" stroke="#000000" points="754.7352,-612 605.2648,-612 605.2648,-576 754.7352,-576 754.7352,-612"/>
<text text-anchor="middle" x="680" y="-589.8" font-family="Times New Roman" font-size="14.00" fill="#000000">PromptToIntegrateNext</text>
</g>
<!-- n44&#45;&gt;n45 -->
<g id="edge62" class="edge">
<title>n44&#45;&gt;n45</title>
<path fill="none" stroke="#222255" d="M688.9719,-647.8314C687.6885,-640.131 686.1624,-630.9743 684.7361,-622.4166"/>
<polygon fill="#222255" stroke="#222255" points="688.1653,-621.7018 683.0689,-612.4133 681.2606,-622.8526 688.1653,-621.7018"/>
<text text-anchor="middle" x="679.9767" y="-642.4314" font-family="Open Sans, Helvetica Neue, Helvetica, Arial, sans-serif" font-size="6.00" fill="#000000">success</text>
</g>
</g>
</svg>
