<?xml version="1.0" encoding="UTF-8" standalone="no"?>
<!DOCTYPE svg PUBLIC "-//W3C//DTD SVG 1.1//EN"
 "http://www.w3.org/Graphics/SVG/1.1/DTD/svg11.dtd">
<!-- Generated by graphviz version 2.40.1 (20161225.0304)
 -->
<!-- Title: G Pages: 1 -->
<svg width="1012pt" height="1268pt"
 viewBox="0.00 0.00 1012.06 1268.00" xmlns="http://www.w3.org/2000/svg" xmlns:xlink="http://www.w3.org/1999/xlink">
  <style type="text/css">
    @font-face {
      font-family : Bonk;
      src         : url('./Impact.ttf');
    }
  </style>

<g id="graph0" class="graph" transform="scale(1 1) rotate(0) translate(4 1264)">
<title>G</title>
<polygon fill="#eeeeee" stroke="transparent" points="-4,4 -4,-1264 1008.0617,-1264 1008.0617,4 -4,4"/>
<!-- n0 -->
<g id="node1" class="node">
<title>n0</title>
<polygon fill="#ffffff" stroke="#000000" points="966.0617,-1260 912.0617,-1260 912.0617,-1224 966.0617,-1224 966.0617,-1260"/>
<text text-anchor="middle" x="939.0617" y="-1237.8" font-family="Times New Roman" font-size="14.00" fill="#000000">Init</text>
</g>
<!-- n1 -->
<g id="node2" class="node">
<title>n1</title>
<polygon fill="#4682b4" stroke="#000000" points="944.3794,-1188 869.744,-1188 869.744,-1152 944.3794,-1152 944.3794,-1188"/>
<text text-anchor="middle" x="907.0617" y="-1165.8" font-family="Times New Roman" font-size="14.00" fill="#ffffff">DoChecks</text>
</g>
<!-- n0&#45;&gt;n1 -->
<g id="edge1" class="edge">
<title>n0&#45;&gt;n1</title>
<path fill="none" stroke="#333333" d="M930.9867,-1223.8314C927.4515,-1215.8771 923.2257,-1206.369 919.3161,-1197.5723"/>
<polygon fill="#333333" stroke="#333333" points="922.5052,-1196.1299 915.2454,-1188.4133 916.1085,-1198.9729 922.5052,-1196.1299"/>
<text text-anchor="middle" x="921.9915" y="-1218.4314" font-family="Open Sans, Helvetica Neue, Helvetica, Arial, sans-serif" font-size="6.00" fill="#000000">success</text>
</g>
<!-- n2 -->
<g id="node3" class="node">
<title>n2</title>
<polygon fill="#ddddff" stroke="#000000" points="858.0617,-324 804.0617,-324 804.0617,-288 858.0617,-288 858.0617,-324"/>
<text text-anchor="middle" x="831.0617" y="-301.8" font-family="Times New Roman" font-size="14.00" fill="#000000">Failed</text>
</g>
<!-- n0&#45;&gt;n2 -->
<g id="edge2" class="edge">
<title>n0&#45;&gt;n2</title>
<path fill="none" stroke="#222255" d="M953.4873,-1223.6392C972.6368,-1197.37 1004.0617,-1146.8235 1004.0617,-1098 1004.0617,-1098 1004.0617,-1098 1004.0617,-450 1004.0617,-379.6597 918.5331,-337.0441 867.7506,-317.9404"/>
<polygon fill="#222255" stroke="#222255" points="868.6871,-314.5569 858.093,-314.4319 866.2968,-321.1362 868.6871,-314.5569"/>
<text text-anchor="middle" x="945.6591" y="-1218.2392" font-family="Open Sans, Helvetica Neue, Helvetica, Arial, sans-serif" font-size="6.00" fill="#000000">failure</text>
</g>
<!-- n3 -->
<g id="node4" class="node">
<title>n3</title>
<polygon fill="#ffffff" stroke="#000000" points="935.5407,-1116 730.5827,-1116 730.5827,-1080 935.5407,-1080 935.5407,-1116"/>
<text text-anchor="middle" x="833.0617" y="-1093.8" font-family="Times New Roman" font-size="14.00" fill="#000000">CheckShouldRunOptionalChecks</text>
</g>
<!-- n1&#45;&gt;n3 -->
<g id="edge3" class="edge">
<title>n1&#45;&gt;n3</title>
<path fill="none" stroke="#333333" d="M888.3884,-1151.8314C879.5368,-1143.219 868.8131,-1132.7851 859.1722,-1123.4048"/>
<polygon fill="#333333" stroke="#333333" points="861.3371,-1120.6279 851.7291,-1116.1628 856.4556,-1125.645 861.3371,-1120.6279"/>
<text text-anchor="middle" x="879.3932" y="-1146.4314" font-family="Open Sans, Helvetica Neue, Helvetica, Arial, sans-serif" font-size="6.00" fill="#000000">success</text>
</g>
<!-- n4 -->
<g id="node5" class="node">
<title>n4</title>
<polygon fill="#ffffff" stroke="#000000" points="914.2274,-1044 751.896,-1044 751.896,-1008 914.2274,-1008 914.2274,-1044"/>
<text text-anchor="middle" x="833.0617" y="-1021.8" font-family="Times New Roman" font-size="14.00" fill="#000000">CheckValidReleaseGroup</text>
</g>
<!-- n3&#45;&gt;n4 -->
<g id="edge4" class="edge">
<title>n3&#45;&gt;n4</title>
<path fill="none" stroke="#333333" d="M833.0617,-1079.8314C833.0617,-1072.131 833.0617,-1062.9743 833.0617,-1054.4166"/>
<polygon fill="#333333" stroke="#333333" points="836.5618,-1054.4132 833.0617,-1044.4133 829.5618,-1054.4133 836.5618,-1054.4132"/>
<text text-anchor="middle" x="824.0665" y="-1074.4314" font-family="Open Sans, Helvetica Neue, Helvetica, Arial, sans-serif" font-size="6.00" fill="#000000">success</text>
</g>
<!-- n8 -->
<g id="node9" class="node">
<title>n8</title>
<polygon fill="#ffffff" stroke="#000000" points="765.4609,-756 560.6625,-756 560.6625,-720 765.4609,-720 765.4609,-756"/>
<text text-anchor="middle" x="663.0617" y="-733.8" font-family="Times New Roman" font-size="14.00" fill="#000000">CheckNoPrereleaseDependencies</text>
</g>
<!-- n3&#45;&gt;n8 -->
<g id="edge5" class="edge">
<title>n3&#45;&gt;n8</title>
<path fill="none" stroke="#333333" d="M788.4918,-1079.8856C742.0757,-1057.7171 676.0617,-1015.3962 676.0617,-954 676.0617,-954 676.0617,-954 676.0617,-882 676.0617,-841.7128 670.952,-795.3414 667.1396,-766.3495"/>
<polygon fill="#333333" stroke="#333333" points="670.567,-765.5772 665.7553,-756.138 663.6304,-766.5175 670.567,-765.5772"/>
<text text-anchor="middle" x="780.6636" y="-1074.4856" font-family="Open Sans, Helvetica Neue, Helvetica, Arial, sans-serif" font-size="6.00" fill="#000000">failure</text>
</g>
<!-- n4&#45;&gt;n2 -->
<g id="edge7" class="edge">
<title>n4&#45;&gt;n2</title>
<path fill="none" stroke="#222255" d="M820.877,-1007.9383C799.0491,-974.3215 754.1494,-899.0963 739.0617,-828 735.7402,-812.3486 733.043,-806.8248 739.0617,-792 747.456,-771.3237 763.5657,-775.6929 774.0617,-756 793.2903,-719.9227 793.0617,-706.8816 793.0617,-666 793.0617,-666 793.0617,-666 793.0617,-450 793.0617,-408.3681 808.0945,-362.14 819.2498,-333.567"/>
<polygon fill="#222255" stroke="#222255" points="822.5195,-334.817 823.0029,-324.2332 816.0249,-332.2055 822.5195,-334.817"/>
<text text-anchor="middle" x="813.0488" y="-1002.5383" font-family="Open Sans, Helvetica Neue, Helvetica, Arial, sans-serif" font-size="6.00" fill="#000000">failure</text>
</g>
<!-- n5 -->
<g id="node6" class="node">
<title>n5</title>
<polygon fill="#ffffff" stroke="#000000" points="899.6071,-972 812.5163,-972 812.5163,-936 899.6071,-936 899.6071,-972"/>
<text text-anchor="middle" x="856.0617" y="-949.8" font-family="Times New Roman" font-size="14.00" fill="#000000">CheckPolicy</text>
</g>
<!-- n4&#45;&gt;n5 -->
<g id="edge6" class="edge">
<title>n4&#45;&gt;n5</title>
<path fill="none" stroke="#333333" d="M838.8656,-1007.8314C841.3525,-1000.0463 844.3148,-990.7729 847.0742,-982.1347"/>
<polygon fill="#333333" stroke="#333333" points="850.4707,-983.0041 850.1797,-972.4133 843.8026,-980.874 850.4707,-983.0041"/>
<text text-anchor="middle" x="829.8704" y="-1002.4314" font-family="Open Sans, Helvetica Neue, Helvetica, Arial, sans-serif" font-size="6.00" fill="#000000">success</text>
</g>
<!-- n5&#45;&gt;n2 -->
<g id="edge9" class="edge">
<title>n5&#45;&gt;n2</title>
<path fill="none" stroke="#222255" d="M884.7692,-935.7736C897.9918,-926.3146 913.1345,-913.8454 924.0617,-900 951.4084,-865.3503 966.0617,-854.1412 966.0617,-810 966.0617,-810 966.0617,-810 966.0617,-450 966.0617,-392.017 907.0863,-347.7746 867.0951,-324.4393"/>
<polygon fill="#222255" stroke="#222255" points="868.8076,-321.3869 858.381,-319.5066 865.3593,-327.4786 868.8076,-321.3869"/>
<text text-anchor="middle" x="876.941" y="-930.3736" font-family="Open Sans, Helvetica Neue, Helvetica, Arial, sans-serif" font-size="6.00" fill="#000000">failure</text>
</g>
<!-- n6 -->
<g id="node7" class="node">
<title>n6</title>
<polygon fill="#ffffff" stroke="#000000" points="914.6403,-900 797.4831,-900 797.4831,-864 914.6403,-864 914.6403,-900"/>
<text text-anchor="middle" x="856.0617" y="-877.8" font-family="Times New Roman" font-size="14.00" fill="#000000">CheckHasRemote</text>
</g>
<!-- n5&#45;&gt;n6 -->
<g id="edge8" class="edge">
<title>n5&#45;&gt;n6</title>
<path fill="none" stroke="#333333" d="M856.0617,-935.8314C856.0617,-928.131 856.0617,-918.9743 856.0617,-910.4166"/>
<polygon fill="#333333" stroke="#333333" points="859.5618,-910.4132 856.0617,-900.4133 852.5618,-910.4133 859.5618,-910.4132"/>
<text text-anchor="middle" x="847.0665" y="-930.4314" font-family="Open Sans, Helvetica Neue, Helvetica, Arial, sans-serif" font-size="6.00" fill="#000000">success</text>
</g>
<!-- n6&#45;&gt;n2 -->
<g id="edge11" class="edge">
<title>n6&#45;&gt;n2</title>
<path fill="none" stroke="#222255" d="M879.0069,-863.9943C889.7051,-854.4144 901.6766,-841.7774 909.0617,-828 928.3757,-791.9684 928.0617,-778.8816 928.0617,-738 928.0617,-738 928.0617,-738 928.0617,-450 928.0617,-401.7831 890.1896,-357.6001 861.7739,-331.2353"/>
<polygon fill="#222255" stroke="#222255" points="863.8237,-328.3713 854.0493,-324.2831 859.1408,-333.5744 863.8237,-328.3713"/>
<text text-anchor="middle" x="871.1787" y="-858.5943" font-family="Open Sans, Helvetica Neue, Helvetica, Arial, sans-serif" font-size="6.00" fill="#000000">failure</text>
</g>
<!-- n7 -->
<g id="node8" class="node">
<title>n7</title>
<polygon fill="#ffffff" stroke="#000000" points="899.8398,-828 748.2836,-828 748.2836,-792 899.8398,-792 899.8398,-828"/>
<text text-anchor="middle" x="824.0617" y="-805.8" font-family="Times New Roman" font-size="14.00" fill="#000000">CheckBranchUpToDate</text>
</g>
<!-- n6&#45;&gt;n7 -->
<g id="edge10" class="edge">
<title>n6&#45;&gt;n7</title>
<path fill="none" stroke="#333333" d="M847.9867,-863.8314C844.4515,-855.8771 840.2257,-846.369 836.3161,-837.5723"/>
<polygon fill="#333333" stroke="#333333" points="839.5052,-836.1299 832.2454,-828.4133 833.1085,-838.9729 839.5052,-836.1299"/>
<text text-anchor="middle" x="838.9915" y="-858.4314" font-family="Open Sans, Helvetica Neue, Helvetica, Arial, sans-serif" font-size="6.00" fill="#000000">success</text>
</g>
<!-- n7&#45;&gt;n2 -->
<g id="edge13" class="edge">
<title>n7&#45;&gt;n2</title>
<path fill="none" stroke="#222255" d="M825.5121,-791.8284C827.5624,-764.5296 831.0617,-711.3034 831.0617,-666 831.0617,-666 831.0617,-666 831.0617,-450 831.0617,-409.876 831.0617,-363.4631 831.0617,-334.4177"/>
<polygon fill="#222255" stroke="#222255" points="834.5618,-334.1853 831.0617,-324.1854 827.5618,-334.1854 834.5618,-334.1853"/>
<text text-anchor="middle" x="817.6839" y="-786.4284" font-family="Open Sans, Helvetica Neue, Helvetica, Arial, sans-serif" font-size="6.00" fill="#000000">failure</text>
</g>
<!-- n7&#45;&gt;n8 -->
<g id="edge12" class="edge">
<title>n7&#45;&gt;n8</title>
<path fill="none" stroke="#333333" d="M783.4346,-791.8314C761.9018,-782.2018 735.2768,-770.295 712.5465,-760.1299"/>
<polygon fill="#333333" stroke="#333333" points="713.9543,-756.9254 703.3967,-756.038 711.0965,-763.3155 713.9543,-756.9254"/>
<text text-anchor="middle" x="774.4394" y="-786.4314" font-family="Open Sans, Helvetica Neue, Helvetica, Arial, sans-serif" font-size="6.00" fill="#000000">success</text>
</g>
<!-- n9 -->
<g id="node10" class="node">
<title>n9</title>
<polygon fill="#800080" stroke="#000000" points="603.7956,-684 482.3278,-684 482.3278,-648 603.7956,-648 603.7956,-684"/>
<text text-anchor="middle" x="543.0617" y="-661.8" font-family="Times New Roman" font-size="14.00" fill="#ffffff">AskReleaseDetails</text>
</g>
<!-- n8&#45;&gt;n9 -->
<g id="edge14" class="edge">
<title>n8&#45;&gt;n9</title>
<path fill="none" stroke="#333333" d="M632.7806,-719.8314C617.4319,-710.6221 598.6119,-699.3301 582.1794,-689.4706"/>
<polygon fill="#333333" stroke="#333333" points="583.7088,-686.3066 573.3331,-684.1628 580.1073,-692.3091 583.7088,-686.3066"/>
<text text-anchor="middle" x="623.7854" y="-714.4314" font-family="Open Sans, Helvetica Neue, Helvetica, Arial, sans-serif" font-size="6.00" fill="#000000">success</text>
</g>
<!-- n23 -->
<g id="node24" class="node">
<title>n23</title>
<polygon fill="#4682b4" stroke="#000000" points="765.4409,-396 568.6825,-396 568.6825,-360 765.4409,-360 765.4409,-396"/>
<text text-anchor="middle" x="667.0617" y="-373.8" font-family="Times New Roman" font-size="14.00" fill="#ffffff">DoBumpReleasedDependencies</text>
</g>
<!-- n8&#45;&gt;n23 -->
<g id="edge15" class="edge">
<title>n8&#45;&gt;n23</title>
<path fill="none" stroke="#333333" d="M663.4761,-719.8157C664.0619,-692.5008 665.0617,-639.2544 665.0617,-594 665.0617,-594 665.0617,-594 665.0617,-522 665.0617,-481.8721 665.8478,-435.4602 666.4343,-406.416"/>
<polygon fill="#333333" stroke="#333333" points="669.9383,-406.255 666.6473,-396.1843 662.9399,-406.1092 669.9383,-406.255"/>
<text text-anchor="middle" x="655.6479" y="-714.4157" font-family="Open Sans, Helvetica Neue, Helvetica, Arial, sans-serif" font-size="6.00" fill="#000000">failure</text>
</g>
<!-- n10 -->
<g id="node11" class="node">
<title>n10</title>
<polygon fill="#ffffff" stroke="#000000" points="553.5689,-612 410.5545,-612 410.5545,-576 553.5689,-576 553.5689,-612"/>
<text text-anchor="middle" x="482.0617" y="-589.8" font-family="Times New Roman" font-size="14.00" fill="#000000">CheckForReleaseType</text>
</g>
<!-- n9&#45;&gt;n10 -->
<g id="edge16" class="edge">
<title>n9&#45;&gt;n10</title>
<path fill="none" stroke="#333333" d="M527.6688,-647.8314C520.5713,-639.454 512.0137,-629.3531 504.2377,-620.1749"/>
<polygon fill="#333333" stroke="#333333" points="506.7965,-617.7807 497.6618,-612.4133 501.4556,-622.3056 506.7965,-617.7807"/>
<text text-anchor="middle" x="518.6736" y="-642.4314" font-family="Open Sans, Helvetica Neue, Helvetica, Arial, sans-serif" font-size="6.00" fill="#000000">success</text>
</g>
<!-- n11 -->
<g id="node12" class="node">
<title>n11</title>
<polygon fill="#ffffff" stroke="#000000" points="374.8012,-540 267.3222,-540 267.3222,-504 374.8012,-504 374.8012,-540"/>
<text text-anchor="middle" x="321.0617" y="-517.8" font-family="Times New Roman" font-size="14.00" fill="#000000">DoPatchRelease</text>
</g>
<!-- n10&#45;&gt;n11 -->
<g id="edge17" class="edge">
<title>n10&#45;&gt;n11</title>
<path fill="none" stroke="#333333" d="M441.4346,-575.8314C419.9018,-566.2018 393.2768,-554.295 370.5465,-544.1299"/>
<polygon fill="#333333" stroke="#333333" points="371.9543,-540.9254 361.3967,-540.038 369.0965,-547.3155 371.9543,-540.9254"/>
<text text-anchor="middle" x="434.9375" y="-570.4314" font-family="Open Sans, Helvetica Neue, Helvetica, Arial, sans-serif" font-size="6.00" fill="#000000">patch</text>
</g>
<!-- n12 -->
<g id="node13" class="node">
<title>n12</title>
<polygon fill="#ffffff" stroke="#000000" points="504.6949,-540 393.4285,-540 393.4285,-504 504.6949,-504 504.6949,-540"/>
<text text-anchor="middle" x="449.0617" y="-517.8" font-family="Times New Roman" font-size="14.00" fill="#000000">DoMinorRelease</text>
</g>
<!-- n10&#45;&gt;n12 -->
<g id="edge18" class="edge">
<title>n10&#45;&gt;n12</title>
<path fill="none" stroke="#333333" d="M473.7344,-575.8314C470.0887,-567.8771 465.7308,-558.369 461.699,-549.5723"/>
<polygon fill="#333333" stroke="#333333" points="464.8494,-548.0456 457.5011,-540.4133 458.486,-550.9622 464.8494,-548.0456"/>
<text text-anchor="middle" x="466.5683" y="-570.4314" font-family="Open Sans, Helvetica Neue, Helvetica, Arial, sans-serif" font-size="6.00" fill="#000000">minor</text>
</g>
<!-- n13 -->
<g id="node14" class="node">
<title>n13</title>
<polygon fill="#ffffff" stroke="#000000" points="633.409,-540 522.7144,-540 522.7144,-504 633.409,-504 633.409,-540"/>
<text text-anchor="middle" x="578.0617" y="-517.8" font-family="Times New Roman" font-size="14.00" fill="#000000">DoMajorRelease</text>
</g>
<!-- n10&#45;&gt;n13 -->
<g id="edge19" class="edge">
<title>n10&#45;&gt;n13</title>
<path fill="none" stroke="#333333" d="M506.2866,-575.8314C518.2245,-566.8779 532.7873,-555.9558 545.6677,-546.2955"/>
<polygon fill="#333333" stroke="#333333" points="547.9446,-548.9629 553.8446,-540.1628 543.7446,-543.3629 547.9446,-548.9629"/>
<text text-anchor="middle" x="499.2888" y="-570.4314" font-family="Open Sans, Helvetica Neue, Helvetica, Arial, sans-serif" font-size="6.00" fill="#000000">major</text>
</g>
<!-- n14 -->
<g id="node15" class="node">
<title>n14</title>
<polygon fill="#ffffff" stroke="#000000" points="506.6809,-468 381.4425,-468 381.4425,-432 506.6809,-432 506.6809,-468"/>
<text text-anchor="middle" x="444.0617" y="-445.8" font-family="Times New Roman" font-size="14.00" fill="#000000">CheckBranchName</text>
</g>
<!-- n11&#45;&gt;n14 -->
<g id="edge20" class="edge">
<title>n11&#45;&gt;n14</title>
<path fill="none" stroke="#333333" d="M352.0998,-503.8314C367.8322,-494.6221 387.1228,-483.3301 403.9661,-473.4706"/>
<polygon fill="#333333" stroke="#333333" points="406.1715,-476.2352 413.0335,-468.1628 402.6352,-470.1941 406.1715,-476.2352"/>
<text text-anchor="middle" x="343.1046" y="-498.4314" font-family="Open Sans, Helvetica Neue, Helvetica, Arial, sans-serif" font-size="6.00" fill="#000000">success</text>
</g>
<!-- n12&#45;&gt;n14 -->
<g id="edge21" class="edge">
<title>n12&#45;&gt;n14</title>
<path fill="none" stroke="#333333" d="M447.8,-503.8314C447.2652,-496.131 446.6294,-486.9743 446.0351,-478.4166"/>
<polygon fill="#333333" stroke="#333333" points="449.5249,-478.1467 445.3404,-468.4133 442.5417,-478.6317 449.5249,-478.1467"/>
<text text-anchor="middle" x="438.8048" y="-498.4314" font-family="Open Sans, Helvetica Neue, Helvetica, Arial, sans-serif" font-size="6.00" fill="#000000">success</text>
</g>
<!-- n13&#45;&gt;n14 -->
<g id="edge22" class="edge">
<title>n13&#45;&gt;n14</title>
<path fill="none" stroke="#333333" d="M544.2478,-503.8314C526.791,-494.4516 505.313,-482.9112 486.7265,-472.9244"/>
<polygon fill="#333333" stroke="#333333" points="488.3303,-469.8129 477.8647,-468.1628 485.0171,-475.9792 488.3303,-469.8129"/>
<text text-anchor="middle" x="535.2526" y="-498.4314" font-family="Open Sans, Helvetica Neue, Helvetica, Arial, sans-serif" font-size="6.00" fill="#000000">success</text>
</g>
<!-- n15 -->
<g id="node16" class="node">
<title>n15</title>
<polygon fill="#ffffff" stroke="#000000" points="318.8355,-396 153.2879,-396 153.2879,-360 318.8355,-360 318.8355,-396"/>
<text text-anchor="middle" x="236.0617" y="-373.8" font-family="Times New Roman" font-size="14.00" fill="#000000">CheckMainNextIntegrated</text>
</g>
<!-- n14&#45;&gt;n15 -->
<g id="edge23" class="edge">
<title>n14&#45;&gt;n15</title>
<path fill="none" stroke="#333333" d="M391.843,-431.9243C363.2846,-422.0387 327.7322,-409.7321 297.8049,-399.3726"/>
<polygon fill="#333333" stroke="#333333" points="298.8967,-396.0469 288.3019,-396.0831 296.6068,-402.6618 298.8967,-396.0469"/>
<text text-anchor="middle" x="382.8478" y="-426.5243" font-family="Open Sans, Helvetica Neue, Helvetica, Arial, sans-serif" font-size="6.00" fill="#000000">success</text>
</g>
<!-- n22 -->
<g id="node23" class="node">
<title>n22</title>
<polygon fill="#ffffff" stroke="#000000" points="551.3257,-396 336.7977,-396 336.7977,-360 551.3257,-360 551.3257,-396"/>
<text text-anchor="middle" x="444.0617" y="-373.8" font-family="Times New Roman" font-size="14.00" fill="#000000">CheckReleaseBranchDoesNotExist</text>
</g>
<!-- n14&#45;&gt;n22 -->
<g id="edge24" class="edge">
<title>n14&#45;&gt;n22</title>
<path fill="none" stroke="#333333" d="M444.0617,-431.8314C444.0617,-424.131 444.0617,-414.9743 444.0617,-406.4166"/>
<polygon fill="#333333" stroke="#333333" points="447.5618,-406.4132 444.0617,-396.4133 440.5618,-406.4133 447.5618,-406.4132"/>
<text text-anchor="middle" x="436.2335" y="-426.4314" font-family="Open Sans, Helvetica Neue, Helvetica, Arial, sans-serif" font-size="6.00" fill="#000000">failure</text>
</g>
<!-- n16 -->
<g id="node17" class="node">
<title>n16</title>
<polygon fill="#ffffff" stroke="#000000" points="254.7844,-324 119.339,-324 119.339,-288 254.7844,-288 254.7844,-324"/>
<text text-anchor="middle" x="187.0617" y="-301.8" font-family="Times New Roman" font-size="14.00" fill="#000000">CheckReleaseIsDone</text>
</g>
<!-- n15&#45;&gt;n16 -->
<g id="edge25" class="edge">
<title>n15&#45;&gt;n16</title>
<path fill="none" stroke="#333333" d="M223.6969,-359.8314C218.1108,-351.6232 211.3987,-341.7606 205.2545,-332.7323"/>
<polygon fill="#333333" stroke="#333333" points="208.1127,-330.7112 199.593,-324.4133 202.3257,-334.6496 208.1127,-330.7112"/>
<text text-anchor="middle" x="214.7017" y="-354.4314" font-family="Open Sans, Helvetica Neue, Helvetica, Arial, sans-serif" font-size="6.00" fill="#000000">success</text>
</g>
<!-- n19 -->
<g id="node20" class="node">
<title>n19</title>
<polygon fill="#ddddff" stroke="#000000" points="422.7969,-324 273.3265,-324 273.3265,-288 422.7969,-288 422.7969,-324"/>
<text text-anchor="middle" x="348.0617" y="-301.8" font-family="Times New Roman" font-size="14.00" fill="#000000">PromptToIntegrateNext</text>
</g>
<!-- n15&#45;&gt;n19 -->
<g id="edge26" class="edge">
<title>n15&#45;&gt;n19</title>
<path fill="none" stroke="#222255" d="M264.324,-359.8314C278.5169,-350.7074 295.8899,-339.539 311.1253,-329.7449"/>
<polygon fill="#222255" stroke="#222255" points="313.2893,-332.5146 319.8084,-324.1628 309.5039,-326.6263 313.2893,-332.5146"/>
<text text-anchor="middle" x="256.4958" y="-354.4314" font-family="Open Sans, Helvetica Neue, Helvetica, Arial, sans-serif" font-size="6.00" fill="#000000">failure</text>
</g>
<!-- n17 -->
<g id="node18" class="node">
<title>n17</title>
<polygon fill="#ffffff" stroke="#000000" points="308.6695,-252 99.4539,-252 99.4539,-216 308.6695,-216 308.6695,-252"/>
<text text-anchor="middle" x="204.0617" y="-229.8" font-family="Times New Roman" font-size="14.00" fill="#000000">CheckReleaseGroupIsNotBumped</text>
</g>
<!-- n16&#45;&gt;n17 -->
<g id="edge27" class="edge">
<title>n16&#45;&gt;n17</title>
<path fill="none" stroke="#333333" d="M191.3515,-287.8314C193.1697,-280.131 195.3316,-270.9743 197.3522,-262.4166"/>
<polygon fill="#333333" stroke="#333333" points="200.8225,-262.95 199.7141,-252.4133 194.0098,-261.3414 200.8225,-262.95"/>
<text text-anchor="middle" x="182.3563" y="-282.4314" font-family="Open Sans, Helvetica Neue, Helvetica, Arial, sans-serif" font-size="6.00" fill="#000000">success</text>
</g>
<!-- n20 -->
<g id="node21" class="node">
<title>n20</title>
<polygon fill="#ddddff" stroke="#000000" points="474.3693,-252 357.7541,-252 357.7541,-216 474.3693,-216 474.3693,-252"/>
<text text-anchor="middle" x="416.0617" y="-229.8" font-family="Times New Roman" font-size="14.00" fill="#000000">PromptToRelease</text>
</g>
<!-- n16&#45;&gt;n20 -->
<g id="edge28" class="edge">
<title>n16&#45;&gt;n20</title>
<path fill="none" stroke="#222255" d="M244.5525,-287.9243C276.2665,-277.9531 315.8144,-265.5188 348.9392,-255.104"/>
<polygon fill="#222255" stroke="#222255" points="350.0575,-258.4214 358.5473,-252.0831 347.9579,-251.7437 350.0575,-258.4214"/>
<text text-anchor="middle" x="236.7243" y="-282.5243" font-family="Open Sans, Helvetica Neue, Helvetica, Arial, sans-serif" font-size="6.00" fill="#000000">failure</text>
</g>
<!-- n18 -->
<g id="node19" class="node">
<title>n18</title>
<polygon fill="#4682b4" stroke="#000000" points="277.1934,-180 130.93,-180 130.93,-144 277.1934,-144 277.1934,-180"/>
<text text-anchor="middle" x="204.0617" y="-157.8" font-family="Times New Roman" font-size="14.00" fill="#ffffff">DoReleaseGroupBump</text>
</g>
<!-- n17&#45;&gt;n18 -->
<g id="edge29" class="edge">
<title>n17&#45;&gt;n18</title>
<path fill="none" stroke="#333333" d="M204.0617,-215.8314C204.0617,-208.131 204.0617,-198.9743 204.0617,-190.4166"/>
<polygon fill="#333333" stroke="#333333" points="207.5618,-190.4132 204.0617,-180.4133 200.5618,-190.4133 207.5618,-190.4132"/>
<text text-anchor="middle" x="195.0665" y="-210.4314" font-family="Open Sans, Helvetica Neue, Helvetica, Arial, sans-serif" font-size="6.00" fill="#000000">success</text>
</g>
<!-- n21 -->
<g id="node22" class="node">
<title>n21</title>
<polygon fill="#ffffff" stroke="#000000" points="583.9609,-180 372.1625,-180 372.1625,-144 583.9609,-144 583.9609,-180"/>
<text text-anchor="middle" x="478.0617" y="-157.8" font-family="Times New Roman" font-size="14.00" fill="#000000">CheckNoPrereleaseDependencies3</text>
</g>
<!-- n17&#45;&gt;n21 -->
<g id="edge30" class="edge">
<title>n17&#45;&gt;n21</title>
<path fill="none" stroke="#333333" d="M272.8498,-215.9243C311.3658,-205.8033 359.5388,-193.1447 399.5301,-182.6361"/>
<polygon fill="#333333" stroke="#333333" points="400.4632,-186.0098 409.2453,-180.0831 398.6841,-179.2396 400.4632,-186.0098"/>
<text text-anchor="middle" x="265.0216" y="-210.5243" font-family="Open Sans, Helvetica Neue, Helvetica, Arial, sans-serif" font-size="6.00" fill="#000000">failure</text>
</g>
<!-- n28 -->
<g id="node29" class="node">
<title>n28</title>
<polygon fill="#ffffff" stroke="#000000" points="289.6274,-108 118.496,-108 118.496,-72 289.6274,-72 289.6274,-108"/>
<text text-anchor="middle" x="204.0617" y="-85.8" font-family="Times New Roman" font-size="14.00" fill="#000000">CheckShouldCommitBump</text>
</g>
<!-- n18&#45;&gt;n28 -->
<g id="edge31" class="edge">
<title>n18&#45;&gt;n28</title>
<path fill="none" stroke="#333333" d="M204.0617,-143.8314C204.0617,-136.131 204.0617,-126.9743 204.0617,-118.4166"/>
<polygon fill="#333333" stroke="#333333" points="207.5618,-118.4132 204.0617,-108.4133 200.5618,-118.4133 207.5618,-118.4132"/>
<text text-anchor="middle" x="195.0665" y="-138.4314" font-family="Open Sans, Helvetica Neue, Helvetica, Arial, sans-serif" font-size="6.00" fill="#000000">success</text>
</g>
<!-- n27 -->
<g id="node28" class="node">
<title>n27</title>
<polygon fill="#ddddff" stroke="#000000" points="733.6347,-108 588.4887,-108 588.4887,-72 733.6347,-72 733.6347,-108"/>
<text text-anchor="middle" x="661.0617" y="-85.8" font-family="Times New Roman" font-size="14.00" fill="#000000">PromptToReleaseDeps</text>
</g>
<!-- n21&#45;&gt;n27 -->
<g id="edge32" class="edge">
<title>n21&#45;&gt;n27</title>
<path fill="none" stroke="#222255" d="M524.2403,-143.8314C549.0418,-134.0734 579.7867,-121.977 605.846,-111.7242"/>
<polygon fill="#222255" stroke="#222255" points="607.1909,-114.9563 615.2151,-108.038 604.628,-108.4423 607.1909,-114.9563"/>
<text text-anchor="middle" x="516.4121" y="-138.4314" font-family="Open Sans, Helvetica Neue, Helvetica, Arial, sans-serif" font-size="6.00" fill="#000000">failure</text>
</g>
<!-- n32 -->
<g id="node33" class="node">
<title>n32</title>
<polygon fill="#ffffff" stroke="#000000" points="570.4229,-108 319.7005,-108 319.7005,-72 570.4229,-72 570.4229,-108"/>
<text text-anchor="middle" x="445.0617" y="-85.8" font-family="Times New Roman" font-size="14.00" fill="#000000">CheckShouldCommitReleasedDepsBump</text>
</g>
<!-- n21&#45;&gt;n32 -->
<g id="edge33" class="edge">
<title>n21&#45;&gt;n32</title>
<path fill="none" stroke="#333333" d="M469.7344,-143.8314C466.0887,-135.8771 461.7308,-126.369 457.699,-117.5723"/>
<polygon fill="#333333" stroke="#333333" points="460.8494,-116.0456 453.5011,-108.4133 454.486,-118.9622 460.8494,-116.0456"/>
<text text-anchor="middle" x="460.7392" y="-138.4314" font-family="Open Sans, Helvetica Neue, Helvetica, Arial, sans-serif" font-size="6.00" fill="#000000">success</text>
</g>
<!-- n22&#45;&gt;n2 -->
<g id="edge35" class="edge">
<title>n22&#45;&gt;n2</title>
<path fill="none" stroke="#222255" d="M551.3219,-361.1145C648.1556,-345.8322 776.3656,-325.4862 782.0617,-324 786.1065,-322.9446 790.2844,-321.6852 794.4162,-320.3295"/>
<polygon fill="#222255" stroke="#222255" points="795.5891,-323.6274 803.889,-317.0424 793.2942,-317.0142 795.5891,-323.6274"/>
<text text-anchor="middle" x="559.1501" y="-362.9145" font-family="Open Sans, Helvetica Neue, Helvetica, Arial, sans-serif" font-size="6.00" fill="#000000">failure</text>
</g>
<!-- n22&#45;&gt;n20 -->
<g id="edge34" class="edge">
<title>n22&#45;&gt;n20</title>
<path fill="none" stroke="#222255" d="M442.486,-359.9292C440.698,-341.6554 437.3268,-312.6656 432.0617,-288 430.2332,-279.4341 427.7253,-270.2512 425.2374,-261.9317"/>
<polygon fill="#222255" stroke="#222255" points="428.5601,-260.8295 422.2595,-252.3117 421.8731,-262.8995 428.5601,-260.8295"/>
<text text-anchor="middle" x="433.4908" y="-354.5292" font-family="Open Sans, Helvetica Neue, Helvetica, Arial, sans-serif" font-size="6.00" fill="#000000">success</text>
</g>
<!-- n23&#45;&gt;n2 -->
<g id="edge38" class="edge">
<title>n23&#45;&gt;n2</title>
<path fill="none" stroke="#aaaadd" d="M708.4458,-359.8314C734.2841,-348.4877 767.3202,-333.9841 792.59,-322.89"/>
<polygon fill="none" stroke="#aaaadd" points="792.6125,-322.8802 796.4984,-316.8056 803.6002,-318.0563 799.7143,-324.1308 792.6125,-322.8802"/>
</g>
<!-- n23&#45;&gt;n21 -->
<g id="edge37" class="edge">
<title>n23&#45;&gt;n21</title>
<path fill="none" stroke="#333333" d="M608.8711,-359.9988C588.9367,-351.5807 567.7311,-339.8351 552.0617,-324 514.5146,-286.0559 493.9553,-225.6139 484.5472,-190.2746"/>
<polygon fill="#333333" stroke="#333333" points="487.8337,-188.9961 481.979,-180.1658 481.0492,-190.7198 487.8337,-188.9961"/>
<text text-anchor="middle" x="601.0429" y="-354.5988" font-family="Open Sans, Helvetica Neue, Helvetica, Arial, sans-serif" font-size="6.00" fill="#000000">failure</text>
</g>
<!-- n24 -->
<g id="node25" class="node">
<title>n24</title>
<polygon fill="#ffffff" stroke="#000000" points="772.9609,-324 561.1625,-324 561.1625,-288 772.9609,-288 772.9609,-324"/>
<text text-anchor="middle" x="667.0617" y="-301.8" font-family="Times New Roman" font-size="14.00" fill="#000000">CheckNoPrereleaseDependencies2</text>
</g>
<!-- n23&#45;&gt;n24 -->
<g id="edge36" class="edge">
<title>n23&#45;&gt;n24</title>
<path fill="none" stroke="#333333" d="M667.0617,-359.8314C667.0617,-352.131 667.0617,-342.9743 667.0617,-334.4166"/>
<polygon fill="#333333" stroke="#333333" points="670.5618,-334.4132 667.0617,-324.4133 663.5618,-334.4133 670.5618,-334.4132"/>
<text text-anchor="middle" x="658.0665" y="-354.4314" font-family="Open Sans, Helvetica Neue, Helvetica, Arial, sans-serif" font-size="6.00" fill="#000000">success</text>
</g>
<!-- n25 -->
<g id="node26" class="node">
<title>n25</title>
<polygon fill="#ffffff" stroke="#000000" points="855.1655,-252 688.9579,-252 688.9579,-216 855.1655,-216 855.1655,-252"/>
<text text-anchor="middle" x="772.0617" y="-229.8" font-family="Times New Roman" font-size="14.00" fill="#000000">CheckShouldCommitDeps</text>
</g>
<!-- n24&#45;&gt;n25 -->
<g id="edge39" class="edge">
<title>n24&#45;&gt;n25</title>
<path fill="none" stroke="#333333" d="M693.5576,-287.8314C706.7391,-278.7927 722.8464,-267.7476 737.0328,-258.0198"/>
<polygon fill="#333333" stroke="#333333" points="739.3063,-260.7047 745.5742,-252.1628 735.3476,-254.9316 739.3063,-260.7047"/>
<text text-anchor="middle" x="684.5624" y="-282.4314" font-family="Open Sans, Helvetica Neue, Helvetica, Arial, sans-serif" font-size="6.00" fill="#000000">success</text>
</g>
<!-- n24&#45;&gt;n27 -->
<g id="edge40" class="edge">
<title>n24&#45;&gt;n27</title>
<path fill="none" stroke="#222255" d="M666.5605,-287.9555C665.5171,-250.3938 663.1049,-163.5541 661.8509,-118.4103"/>
<polygon fill="#222255" stroke="#222255" points="665.3421,-118.044 661.5657,-108.1451 658.3448,-118.2384 665.3421,-118.044"/>
<text text-anchor="middle" x="658.7323" y="-282.5555" font-family="Open Sans, Helvetica Neue, Helvetica, Arial, sans-serif" font-size="6.00" fill="#000000">failure</text>
</g>
<!-- n26 -->
<g id="node27" class="node">
<title>n26</title>
<polygon fill="#ddddff" stroke="#000000" points="819.2242,-180 700.8992,-180 700.8992,-144 819.2242,-144 819.2242,-180"/>
<text text-anchor="middle" x="760.0617" y="-157.8" font-family="Times New Roman" font-size="14.00" fill="#000000">PromptToPRDeps</text>
</g>
<!-- n25&#45;&gt;n26 -->
<g id="edge41" class="edge">
<title>n25&#45;&gt;n26</title>
<path fill="none" stroke="#222255" d="M769.0336,-215.8314C767.7502,-208.131 766.2241,-198.9743 764.7978,-190.4166"/>
<polygon fill="#222255" stroke="#222255" points="768.227,-189.7018 763.1306,-180.4133 761.3223,-190.8526 768.227,-189.7018"/>
<text text-anchor="middle" x="760.0384" y="-210.4314" font-family="Open Sans, Helvetica Neue, Helvetica, Arial, sans-serif" font-size="6.00" fill="#000000">success</text>
</g>
<!-- n31 -->
<g id="node32" class="node">
<title>n31</title>
<polygon fill="#ddddff" stroke="#000000" points="985.0042,-180 837.1192,-180 837.1192,-144 985.0042,-144 985.0042,-180"/>
<text text-anchor="middle" x="911.0617" y="-157.8" font-family="Times New Roman" font-size="14.00" fill="#000000">PromptToCommitDeps</text>
</g>
<!-- n25&#45;&gt;n31 -->
<g id="edge42" class="edge">
<title>n25&#45;&gt;n31</title>
<path fill="none" stroke="#222255" d="M807.1373,-215.8314C825.3278,-206.4089 847.7275,-194.8062 867.0677,-184.7883"/>
<polygon fill="#222255" stroke="#222255" points="868.7277,-187.8701 875.9974,-180.1628 865.508,-181.6545 868.7277,-187.8701"/>
<text text-anchor="middle" x="799.3091" y="-210.4314" font-family="Open Sans, Helvetica Neue, Helvetica, Arial, sans-serif" font-size="6.00" fill="#000000">failure</text>
</g>
<!-- n29 -->
<g id="node30" class="node">
<title>n29</title>
<polygon fill="#ddddff" stroke="#000000" points="124.1852,-36 -.0618,-36 -.0618,0 124.1852,0 124.1852,-36"/>
<text text-anchor="middle" x="62.0617" y="-13.8" font-family="Times New Roman" font-size="14.00" fill="#000000">PromptToPRBump</text>
</g>
<!-- n28&#45;&gt;n29 -->
<g id="edge43" class="edge">
<title>n28&#45;&gt;n29</title>
<path fill="none" stroke="#222255" d="M168.2291,-71.8314C149.646,-62.4089 126.7628,-50.8062 107.0052,-40.7883"/>
<polygon fill="#222255" stroke="#222255" points="108.3847,-37.5635 97.8828,-36.1628 105.219,-43.8069 108.3847,-37.5635"/>
<text text-anchor="middle" x="159.2339" y="-66.4314" font-family="Open Sans, Helvetica Neue, Helvetica, Arial, sans-serif" font-size="6.00" fill="#000000">success</text>
</g>
<!-- n30 -->
<g id="node31" class="node">
<title>n30</title>
<polygon fill="#ddddff" stroke="#000000" points="295.4649,-36 142.6585,-36 142.6585,0 295.4649,0 295.4649,-36"/>
<text text-anchor="middle" x="219.0617" y="-13.8" font-family="Times New Roman" font-size="14.00" fill="#000000">PromptToCommitBump</text>
</g>
<!-- n28&#45;&gt;n30 -->
<g id="edge44" class="edge">
<title>n28&#45;&gt;n30</title>
<path fill="none" stroke="#222255" d="M207.8468,-71.8314C209.4511,-64.131 211.3587,-54.9743 213.1416,-46.4166"/>
<polygon fill="#222255" stroke="#222255" points="216.6124,-46.9169 215.2256,-36.4133 209.7596,-45.4892 216.6124,-46.9169"/>
<text text-anchor="middle" x="200.0186" y="-66.4314" font-family="Open Sans, Helvetica Neue, Helvetica, Arial, sans-serif" font-size="6.00" fill="#000000">failure</text>
</g>
<!-- n33 -->
<g id="node34" class="node">
<title>n33</title>
<polygon fill="#ddddff" stroke="#000000" points="532.9815,-36 329.1419,-36 329.1419,0 532.9815,0 532.9815,-36"/>
<text text-anchor="middle" x="431.0617" y="-13.8" font-family="Times New Roman" font-size="14.00" fill="#000000">PromptToPRReleasedDepsBump</text>
</g>
<!-- n32&#45;&gt;n33 -->
<g id="edge45" class="edge">
<title>n32&#45;&gt;n33</title>
<path fill="none" stroke="#222255" d="M441.5289,-71.8314C440.0316,-64.131 438.2512,-54.9743 436.5872,-46.4166"/>
<polygon fill="#222255" stroke="#222255" points="439.9865,-45.5614 434.6421,-36.4133 433.1152,-46.8975 439.9865,-45.5614"/>
<text text-anchor="middle" x="432.5337" y="-66.4314" font-family="Open Sans, Helvetica Neue, Helvetica, Arial, sans-serif" font-size="6.00" fill="#000000">success</text>
</g>
<!-- n34 -->
<g id="node35" class="node">
<title>n34</title>
<polygon fill="#ddddff" stroke="#000000" points="783.261,-36 550.8624,-36 550.8624,0 783.261,0 783.261,-36"/>
<text text-anchor="middle" x="667.0617" y="-13.8" font-family="Times New Roman" font-size="14.00" fill="#000000">PromptToCommitReleasedDepsBump</text>
</g>
<!-- n32&#45;&gt;n34 -->
<g id="edge46" class="edge">
<title>n32&#45;&gt;n34</title>
<path fill="none" stroke="#222255" d="M500.7951,-71.9243C531.4077,-61.9959 569.5498,-49.6255 601.5772,-39.2382"/>
<polygon fill="#222255" stroke="#222255" points="602.8729,-42.4975 611.3053,-36.0831 600.7133,-35.839 602.8729,-42.4975"/>
<text text-anchor="middle" x="492.9669" y="-66.5243" font-family="Open Sans, Helvetica Neue, Helvetica, Arial, sans-serif" font-size="6.00" fill="#000000">failure</text>
</g>
</g>
</svg>
