<?xml version="1.0" encoding="UTF-8" standalone="no"?>
<!DOCTYPE svg PUBLIC "-//W3C//DTD SVG 1.1//EN"
 "http://www.w3.org/Graphics/SVG/1.1/DTD/svg11.dtd">
<!-- Generated by graphviz version 2.40.1 (20161225.0304)
 -->
<!-- Title: G Pages: 1 -->
<svg width="1614pt" height="1052pt"
 viewBox="0.00 0.00 1614.28 1052.00" xmlns="http://www.w3.org/2000/svg" xmlns:xlink="http://www.w3.org/1999/xlink">
  <style type="text/css">
    @font-face {
      font-family : Bonk;
      src         : url('./Impact.ttf');
    }
  </style>

<g id="graph0" class="graph" transform="scale(1 1) rotate(0) translate(4 1048)">
<title>G</title>
<polygon fill="#eeeeee" stroke="transparent" points="-4,4 -4,-1048 1610.2755,-1048 1610.2755,4 -4,4"/>
<!-- n0 -->
<g id="node1" class="node">
<title>n0</title>
<polygon fill="#ffffff" stroke="#000000" points="1568.2755,-1044 1514.2755,-1044 1514.2755,-1008 1568.2755,-1008 1568.2755,-1044"/>
<text text-anchor="middle" x="1541.2755" y="-1021.8" font-family="Times New Roman" font-size="14.00" fill="#000000">Init</text>
</g>
<!-- n1 -->
<g id="node2" class="node">
<title>n1</title>
<polygon fill="#ffffff" stroke="#000000" points="1578.7545,-972 1373.7965,-972 1373.7965,-936 1578.7545,-936 1578.7545,-972"/>
<text text-anchor="middle" x="1476.2755" y="-949.8" font-family="Times New Roman" font-size="14.00" fill="#000000">CheckShouldRunOptionalChecks</text>
</g>
<!-- n0&#45;&gt;n1 -->
<g id="edge1" class="edge">
<title>n0&#45;&gt;n1</title>
<path fill="none" stroke="#333333" d="M1524.8732,-1007.8314C1517.234,-999.3694 1508.0071,-989.1489 1499.6548,-979.8971"/>
<polygon fill="#333333" stroke="#333333" points="1502.1976,-977.4906 1492.8986,-972.4133 1497.0017,-982.1813 1502.1976,-977.4906"/>
<text text-anchor="middle" x="1515.878" y="-1002.4314" font-family="Open Sans, Helvetica Neue, Helvetica, Arial, sans-serif" font-size="6.00" fill="#000000">success</text>
</g>
<!-- n2 -->
<g id="node3" class="node">
<title>n2</title>
<polygon fill="#ddddff" stroke="#000000" points="1519.2755,-252 1465.2755,-252 1465.2755,-216 1519.2755,-216 1519.2755,-252"/>
<text text-anchor="middle" x="1492.2755" y="-229.8" font-family="Times New Roman" font-size="14.00" fill="#000000">Failed</text>
</g>
<!-- n0&#45;&gt;n2 -->
<g id="edge2" class="edge">
<title>n0&#45;&gt;n2</title>
<path fill="none" stroke="#222255" d="M1560.9098,-1007.7017C1570.242,-997.9573 1580.7569,-985.2631 1587.2755,-972 1605.308,-935.3102 1606.2755,-922.8816 1606.2755,-882 1606.2755,-882 1606.2755,-882 1606.2755,-378 1606.2755,-326.5591 1561.0019,-282.7654 1527.5164,-257.4096"/>
<polygon fill="#222255" stroke="#222255" points="1529.423,-254.4672 1519.2919,-251.367 1525.2784,-260.1084 1529.423,-254.4672"/>
<text text-anchor="middle" x="1553.0816" y="-1002.3017" font-family="Open Sans, Helvetica Neue, Helvetica, Arial, sans-serif" font-size="6.00" fill="#000000">failure</text>
</g>
<!-- n3 -->
<g id="node4" class="node">
<title>n3</title>
<polygon fill="#ffffff" stroke="#000000" points="1567.4412,-900 1405.1098,-900 1405.1098,-864 1567.4412,-864 1567.4412,-900"/>
<text text-anchor="middle" x="1486.2755" y="-877.8" font-family="Times New Roman" font-size="14.00" fill="#000000">CheckValidReleaseGroup</text>
</g>
<!-- n1&#45;&gt;n3 -->
<g id="edge3" class="edge">
<title>n1&#45;&gt;n3</title>
<path fill="none" stroke="#333333" d="M1478.7989,-935.8314C1479.8684,-928.131 1481.1402,-918.9743 1482.3287,-910.4166"/>
<polygon fill="#333333" stroke="#333333" points="1485.8091,-910.7997 1483.7181,-900.4133 1478.8756,-909.8367 1485.8091,-910.7997"/>
<text text-anchor="middle" x="1469.8037" y="-930.4314" font-family="Open Sans, Helvetica Neue, Helvetica, Arial, sans-serif" font-size="6.00" fill="#000000">success</text>
</g>
<!-- n7 -->
<g id="node8" class="node">
<title>n7</title>
<polygon fill="#ffffff" stroke="#000000" points="1384.6747,-612 1179.8763,-612 1179.8763,-576 1384.6747,-576 1384.6747,-612"/>
<text text-anchor="middle" x="1282.2755" y="-589.8" font-family="Times New Roman" font-size="14.00" fill="#000000">CheckNoPrereleaseDependencies</text>
</g>
<!-- n1&#45;&gt;n7 -->
<g id="edge4" class="edge">
<title>n1&#45;&gt;n7</title>
<path fill="none" stroke="#333333" d="M1413.3471,-935.9853C1357.026,-915.5489 1283.2755,-876.1575 1283.2755,-810 1283.2755,-810 1283.2755,-810 1283.2755,-738 1283.2755,-697.875 1282.8824,-651.4624 1282.5892,-622.4173"/>
<polygon fill="#333333" stroke="#333333" points="1286.0867,-622.1481 1282.4827,-612.1851 1279.087,-622.221 1286.0867,-622.1481"/>
<text text-anchor="middle" x="1405.5189" y="-930.5853" font-family="Open Sans, Helvetica Neue, Helvetica, Arial, sans-serif" font-size="6.00" fill="#000000">failure</text>
</g>
<!-- n3&#45;&gt;n2 -->
<g id="edge6" class="edge">
<title>n3&#45;&gt;n2</title>
<path fill="none" stroke="#222255" d="M1508.3503,-863.8927C1518.9632,-854.197 1531.1186,-841.4887 1539.2755,-828 1561.0221,-792.0388 1568.2755,-780.0253 1568.2755,-738 1568.2755,-738 1568.2755,-738 1568.2755,-378 1568.2755,-332.656 1538.437,-287.5999 1516.1529,-260.2735"/>
<polygon fill="#222255" stroke="#222255" points="1518.634,-257.7856 1509.5211,-252.3814 1513.2749,-262.2889 1518.634,-257.7856"/>
<text text-anchor="middle" x="1500.5221" y="-858.4927" font-family="Open Sans, Helvetica Neue, Helvetica, Arial, sans-serif" font-size="6.00" fill="#000000">failure</text>
</g>
<!-- n4 -->
<g id="node5" class="node">
<title>n4</title>
<polygon fill="#ffffff" stroke="#000000" points="1529.8209,-828 1442.7301,-828 1442.7301,-792 1529.8209,-792 1529.8209,-828"/>
<text text-anchor="middle" x="1486.2755" y="-805.8" font-family="Times New Roman" font-size="14.00" fill="#000000">CheckPolicy</text>
</g>
<!-- n3&#45;&gt;n4 -->
<g id="edge5" class="edge">
<title>n3&#45;&gt;n4</title>
<path fill="none" stroke="#333333" d="M1486.2755,-863.8314C1486.2755,-856.131 1486.2755,-846.9743 1486.2755,-838.4166"/>
<polygon fill="#333333" stroke="#333333" points="1489.7756,-838.4132 1486.2755,-828.4133 1482.7756,-838.4133 1489.7756,-838.4132"/>
<text text-anchor="middle" x="1477.2803" y="-858.4314" font-family="Open Sans, Helvetica Neue, Helvetica, Arial, sans-serif" font-size="6.00" fill="#000000">success</text>
</g>
<!-- n4&#45;&gt;n2 -->
<g id="edge8" class="edge">
<title>n4&#45;&gt;n2</title>
<path fill="none" stroke="#222255" d="M1495.8929,-791.9237C1501.0503,-781.6273 1507.1707,-768.3528 1511.2755,-756 1524.1673,-717.2042 1530.2755,-706.8816 1530.2755,-666 1530.2755,-666 1530.2755,-666 1530.2755,-378 1530.2755,-336.3681 1515.2427,-290.14 1504.0874,-261.567"/>
<polygon fill="#222255" stroke="#222255" points="1507.3123,-260.2055 1500.3343,-252.2332 1500.8177,-262.817 1507.3123,-260.2055"/>
<text text-anchor="middle" x="1488.0647" y="-786.5237" font-family="Open Sans, Helvetica Neue, Helvetica, Arial, sans-serif" font-size="6.00" fill="#000000">failure</text>
</g>
<!-- n5 -->
<g id="node6" class="node">
<title>n5</title>
<polygon fill="#ffffff" stroke="#000000" points="1501.8541,-756 1384.6969,-756 1384.6969,-720 1501.8541,-720 1501.8541,-756"/>
<text text-anchor="middle" x="1443.2755" y="-733.8" font-family="Times New Roman" font-size="14.00" fill="#000000">CheckHasRemote</text>
</g>
<!-- n4&#45;&gt;n5 -->
<g id="edge7" class="edge">
<title>n4&#45;&gt;n5</title>
<path fill="none" stroke="#333333" d="M1475.4248,-791.8314C1470.5732,-783.7079 1464.7538,-773.9637 1459.4075,-765.0118"/>
<polygon fill="#333333" stroke="#333333" points="1462.4047,-763.2041 1454.2723,-756.4133 1456.3949,-766.7933 1462.4047,-763.2041"/>
<text text-anchor="middle" x="1466.4296" y="-786.4314" font-family="Open Sans, Helvetica Neue, Helvetica, Arial, sans-serif" font-size="6.00" fill="#000000">success</text>
</g>
<!-- n5&#45;&gt;n2 -->
<g id="edge10" class="edge">
<title>n5&#45;&gt;n2</title>
<path fill="none" stroke="#222255" d="M1455.2659,-719.6709C1461.4369,-709.5161 1468.6209,-696.4574 1473.2755,-684 1487.5843,-645.7042 1492.2755,-634.8816 1492.2755,-594 1492.2755,-594 1492.2755,-594 1492.2755,-378 1492.2755,-337.876 1492.2755,-291.4631 1492.2755,-262.4177"/>
<polygon fill="#222255" stroke="#222255" points="1495.7756,-262.1853 1492.2755,-252.1854 1488.7756,-262.1854 1495.7756,-262.1853"/>
<text text-anchor="middle" x="1447.4377" y="-714.2709" font-family="Open Sans, Helvetica Neue, Helvetica, Arial, sans-serif" font-size="6.00" fill="#000000">failure</text>
</g>
<!-- n6 -->
<g id="node7" class="node">
<title>n6</title>
<polygon fill="#ffffff" stroke="#000000" points="1464.0535,-684 1312.4974,-684 1312.4974,-648 1464.0535,-648 1464.0535,-684"/>
<text text-anchor="middle" x="1388.2755" y="-661.8" font-family="Times New Roman" font-size="14.00" fill="#000000">CheckBranchUpToDate</text>
</g>
<!-- n5&#45;&gt;n6 -->
<g id="edge9" class="edge">
<title>n5&#45;&gt;n6</title>
<path fill="none" stroke="#333333" d="M1429.3967,-719.8314C1423.0619,-711.5386 1415.4371,-701.557 1408.4829,-692.4533"/>
<polygon fill="#333333" stroke="#333333" points="1411.193,-690.2353 1402.3412,-684.4133 1405.6303,-694.4847 1411.193,-690.2353"/>
<text text-anchor="middle" x="1420.4015" y="-714.4314" font-family="Open Sans, Helvetica Neue, Helvetica, Arial, sans-serif" font-size="6.00" fill="#000000">success</text>
</g>
<!-- n6&#45;&gt;n2 -->
<g id="edge12" class="edge">
<title>n6&#45;&gt;n2</title>
<path fill="none" stroke="#222255" d="M1402.923,-647.6749C1422.3672,-621.4479 1454.2755,-570.9514 1454.2755,-522 1454.2755,-522 1454.2755,-522 1454.2755,-378 1454.2755,-336.3681 1469.3083,-290.14 1480.4636,-261.567"/>
<polygon fill="#222255" stroke="#222255" points="1483.7333,-262.817 1484.2167,-252.2332 1477.2387,-260.2055 1483.7333,-262.817"/>
<text text-anchor="middle" x="1395.0948" y="-642.2749" font-family="Open Sans, Helvetica Neue, Helvetica, Arial, sans-serif" font-size="6.00" fill="#000000">failure</text>
</g>
<!-- n6&#45;&gt;n7 -->
<g id="edge11" class="edge">
<title>n6&#45;&gt;n7</title>
<path fill="none" stroke="#333333" d="M1361.5272,-647.8314C1348.2202,-638.7927 1331.9595,-627.7476 1317.638,-618.0198"/>
<polygon fill="#333333" stroke="#333333" points="1319.254,-614.8864 1309.0152,-612.1628 1315.3208,-620.677 1319.254,-614.8864"/>
<text text-anchor="middle" x="1352.532" y="-642.4314" font-family="Open Sans, Helvetica Neue, Helvetica, Arial, sans-serif" font-size="6.00" fill="#000000">success</text>
</g>
<!-- n8 -->
<g id="node9" class="node">
<title>n8</title>
<polygon fill="#800080" stroke="#000000" points="570.5676,-540 439.9834,-540 439.9834,-504 570.5676,-504 570.5676,-540"/>
<text text-anchor="middle" x="505.2755" y="-517.8" font-family="Times New Roman" font-size="14.00" fill="#ffffff">AskForReleaseType</text>
</g>
<!-- n7&#45;&gt;n8 -->
<g id="edge13" class="edge">
<title>n7&#45;&gt;n8</title>
<path fill="none" stroke="#333333" d="M1179.4969,-584.4761C1021.0594,-569.7947 720.8428,-541.9753 580.7763,-528.9962"/>
<polygon fill="#333333" stroke="#333333" points="580.8467,-525.4878 570.5664,-528.0501 580.2008,-532.458 580.8467,-525.4878"/>
<text text-anchor="middle" x="1170.5017" y="-586.2761" font-family="Open Sans, Helvetica Neue, Helvetica, Arial, sans-serif" font-size="6.00" fill="#000000">success</text>
</g>
<!-- n22 -->
<g id="node23" class="node">
<title>n22</title>
<polygon fill="#4682b4" stroke="#000000" points="1380.6547,-540 1183.8963,-540 1183.8963,-504 1380.6547,-504 1380.6547,-540"/>
<text text-anchor="middle" x="1282.2755" y="-517.8" font-family="Times New Roman" font-size="14.00" fill="#ffffff">DoBumpReleasedDependencies</text>
</g>
<!-- n7&#45;&gt;n22 -->
<g id="edge14" class="edge">
<title>n7&#45;&gt;n22</title>
<path fill="none" stroke="#333333" d="M1282.2755,-575.8314C1282.2755,-568.131 1282.2755,-558.9743 1282.2755,-550.4166"/>
<polygon fill="#333333" stroke="#333333" points="1285.7756,-550.4132 1282.2755,-540.4133 1278.7756,-550.4133 1285.7756,-550.4132"/>
<text text-anchor="middle" x="1274.4473" y="-570.4314" font-family="Open Sans, Helvetica Neue, Helvetica, Arial, sans-serif" font-size="6.00" fill="#000000">failure</text>
</g>
<!-- n9 -->
<g id="node10" class="node">
<title>n9</title>
<polygon fill="#ffffff" stroke="#000000" points="495.015,-468 387.536,-468 387.536,-432 495.015,-432 495.015,-468"/>
<text text-anchor="middle" x="441.2755" y="-445.8" font-family="Times New Roman" font-size="14.00" fill="#000000">DoPatchRelease</text>
</g>
<!-- n8&#45;&gt;n9 -->
<g id="edge15" class="edge">
<title>n8&#45;&gt;n9</title>
<path fill="none" stroke="#333333" d="M489.1256,-503.8314C481.6038,-495.3694 472.519,-485.1489 464.2951,-475.8971"/>
<polygon fill="#333333" stroke="#333333" points="466.9025,-473.5621 457.6428,-468.4133 461.6706,-478.2127 466.9025,-473.5621"/>
<text text-anchor="middle" x="482.6285" y="-498.4314" font-family="Open Sans, Helvetica Neue, Helvetica, Arial, sans-serif" font-size="6.00" fill="#000000">patch</text>
</g>
<!-- n10 -->
<g id="node11" class="node">
<title>n10</title>
<polygon fill="#ffffff" stroke="#000000" points="624.9087,-468 513.6423,-468 513.6423,-432 624.9087,-432 624.9087,-468"/>
<text text-anchor="middle" x="569.2755" y="-445.8" font-family="Times New Roman" font-size="14.00" fill="#000000">DoMinorRelease</text>
</g>
<!-- n8&#45;&gt;n10 -->
<g id="edge16" class="edge">
<title>n8&#45;&gt;n10</title>
<path fill="none" stroke="#333333" d="M521.4254,-503.8314C528.9472,-495.3694 538.032,-485.1489 546.2559,-475.8971"/>
<polygon fill="#333333" stroke="#333333" points="548.8804,-478.2127 552.9081,-468.4133 543.6485,-473.5621 548.8804,-478.2127"/>
<text text-anchor="middle" x="514.2593" y="-498.4314" font-family="Open Sans, Helvetica Neue, Helvetica, Arial, sans-serif" font-size="6.00" fill="#000000">minor</text>
</g>
<!-- n11 -->
<g id="node12" class="node">
<title>n11</title>
<polygon fill="#ffffff" stroke="#000000" points="359.6228,-468 248.9282,-468 248.9282,-432 359.6228,-432 359.6228,-468"/>
<text text-anchor="middle" x="304.2755" y="-445.8" font-family="Times New Roman" font-size="14.00" fill="#000000">DoMajorRelease</text>
</g>
<!-- n8&#45;&gt;n11 -->
<g id="edge17" class="edge">
<title>n8&#45;&gt;n11</title>
<path fill="none" stroke="#333333" d="M454.8142,-503.9243C427.3363,-494.0815 393.1582,-481.8386 364.3167,-471.5073"/>
<polygon fill="#333333" stroke="#333333" points="365.3522,-468.1605 354.7576,-468.0831 362.9915,-474.7505 365.3522,-468.1605"/>
<text text-anchor="middle" x="447.8164" y="-498.5243" font-family="Open Sans, Helvetica Neue, Helvetica, Arial, sans-serif" font-size="6.00" fill="#000000">major</text>
</g>
<!-- n17 -->
<g id="node18" class="node">
<title>n17</title>
<polygon fill="#ffffff" stroke="#000000" points="512.3946,-396 380.1563,-396 380.1563,-360 512.3946,-360 512.3946,-396"/>
<text text-anchor="middle" x="446.2755" y="-373.8" font-family="Times New Roman" font-size="14.00" fill="#000000">CheckBranchName3</text>
</g>
<!-- n9&#45;&gt;n17 -->
<g id="edge18" class="edge">
<title>n9&#45;&gt;n17</title>
<path fill="none" stroke="#333333" d="M442.5372,-431.8314C443.072,-424.131 443.7078,-414.9743 444.3021,-406.4166"/>
<polygon fill="#333333" stroke="#333333" points="447.7955,-406.6317 444.9968,-396.4133 440.8123,-406.1467 447.7955,-406.6317"/>
<text text-anchor="middle" x="433.542" y="-426.4314" font-family="Open Sans, Helvetica Neue, Helvetica, Arial, sans-serif" font-size="6.00" fill="#000000">success</text>
</g>
<!-- n16 -->
<g id="node17" class="node">
<title>n16</title>
<polygon fill="#ffffff" stroke="#000000" points="614.3946,-324 482.1563,-324 482.1563,-288 614.3946,-288 614.3946,-324"/>
<text text-anchor="middle" x="548.2755" y="-301.8" font-family="Times New Roman" font-size="14.00" fill="#000000">CheckBranchName2</text>
</g>
<!-- n10&#45;&gt;n16 -->
<g id="edge19" class="edge">
<title>n10&#45;&gt;n16</title>
<path fill="none" stroke="#333333" d="M566.6158,-431.7623C563.034,-407.201 556.6241,-363.2474 552.4105,-334.3541"/>
<polygon fill="#333333" stroke="#333333" points="555.8201,-333.4798 550.9136,-324.0896 548.8933,-334.4901 555.8201,-333.4798"/>
<text text-anchor="middle" x="557.6206" y="-426.3623" font-family="Open Sans, Helvetica Neue, Helvetica, Arial, sans-serif" font-size="6.00" fill="#000000">success</text>
</g>
<!-- n12 -->
<g id="node13" class="node">
<title>n12</title>
<polygon fill="#ffffff" stroke="#000000" points="361.8947,-396 236.6563,-396 236.6563,-360 361.8947,-360 361.8947,-396"/>
<text text-anchor="middle" x="299.2755" y="-373.8" font-family="Times New Roman" font-size="14.00" fill="#000000">CheckBranchName</text>
</g>
<!-- n11&#45;&gt;n12 -->
<g id="edge20" class="edge">
<title>n11&#45;&gt;n12</title>
<path fill="none" stroke="#333333" d="M303.0138,-431.8314C302.479,-424.131 301.8432,-414.9743 301.2489,-406.4166"/>
<polygon fill="#333333" stroke="#333333" points="304.7387,-406.1467 300.5542,-396.4133 297.7555,-406.6317 304.7387,-406.1467"/>
<text text-anchor="middle" x="294.0186" y="-426.4314" font-family="Open Sans, Helvetica Neue, Helvetica, Arial, sans-serif" font-size="6.00" fill="#000000">success</text>
</g>
<!-- n13 -->
<g id="node14" class="node">
<title>n13</title>
<polygon fill="#ffffff" stroke="#000000" points="194.0493,-324 28.5017,-324 28.5017,-288 194.0493,-288 194.0493,-324"/>
<text text-anchor="middle" x="111.2755" y="-301.8" font-family="Times New Roman" font-size="14.00" fill="#000000">CheckMainNextIntegrated</text>
</g>
<!-- n12&#45;&gt;n13 -->
<g id="edge21" class="edge">
<title>n12&#45;&gt;n13</title>
<path fill="none" stroke="#333333" d="M251.8352,-359.8314C226.356,-350.0734 194.7711,-337.977 167.9998,-327.7242"/>
<polygon fill="#333333" stroke="#333333" points="168.9651,-324.346 158.3747,-324.038 166.4615,-330.883 168.9651,-324.346"/>
<text text-anchor="middle" x="242.84" y="-354.4314" font-family="Open Sans, Helvetica Neue, Helvetica, Arial, sans-serif" font-size="6.00" fill="#000000">success</text>
</g>
<!-- n21 -->
<g id="node22" class="node">
<title>n21</title>
<polygon fill="#ffffff" stroke="#000000" points="426.5395,-324 212.0115,-324 212.0115,-288 426.5395,-288 426.5395,-324"/>
<text text-anchor="middle" x="319.2755" y="-301.8" font-family="Times New Roman" font-size="14.00" fill="#000000">CheckReleaseBranchDoesNotExist</text>
</g>
<!-- n12&#45;&gt;n21 -->
<g id="edge22" class="edge">
<title>n12&#45;&gt;n21</title>
<path fill="none" stroke="#333333" d="M304.3223,-359.8314C306.4848,-352.0463 309.0608,-342.7729 311.4603,-334.1347"/>
<polygon fill="#333333" stroke="#333333" points="314.8565,-334.9852 314.1607,-324.4133 308.1119,-333.1117 314.8565,-334.9852"/>
<text text-anchor="middle" x="296.4941" y="-354.4314" font-family="Open Sans, Helvetica Neue, Helvetica, Arial, sans-serif" font-size="6.00" fill="#000000">failure</text>
</g>
<!-- n14 -->
<g id="node15" class="node">
<title>n14</title>
<polygon fill="#ffffff" stroke="#000000" points="548.3861,-252 360.1649,-252 360.1649,-216 548.3861,-216 548.3861,-252"/>
<text text-anchor="middle" x="454.2755" y="-229.8" font-family="Times New Roman" font-size="14.00" fill="#000000">CheckReleaseGroupIsBumped</text>
</g>
<!-- n13&#45;&gt;n14 -->
<g id="edge23" class="edge">
<title>n13&#45;&gt;n14</title>
<path fill="none" stroke="#333333" d="M194.3062,-288.5708C243.8516,-278.1706 306.9625,-264.9228 358.5943,-254.0847"/>
<polygon fill="#333333" stroke="#333333" points="359.3597,-257.5004 368.4274,-252.0206 357.9216,-250.6497 359.3597,-257.5004"/>
<text text-anchor="middle" x="185.311" y="-283.1708" font-family="Open Sans, Helvetica Neue, Helvetica, Arial, sans-serif" font-size="6.00" fill="#000000">success</text>
</g>
<!-- n18 -->
<g id="node19" class="node">
<title>n18</title>
<polygon fill="#ddddff" stroke="#000000" points="186.0107,-252 36.5403,-252 36.5403,-216 186.0107,-216 186.0107,-252"/>
<text text-anchor="middle" x="111.2755" y="-229.8" font-family="Times New Roman" font-size="14.00" fill="#000000">PromptToIntegrateNext</text>
</g>
<!-- n13&#45;&gt;n18 -->
<g id="edge24" class="edge">
<title>n13&#45;&gt;n18</title>
<path fill="none" stroke="#222255" d="M111.2755,-287.8314C111.2755,-280.131 111.2755,-270.9743 111.2755,-262.4166"/>
<polygon fill="#222255" stroke="#222255" points="114.7756,-262.4132 111.2755,-252.4133 107.7756,-262.4133 114.7756,-262.4132"/>
<text text-anchor="middle" x="103.4473" y="-282.4314" font-family="Open Sans, Helvetica Neue, Helvetica, Arial, sans-serif" font-size="6.00" fill="#000000">failure</text>
</g>
<!-- n15 -->
<g id="node16" class="node">
<title>n15</title>
<polygon fill="#ffffff" stroke="#000000" points="429.9982,-180 294.5528,-180 294.5528,-144 429.9982,-144 429.9982,-180"/>
<text text-anchor="middle" x="362.2755" y="-157.8" font-family="Times New Roman" font-size="14.00" fill="#000000">CheckReleaseIsDone</text>
</g>
<!-- n14&#45;&gt;n15 -->
<g id="edge25" class="edge">
<title>n14&#45;&gt;n15</title>
<path fill="none" stroke="#333333" d="M431.06,-215.8314C419.7285,-206.9632 405.9291,-196.1637 393.6728,-186.5718"/>
<polygon fill="#333333" stroke="#333333" points="395.5157,-183.5697 385.4836,-180.1628 391.2015,-189.0822 395.5157,-183.5697"/>
<text text-anchor="middle" x="422.0648" y="-210.4314" font-family="Open Sans, Helvetica Neue, Helvetica, Arial, sans-serif" font-size="6.00" fill="#000000">success</text>
</g>
<!-- n20 -->
<g id="node21" class="node">
<title>n20</title>
<polygon fill="#4682b4" stroke="#000000" points="594.4072,-180 448.1438,-180 448.1438,-144 594.4072,-144 594.4072,-180"/>
<text text-anchor="middle" x="521.2755" y="-157.8" font-family="Times New Roman" font-size="14.00" fill="#ffffff">DoReleaseGroupBump</text>
</g>
<!-- n14&#45;&gt;n20 -->
<g id="edge26" class="edge">
<title>n14&#45;&gt;n20</title>
<path fill="none" stroke="#333333" d="M471.1824,-215.8314C479.0568,-207.3694 488.5675,-197.1489 497.1768,-187.8971"/>
<polygon fill="#333333" stroke="#333333" points="499.8908,-190.1183 504.1409,-180.4133 494.7663,-185.3497 499.8908,-190.1183"/>
<text text-anchor="middle" x="463.3542" y="-210.4314" font-family="Open Sans, Helvetica Neue, Helvetica, Arial, sans-serif" font-size="6.00" fill="#000000">failure</text>
</g>
<!-- n15&#45;&gt;n7 -->
<g id="edge27" class="edge">
<title>n15&#45;&gt;n7</title>
<path fill="none" stroke="#333333" d="M294.5285,-164.5939C208.3536,-169.2674 66.0429,-182.0272 27.2755,-216 -4.1324,-243.5235 .2755,-264.2388 .2755,-306 .2755,-450 .2755,-450 .2755,-450 .2755,-567.1283 856.2792,-588.9875 1169.3454,-593.0654"/>
<polygon fill="#333333" stroke="#333333" points="1169.7572,-596.5708 1179.8007,-593.1975 1169.8458,-589.5713 1169.7572,-596.5708"/>
<text text-anchor="middle" x="285.5333" y="-166.3939" font-family="Open Sans, Helvetica Neue, Helvetica, Arial, sans-serif" font-size="6.00" fill="#000000">success</text>
</g>
<!-- n19 -->
<g id="node20" class="node">
<title>n19</title>
<polygon fill="#ddddff" stroke="#000000" points="371.5831,-108 254.9679,-108 254.9679,-72 371.5831,-72 371.5831,-108"/>
<text text-anchor="middle" x="313.2755" y="-85.8" font-family="Times New Roman" font-size="14.00" fill="#000000">PromptToRelease</text>
</g>
<!-- n15&#45;&gt;n19 -->
<g id="edge28" class="edge">
<title>n15&#45;&gt;n19</title>
<path fill="none" stroke="#222255" d="M349.9107,-143.8314C344.3246,-135.6232 337.6125,-125.7606 331.4683,-116.7323"/>
<polygon fill="#222255" stroke="#222255" points="334.3265,-114.7112 325.8067,-108.4133 328.5395,-118.6496 334.3265,-114.7112"/>
<text text-anchor="middle" x="342.0825" y="-138.4314" font-family="Open Sans, Helvetica Neue, Helvetica, Arial, sans-serif" font-size="6.00" fill="#000000">failure</text>
</g>
<!-- n16&#45;&gt;n2 -->
<g id="edge30" class="edge">
<title>n16&#45;&gt;n2</title>
<path fill="none" stroke="#222255" d="M614.4066,-289.4707C617.3956,-288.9314 620.3621,-288.4367 623.2755,-288 787.5267,-263.377 1310.1161,-241.2368 1454.8188,-235.4604"/>
<polygon fill="#222255" stroke="#222255" points="1455.1076,-238.9518 1464.9608,-235.0577 1454.8298,-231.9573 1455.1076,-238.9518"/>
<text text-anchor="middle" x="622.2348" y="-291.2707" font-family="Open Sans, Helvetica Neue, Helvetica, Arial, sans-serif" font-size="6.00" fill="#000000">failure</text>
</g>
<!-- n16&#45;&gt;n14 -->
<g id="edge29" class="edge">
<title>n16&#45;&gt;n14</title>
<path fill="none" stroke="#333333" d="M524.5553,-287.8314C512.8661,-278.8779 498.6067,-267.9558 485.9946,-258.2955"/>
<polygon fill="#333333" stroke="#333333" points="488.0552,-255.4651 477.9881,-252.1628 483.7986,-261.0222 488.0552,-255.4651"/>
<text text-anchor="middle" x="515.5601" y="-282.4314" font-family="Open Sans, Helvetica Neue, Helvetica, Arial, sans-serif" font-size="6.00" fill="#000000">success</text>
</g>
<!-- n17&#45;&gt;n14 -->
<g id="edge31" class="edge">
<title>n17&#45;&gt;n14</title>
<path fill="none" stroke="#333333" d="M447.2887,-359.7623C448.6532,-335.201 451.0951,-291.2474 452.7003,-262.3541"/>
<polygon fill="#333333" stroke="#333333" points="456.2103,-262.2684 453.2705,-252.0896 449.2211,-261.88 456.2103,-262.2684"/>
<text text-anchor="middle" x="438.2935" y="-354.3623" font-family="Open Sans, Helvetica Neue, Helvetica, Arial, sans-serif" font-size="6.00" fill="#000000">success</text>
</g>
<!-- n17&#45;&gt;n21 -->
<g id="edge32" class="edge">
<title>n17&#45;&gt;n21</title>
<path fill="none" stroke="#333333" d="M414.228,-359.8314C397.8335,-350.5368 377.6969,-339.1208 360.1926,-329.1971"/>
<polygon fill="#333333" stroke="#333333" points="361.7381,-326.05 351.3127,-324.1628 358.2858,-332.1395 361.7381,-326.05"/>
<text text-anchor="middle" x="406.3998" y="-354.4314" font-family="Open Sans, Helvetica Neue, Helvetica, Arial, sans-serif" font-size="6.00" fill="#000000">failure</text>
</g>
<!-- n28 -->
<g id="node29" class="node">
<title>n28</title>
<polygon fill="#ffffff" stroke="#000000" points="606.8412,-108 435.7097,-108 435.7097,-72 606.8412,-72 606.8412,-108"/>
<text text-anchor="middle" x="521.2755" y="-85.8" font-family="Times New Roman" font-size="14.00" fill="#000000">CheckShouldCommitBump</text>
</g>
<!-- n20&#45;&gt;n28 -->
<g id="edge33" class="edge">
<title>n20&#45;&gt;n28</title>
<path fill="none" stroke="#333333" d="M521.2755,-143.8314C521.2755,-136.131 521.2755,-126.9743 521.2755,-118.4166"/>
<polygon fill="#333333" stroke="#333333" points="524.7756,-118.4132 521.2755,-108.4133 517.7756,-118.4133 524.7756,-118.4132"/>
<text text-anchor="middle" x="512.2803" y="-138.4314" font-family="Open Sans, Helvetica Neue, Helvetica, Arial, sans-serif" font-size="6.00" fill="#000000">success</text>
</g>
<!-- n21&#45;&gt;n2 -->
<g id="edge35" class="edge">
<title>n21&#45;&gt;n2</title>
<path fill="none" stroke="#222255" d="M426.4729,-292.5861C442.1548,-290.8809 458.1212,-289.2859 473.2755,-288 856.1141,-255.5153 1321.6317,-239.315 1454.976,-235.122"/>
<polygon fill="#222255" stroke="#222255" points="1455.1841,-238.6173 1465.0703,-234.8077 1454.9662,-231.6207 1455.1841,-238.6173"/>
<text text-anchor="middle" x="434.3011" y="-294.3861" font-family="Open Sans, Helvetica Neue, Helvetica, Arial, sans-serif" font-size="6.00" fill="#000000">failure</text>
</g>
<!-- n21&#45;&gt;n19 -->
<g id="edge34" class="edge">
<title>n21&#45;&gt;n19</title>
<path fill="none" stroke="#222255" d="M310.199,-287.935C296.2988,-257.9182 272.6125,-195.9306 285.2755,-144 287.5294,-134.7566 291.6648,-125.3312 296.0782,-116.9966"/>
<polygon fill="#222255" stroke="#222255" points="299.2226,-118.5463 301.0938,-108.118 293.1279,-115.1033 299.2226,-118.5463"/>
<text text-anchor="middle" x="301.2038" y="-282.535" font-family="Open Sans, Helvetica Neue, Helvetica, Arial, sans-serif" font-size="6.00" fill="#000000">success</text>
</g>
<!-- n22&#45;&gt;n2 -->
<g id="edge38" class="edge">
<title>n22&#45;&gt;n2</title>
<path fill="none" stroke="#aaaadd" d="M1346.1242,-503.9441C1365.0043,-495.7555 1384.1183,-484.1662 1397.2755,-468 1449.1951,-404.2067 1400.8052,-360.1618 1440.2755,-288 1445.6755,-278.1274 1453.3594,-268.7639 1461.1686,-260.6917"/>
<polygon fill="none" stroke="#aaaadd" points="1461.3252,-260.5392 1462.8341,-253.4877 1469.9235,-252.1684 1468.4146,-259.2199 1461.3252,-260.5392"/>
</g>
<!-- n23 -->
<g id="node24" class="node">
<title>n23</title>
<polygon fill="#ffffff" stroke="#000000" points="1388.1747,-468 1176.3763,-468 1176.3763,-432 1388.1747,-432 1388.1747,-468"/>
<text text-anchor="middle" x="1282.2755" y="-445.8" font-family="Times New Roman" font-size="14.00" fill="#000000">CheckNoPrereleaseDependencies2</text>
</g>
<!-- n22&#45;&gt;n23 -->
<g id="edge36" class="edge">
<title>n22&#45;&gt;n23</title>
<path fill="none" stroke="#333333" d="M1282.2755,-503.8314C1282.2755,-496.131 1282.2755,-486.9743 1282.2755,-478.4166"/>
<polygon fill="#333333" stroke="#333333" points="1285.7756,-478.4132 1282.2755,-468.4133 1278.7756,-478.4133 1285.7756,-478.4132"/>
<text text-anchor="middle" x="1273.2803" y="-498.4314" font-family="Open Sans, Helvetica Neue, Helvetica, Arial, sans-serif" font-size="6.00" fill="#000000">success</text>
</g>
<!-- n26 -->
<g id="node27" class="node">
<title>n26</title>
<polygon fill="#ffffff" stroke="#000000" points="1158.1747,-468 946.3763,-468 946.3763,-432 1158.1747,-432 1158.1747,-468"/>
<text text-anchor="middle" x="1052.2755" y="-445.8" font-family="Times New Roman" font-size="14.00" fill="#000000">CheckNoPrereleaseDependencies3</text>
</g>
<!-- n22&#45;&gt;n26 -->
<g id="edge37" class="edge">
<title>n22&#45;&gt;n26</title>
<path fill="none" stroke="#333333" d="M1224.5337,-503.9243C1192.6812,-493.9531 1152.9606,-481.5188 1119.6911,-471.104"/>
<polygon fill="#333333" stroke="#333333" points="1120.6301,-467.7305 1110.0411,-468.0831 1118.5388,-474.4109 1120.6301,-467.7305"/>
<text text-anchor="middle" x="1216.7055" y="-498.5243" font-family="Open Sans, Helvetica Neue, Helvetica, Arial, sans-serif" font-size="6.00" fill="#000000">failure</text>
</g>
<!-- n24 -->
<g id="node25" class="node">
<title>n24</title>
<polygon fill="#ffffff" stroke="#000000" points="1377.3793,-396 1211.1717,-396 1211.1717,-360 1377.3793,-360 1377.3793,-396"/>
<text text-anchor="middle" x="1294.2755" y="-373.8" font-family="Times New Roman" font-size="14.00" fill="#000000">CheckShouldCommitDeps</text>
</g>
<!-- n23&#45;&gt;n24 -->
<g id="edge39" class="edge">
<title>n23&#45;&gt;n24</title>
<path fill="none" stroke="#333333" d="M1285.3036,-431.8314C1286.587,-424.131 1288.1131,-414.9743 1289.5394,-406.4166"/>
<polygon fill="#333333" stroke="#333333" points="1293.0149,-406.8526 1291.2066,-396.4133 1286.1102,-405.7018 1293.0149,-406.8526"/>
<text text-anchor="middle" x="1276.3084" y="-426.4314" font-family="Open Sans, Helvetica Neue, Helvetica, Arial, sans-serif" font-size="6.00" fill="#000000">success</text>
</g>
<!-- n27 -->
<g id="node28" class="node">
<title>n27</title>
<polygon fill="#ddddff" stroke="#000000" points="1192.8485,-396 1047.7025,-396 1047.7025,-360 1192.8485,-360 1192.8485,-396"/>
<text text-anchor="middle" x="1120.2755" y="-373.8" font-family="Times New Roman" font-size="14.00" fill="#000000">PromptToReleaseDeps</text>
</g>
<!-- n23&#45;&gt;n27 -->
<g id="edge40" class="edge">
<title>n23&#45;&gt;n27</title>
<path fill="none" stroke="#222255" d="M1241.3961,-431.8314C1219.7295,-422.2018 1192.9392,-410.295 1170.0677,-400.1299"/>
<polygon fill="#222255" stroke="#222255" points="1171.4206,-396.9011 1160.861,-396.038 1168.5776,-403.2978 1171.4206,-396.9011"/>
<text text-anchor="middle" x="1233.5679" y="-426.4314" font-family="Open Sans, Helvetica Neue, Helvetica, Arial, sans-serif" font-size="6.00" fill="#000000">failure</text>
</g>
<!-- n25 -->
<g id="node26" class="node">
<title>n25</title>
<polygon fill="#ddddff" stroke="#000000" points="1388.438,-324 1270.113,-324 1270.113,-288 1388.438,-288 1388.438,-324"/>
<text text-anchor="middle" x="1329.2755" y="-301.8" font-family="Times New Roman" font-size="14.00" fill="#000000">PromptToPRDeps</text>
</g>
<!-- n24&#45;&gt;n25 -->
<g id="edge41" class="edge">
<title>n24&#45;&gt;n25</title>
<path fill="none" stroke="#222255" d="M1303.1075,-359.8314C1306.9741,-351.8771 1311.5961,-342.369 1315.8723,-333.5723"/>
<polygon fill="#222255" stroke="#222255" points="1319.1004,-334.9371 1320.3246,-324.4133 1312.8048,-331.8768 1319.1004,-334.9371"/>
<text text-anchor="middle" x="1294.1123" y="-354.4314" font-family="Open Sans, Helvetica Neue, Helvetica, Arial, sans-serif" font-size="6.00" fill="#000000">success</text>
</g>
<!-- n31 -->
<g id="node32" class="node">
<title>n31</title>
<polygon fill="#ddddff" stroke="#000000" points="1252.218,-324 1104.333,-324 1104.333,-288 1252.218,-288 1252.218,-324"/>
<text text-anchor="middle" x="1178.2755" y="-301.8" font-family="Times New Roman" font-size="14.00" fill="#000000">PromptToCommitDeps</text>
</g>
<!-- n24&#45;&gt;n31 -->
<g id="edge42" class="edge">
<title>n24&#45;&gt;n31</title>
<path fill="none" stroke="#222255" d="M1265.0038,-359.8314C1250.1667,-350.6221 1231.974,-339.3301 1216.0893,-329.4706"/>
<polygon fill="#222255" stroke="#222255" points="1217.88,-326.4628 1207.5378,-324.1628 1214.1885,-332.4102 1217.88,-326.4628"/>
<text text-anchor="middle" x="1257.1756" y="-354.4314" font-family="Open Sans, Helvetica Neue, Helvetica, Arial, sans-serif" font-size="6.00" fill="#000000">failure</text>
</g>
<!-- n26&#45;&gt;n27 -->
<g id="edge43" class="edge">
<title>n26&#45;&gt;n27</title>
<path fill="none" stroke="#222255" d="M1069.4348,-431.8314C1077.4266,-423.3694 1087.0793,-413.1489 1095.8171,-403.8971"/>
<polygon fill="#222255" stroke="#222255" points="1098.5635,-406.0866 1102.8852,-396.4133 1093.4744,-401.2802 1098.5635,-406.0866"/>
<text text-anchor="middle" x="1061.6066" y="-426.4314" font-family="Open Sans, Helvetica Neue, Helvetica, Arial, sans-serif" font-size="6.00" fill="#000000">failure</text>
</g>
<!-- n32 -->
<g id="node33" class="node">
<title>n32</title>
<polygon fill="#ffffff" stroke="#000000" points="1029.6367,-396 778.9143,-396 778.9143,-360 1029.6367,-360 1029.6367,-396"/>
<text text-anchor="middle" x="904.2755" y="-373.8" font-family="Times New Roman" font-size="14.00" fill="#000000">CheckShouldCommitReleasedDepsBump</text>
</g>
<!-- n26&#45;&gt;n32 -->
<g id="edge44" class="edge">
<title>n26&#45;&gt;n32</title>
<path fill="none" stroke="#333333" d="M1014.9288,-431.8314C995.3986,-422.3302 971.3114,-410.6121 950.6024,-400.5374"/>
<polygon fill="#333333" stroke="#333333" points="951.8771,-397.2654 941.3536,-396.038 948.8148,-403.56 951.8771,-397.2654"/>
<text text-anchor="middle" x="1005.9336" y="-426.4314" font-family="Open Sans, Helvetica Neue, Helvetica, Arial, sans-serif" font-size="6.00" fill="#000000">success</text>
</g>
<!-- n29 -->
<g id="node30" class="node">
<title>n29</title>
<polygon fill="#ddddff" stroke="#000000" points="505.399,-36 381.152,-36 381.152,0 505.399,0 505.399,-36"/>
<text text-anchor="middle" x="443.2755" y="-13.8" font-family="Times New Roman" font-size="14.00" fill="#000000">PromptToPRBump</text>
</g>
<!-- n28&#45;&gt;n29 -->
<g id="edge45" class="edge">
<title>n28&#45;&gt;n29</title>
<path fill="none" stroke="#222255" d="M501.5928,-71.8314C492.1704,-63.1337 480.7354,-52.5783 470.4959,-43.1265"/>
<polygon fill="#222255" stroke="#222255" points="472.6739,-40.3738 462.9519,-36.1628 467.926,-45.5175 472.6739,-40.3738"/>
<text text-anchor="middle" x="492.5976" y="-66.4314" font-family="Open Sans, Helvetica Neue, Helvetica, Arial, sans-serif" font-size="6.00" fill="#000000">success</text>
</g>
<!-- n30 -->
<g id="node31" class="node">
<title>n30</title>
<polygon fill="#ddddff" stroke="#000000" points="676.6787,-36 523.8723,-36 523.8723,0 676.6787,0 676.6787,-36"/>
<text text-anchor="middle" x="600.2755" y="-13.8" font-family="Times New Roman" font-size="14.00" fill="#000000">PromptToCommitBump</text>
</g>
<!-- n28&#45;&gt;n30 -->
<g id="edge46" class="edge">
<title>n28&#45;&gt;n30</title>
<path fill="none" stroke="#222255" d="M541.2105,-71.8314C550.7537,-63.1337 562.3354,-52.5783 572.7061,-43.1265"/>
<polygon fill="#222255" stroke="#222255" points="575.3135,-45.4857 580.3468,-36.1628 570.5983,-40.3121 575.3135,-45.4857"/>
<text text-anchor="middle" x="533.3823" y="-66.4314" font-family="Open Sans, Helvetica Neue, Helvetica, Arial, sans-serif" font-size="6.00" fill="#000000">failure</text>
</g>
<!-- n33 -->
<g id="node34" class="node">
<title>n33</title>
<polygon fill="#ddddff" stroke="#000000" points="836.1953,-324 632.3557,-324 632.3557,-288 836.1953,-288 836.1953,-324"/>
<text text-anchor="middle" x="734.2755" y="-301.8" font-family="Times New Roman" font-size="14.00" fill="#000000">PromptToPRReleasedDepsBump</text>
</g>
<!-- n32&#45;&gt;n33 -->
<g id="edge47" class="edge">
<title>n32&#45;&gt;n33</title>
<path fill="none" stroke="#222255" d="M861.3773,-359.8314C838.5398,-350.159 810.2775,-338.1891 786.2068,-327.9944"/>
<polygon fill="#222255" stroke="#222255" points="787.4384,-324.7151 776.8652,-324.038 784.7084,-331.1608 787.4384,-324.7151"/>
<text text-anchor="middle" x="852.3821" y="-354.4314" font-family="Open Sans, Helvetica Neue, Helvetica, Arial, sans-serif" font-size="6.00" fill="#000000">success</text>
</g>
<!-- n34 -->
<g id="node35" class="node">
<title>n34</title>
<polygon fill="#ddddff" stroke="#000000" points="1086.4748,-324 854.0762,-324 854.0762,-288 1086.4748,-288 1086.4748,-324"/>
<text text-anchor="middle" x="970.2755" y="-301.8" font-family="Times New Roman" font-size="14.00" fill="#000000">PromptToCommitReleasedDepsBump</text>
</g>
<!-- n32&#45;&gt;n34 -->
<g id="edge48" class="edge">
<title>n32&#45;&gt;n34</title>
<path fill="none" stroke="#222255" d="M920.9301,-359.8314C928.6869,-351.3694 938.0557,-341.1489 946.5365,-331.8971"/>
<polygon fill="#222255" stroke="#222255" points="949.2194,-334.1499 953.3967,-324.4133 944.0593,-329.4198 949.2194,-334.1499"/>
<text text-anchor="middle" x="913.1019" y="-354.4314" font-family="Open Sans, Helvetica Neue, Helvetica, Arial, sans-serif" font-size="6.00" fill="#000000">failure</text>
</g>
</g>
</svg>
