<svg width="25" height="25" viewBox="0 0 25 25" fill="none" xmlns="http://www.w3.org/2000/svg">
<path d="M11.5903 0C5.19246 0 0 5.01749 0 11.2209C0 16.1472 3.33801 20.3436 7.88141 21.8945C8.43775 21.9857 8.71592 21.6208 8.71592 21.3471V19.2489C5.47063 19.8875 4.82157 17.8805 4.82157 17.8805C4.26524 16.6033 3.52346 16.2384 3.52346 16.2384C2.50351 15.5086 3.61618 15.5998 3.61618 15.5998C4.82157 15.691 5.37791 16.7858 5.37791 16.7858C6.39785 18.5191 8.06686 17.9717 8.71592 17.698C8.80864 16.9682 9.08681 16.5121 9.4577 16.2384C6.86147 15.9647 4.17251 14.9612 4.17251 10.6736C4.17251 9.48761 4.63613 8.48411 5.37791 7.66307C5.28518 7.29816 4.91429 6.20344 5.47063 4.65258C5.47063 4.65258 6.49058 4.3789 8.62319 5.83853C9.55042 5.56485 10.5704 5.47362 11.4976 5.47362C12.5175 5.47362 13.4448 5.56485 14.372 5.83853C16.5973 4.3789 17.5246 4.65258 17.5246 4.65258C18.1736 6.20344 17.8027 7.29816 17.6173 7.66307C18.3591 8.48411 18.8227 9.48761 18.8227 10.6736C18.8227 14.9612 16.1337 15.9647 13.5375 16.2384C13.9084 16.6033 14.2793 17.2419 14.2793 18.3366V21.4384C14.2793 21.712 14.4647 22.0769 15.1138 21.9857C19.7499 20.5261 22.9952 16.3296 22.9952 11.3122C23.1806 5.01749 17.9882 0 11.5903 0Z" transform="translate(1 1)" fill="#808285"/>
</svg>
