<svg width="25" height="25" viewBox="0 0 25 25" fill="none" xmlns="http://www.w3.org/2000/svg">
<path d="M13.012 0C18.51 0 23 2.76 23 6.256C23 8.464 21.1673 10.396 18.51 11.5C19.1514 12.696 20.0677 13.892 21.1673 15.456C19.0598 14.72 15.8526 13.984 14.0199 12.512L13.1036 12.604C7.60557 12.604 3.11554 9.844 3.11554 6.348C2.93227 2.76 7.42231 0 13.012 0ZM15.3944 14.812C15.3944 17.756 11.9124 20.056 7.78885 20.056H7.14741C5.58964 21.528 3.48207 23 1.00797 23C1.55777 21.896 2.749 20.792 3.48207 19.228C1.3745 18.308 0 16.652 0 14.812C0 12.972 1.3745 11.408 3.48207 10.396C5.31474 12.144 8.43028 13.34 12.004 13.34L12.9203 13.248C13.6534 13.8 14.3865 14.168 15.3944 14.628V14.812Z" transform="translate(1 1)" fill="#808285"/>
</svg>
