<svg width="25" height="25" viewBox="0 0 25 25" fill="none" xmlns="http://www.w3.org/2000/svg">
<path d="M2.79439 5.69524C4.33769 5.69524 5.58878 4.42031 5.58878 2.84762C5.58878 1.27492 4.33769 0 2.79439 0C1.25109 0 0 1.27492 0 2.84762C0 4.42031 1.25109 5.69524 2.79439 5.69524Z" transform="translate(1.10754 18.3047)" fill="#808285"/>
<path d="M15.5841 15.7714H11.5C11.5 9.30952 6.34112 4.05238 0 4.05238V0C8.70561 0 15.5841 7.11905 15.5841 15.7714Z" transform="translate(1 8.11905)" fill="#808285"/>
<path d="M23 23H18.9159C18.0561 12.8143 9.99533 4.70952 0 4.05238V0C12.2523 0.657143 22.1402 10.5143 23 23Z" transform="translate(1 1)" fill="#808285"/>
</svg>
