<svg width="25" height="25" viewBox="0 0 25 25" fill="none" xmlns="http://www.w3.org/2000/svg">
<g clip-path="url(#clip0)">
<path d="M25.1 2.4C24.2 2.8 23.2 3.1 22.2 3.2C23.3 2.6 24.1 1.6 24.5 0.4C23.5 1 22.4 1.4 21.2 1.6C20.3 0.6 18.9 0 17.5 0C14.7 0 12.4 2.3 12.4 5.1C12.4 5.5 12.4 5.9 12.5 6.3C8.2 6.1 4.5 4 1.9 0.9C1.4 1.7 1.1 2.6 1.1 3.5C1.1 5.3 2 6.8 3.4 7.8C2.6 7.8 1.8 7.5 1.1 7.2C1.1 7.2 1.1 7.2 1.1 7.3C1.1 9.8 2.9 11.9 5.2 12.3C4.8 12.4 4.3 12.5 3.8 12.5C3.5 12.5 3.1 12.5 2.8 12.4C3.5 14.4 5.3 15.9 7.6 16C5.8 17.4 3.6 18.2 1.2 18.2C0.800001 18.2 0.4 18.2 0 18.1C2.3 19.6 5 20.4 7.9 20.4C17.3 20.4 22.5 12.6 22.5 5.8V5.1C23.5 4.4 24.4 3.5 25.1 2.4Z" transform="translate(0 3)" fill="#808285"/>
</g>
<defs>
<clipPath id="clip0">
<rect width="25" height="25" fill="white"/>
</clipPath>
</defs>
</svg>
