<svg width="25" height="25" viewBox="0 0 25 25" fill="none" xmlns="http://www.w3.org/2000/svg">
<path d="M22.7628 4.53162C22.7628 4.53162 22.5386 2.47275 21.8493 1.56625C20.9746 0.378 19.9949 0.371 19.5457 0.303625C16.3278 0 11.5014 0 11.5014 0H11.4907C11.4907 0 6.66425 0 3.44712 0.303625C2.99791 0.371 2.01897 0.378 1.14353 1.56625C0.454969 2.47275 0.23 4.53162 0.23 4.53162C0.23 4.53162 0 6.9475 0 9.36337V11.6279C0 14.0455 0.23 16.4605 0.23 16.4605C0.23 16.4605 0.45425 18.5185 1.14353 19.4233C2.01897 20.6115 3.16681 20.5756 3.67856 20.6999C5.51784 20.9291 11.4964 21 11.4964 21C11.4964 21 16.3278 20.9895 19.5457 20.6894C19.9949 20.6194 20.9746 20.6124 21.8493 19.4241C22.5378 18.5194 22.7628 16.4614 22.7628 16.4614C22.7628 16.4614 22.9928 14.0455 22.9928 11.6287V9.36425C22.9928 6.9475 22.7628 4.53162 22.7628 4.53162Z" transform="translate(1 2)" fill="#808285"/>
<path d="M0 0V10.5L7.1875 5.25L0 0Z" transform="translate(9.625 7.25)" fill="white"/>
</svg>
