<svg id="emoji" viewBox="0 0 72 72" xmlns="http://www.w3.org/2000/svg">
  <g id="color">
    <polygon fill="#FCEA2B" stroke="none" points="53,32.2969 54.875,32.2969 54.875,59.1719 16.875,59.1719 16.875,32.2969 18.75,32.2969"/>
    <polygon fill="#F1B31C" stroke="none" points="54.4302,32.493 35.66,58.9944 54.9675,58.9944"/>
    <path fill="#D0CFCE" stroke="#D0CFCE" stroke-linejoin="round" stroke-miterlimit="10" stroke-width="2" d="M46.0641,31.8167 l0.2102-2.902c0.4766-6.9852-4.8299-12.6829-10.5142-12.4934c-4.6725,0.1558-8.6157,4.2846-9.8282,9.301l-4.0503-0.9026 c1.6615-6.6916,7.2189-12.2207,13.8118-12.4281c7.9697-0.2507,15.4098,7.2847,14.7416,16.523l-0.2425,2.902"/>
  </g>
  <g id="hair"/>
  <g id="skin"/>
  <g id="skin-shadow"/>
  <g id="line">
    <polygon fill="none" stroke="#000000" stroke-linecap="round" stroke-linejoin="round" stroke-miterlimit="10" stroke-width="2" points="53,32.25 54.875,32.25 54.875,59.125 16.875,59.125 16.875,32.25 18.75,32.25"/>
    <path fill="none" stroke="#000000" stroke-linecap="round" stroke-linejoin="round" stroke-miterlimit="10" stroke-width="2" d="M46.2743,28.9146c0.4766-6.9852-4.8299-12.6829-10.5142-12.4934c-4.6725,0.1558-8.6157,4.2846-9.8282,9.301l-4.0503-0.9026 c1.6615-6.6916,7.2189-12.2207,13.8118-12.4281c7.9697-0.2507,15.4098,7.2847,14.7416,16.523"/>
  </g>
</svg>
