<svg width="16" height="18" viewBox="0 0 16 18" fill="none" xmlns="http://www.w3.org/2000/svg">
<path d="M3.99951 1.5H4.99949V7.73821C4.99949 8.11316 4.90579 8.48216 4.7269 8.81168L1.1422 15.415C0.509191 16.5811 1.35339 17.9999 2.6802 17.9999H13.3188C14.6456 17.9999 15.4898 16.5811 14.8568 15.415L11.2721 8.81168C11.0932 8.48216 10.9995 8.11316 10.9995 7.73821V1.5H11.9995C12.4137 1.5 12.7495 1.16421 12.7495 0.75C12.7495 0.335786 12.4137 0 11.9995 0H3.99951C3.5853 0 3.24951 0.335786 3.24951 0.75C3.24951 1.16421 3.5853 1.5 3.99951 1.5ZM6.49949 7.73821V1.5H9.49949V7.73821C9.49949 8.36312 9.65565 8.97812 9.95379 9.52732L10.7533 11H5.24572L6.04518 9.52732C6.34332 8.97812 6.49949 8.36312 6.49949 7.73821ZM4.43143 12.5H11.5675L13.5385 16.1307C13.6289 16.2973 13.5083 16.4999 13.3188 16.4999H2.6802C2.49065 16.4999 2.37005 16.2973 2.46048 16.1307L4.43143 12.5Z" fill="#f3f5f7"/>
</svg>
