<svg xmlns:dc="http://purl.org/dc/elements/1.1/" xmlns:cc="http://creativecommons.org/ns#" xmlns:rdf="http://www.w3.org/1999/02/22-rdf-syntax-ns#" xmlns:svg="http://www.w3.org/2000/svg" xmlns="http://www.w3.org/2000/svg" xmlns:sodipodi="http://sodipodi.sourceforge.net/DTD/sodipodi-0.dtd" xmlns:inkscape="http://www.inkscape.org/namespaces/inkscape" version="1.1" x="0px" y="0px" viewBox="0 0 854.94971 1186.4794875" enable-background="new 0 0 880 970" xml:space="preserve"><path d="m 427.48594,0 c -18.868,0 -34.13672,14.877282 -34.13672,33.238282 l 0,77.314448 c 0,18.35 15.26872,33.22852 34.13672,33.22852 18.882,0 34.14453,-14.87752 34.14453,-33.22852 l 0,-77.314448 C 461.63047,14.877281 446.36794,0 427.48594,0 Z M 670.0875,76.859375 c -10.38943,0.143856 -20.5629,4.905907 -27.15234,13.734379 l -46.67578,62.566396 c -11.068,14.85 -7.67155,35.63225 7.56445,46.40625 6.068,4.287 13.10325,6.34961 20.03125,6.34961 10.574,0 20.97987,-4.75084 27.67187,-13.71484 l 46.67579,-62.56836 c 11.08,-14.849 7.67254,-35.629296 -7.56446,-46.404294 -6.23268,-4.40375 -13.44222,-6.467569 -20.55078,-6.369141 z m -485.21484,0.02344 c -7.11045,-0.101669 -14.31611,1.953734 -20.5293,6.345703 -15.237,10.774996 -18.63841,31.556292 -7.56641,46.404292 l 46.66407,62.56836 c 6.702,8.964 17.10654,13.71484 27.68554,13.71484 6.93,0 13.96035,-2.06361 20.02735,-6.34961 15.241,-10.774 18.64222,-31.55725 7.57422,-46.40625 L 212.04649,90.593754 C 205.45408,81.78725 195.26485,77.031405 184.87266,76.882813 Z M 427.45664,196.9414 c -136.223,0 -246.64062,107.48636 -246.64062,240.06836 0,55.935 19.76329,107.29527 52.77929,148.07227 28.93,35.733 56.32822,74.73623 80.07422,113.99023 l 0,79.73438 226.17383,0 0,-77.61719 c 23.521,-38.183 53.93792,-82.14127 81.41992,-116.07227 33.045,-40.786 52.80078,-92.13742 52.80078,-148.10742 0,-132.582 -110.41442,-240.06836 -246.60742,-240.06836 z M 34.554302,278.12695 c -14.603922,-0.18396 -28.0984217,8.78511 -32.8417967,22.97461 -5.8429997,17.437 3.968391,36.19495 21.9003907,41.87695 l 75.558598,23.92383 c 3.525996,1.101 7.056676,1.63672 10.554676,1.63672 14.401,0 27.77157,-8.92842 32.47657,-22.98242 5.84,-17.436 -3.9684,-36.19296 -21.9004,-41.87696 L 44.747662,279.76562 c -3.394313,-1.06556 -6.823224,-1.59622 -10.19336,-1.63867 z m 785.800778,0.0469 c -3.34994,0.0378 -6.74495,0.56044 -10.08789,1.61719 l -75.56445,23.88672 c -17.933,5.684 -27.76674,24.42291 -21.92774,41.87891 4.7,14.037 18.07656,22.98242 32.47656,22.98242 3.502,0 7.03211,-0.53572 10.53711,-1.63672 l 75.54297,-23.88672 c 17.941,-5.683 27.7675,-24.42295 21.9375,-41.87695 -4.74419,-14.17569 -18.39766,-23.12878 -32.91406,-22.96485 z m -260.41016,41.15036 c 3.49216,-0.1717 6.99182,0.68154 10.03907,2.67579 60.519,39.607 74.12403,124.85611 30.33203,190.03711 -5.872,8.739 -17.2118,11.52407 -25.3418,6.20507 -8.12,-5.316 -9.93259,-16.70822 -4.05859,-25.44921 32.059,-47.719 22.10396,-110.13191 -22.20703,-139.12891 -8.124,-5.318 -9.9316,-16.70817 -4.0586,-25.45117 3.6725,-5.46563 9.47467,-8.60249 15.29492,-8.88868 z m 185.71094,183.75391 c -14.55419,-0.16712 -28.1448,8.78183 -32.88086,22.95508 -5.839,17.456 3.99474,36.20391 21.92774,41.87891 l 75.56445,23.88671 c 3.492,1.11 7.02534,1.63672 10.52734,1.63672 14.4,0 27.76761,-8.93765 32.47461,-22.97265 5.83,-17.466 -3.9955,-36.20491 -21.9375,-41.87891 l -75.54297,-23.88477 c -3.36412,-1.05731 -6.77415,-1.58252 -10.13281,-1.62109 z m -636.26562,0.004 c -3.36964,0.0375 -6.79721,0.55987 -10.189456,1.61718 l -75.587888,23.84961 c -17.9319997,5.662 -27.7697342,24.40419 -21.9277337,41.86719 4.666,14.055 18.0559367,22.99219 32.4609367,22.99219 3.474,0 7.042922,-0.53677 10.544922,-1.63477 L 120.25938,567.9122 c 17.946,-5.662 27.78336,-24.40238 21.94336,-41.85938 -4.70844,-14.17244 -18.21076,-23.13315 -32.8125,-22.9707 z m 226.74804,310.53125 c -14.13,0 -25.59765,11.16087 -25.59765,24.92187 0,13.759 11.46765,24.91992 25.59765,24.91992 l 182.5625,0 c 14.139,0 25.61133,-11.16092 25.61133,-24.91992 0,-13.761 -11.47333,-24.92187 -25.61133,-24.92187 l -182.5625,0 z m -9.5,76.71679 c 3.057,32.91591 33.54586,58.85343 71.13086,58.85343 l 59.41797,0 c 37.586,0 68.09244,-25.93752 71.14844,-58.85352 l -201.69727,0 z" style="" fill="#000000" stroke="none"/><text x="0" y="964.18359" fill="#000000" font-size="5px" font-weight="bold" font-family="'Helvetica Neue', Helvetica, Arial-Unicode, Arial, Sans-serif">Created by alrigel</text><text x="0" y="969.18359" fill="#000000" font-size="5px" font-weight="bold" font-family="'Helvetica Neue', Helvetica, Arial-Unicode, Arial, Sans-serif">from the Noun Project</text></svg>