<svg xmlns="http://www.w3.org/2000/svg" data-name="Layer 1" viewBox="0 0 100 125" x="0px" y="0px"><title>Untitled-2-24</title><g data-name="Group"><path data-name="Path" d="M36.72,70.91,24.16,86.6a1.81,1.81,0,0,0,1.42,2.93H73.87a1.8,1.8,0,0,0,1.45-2.89L67.4,76.14a1.82,1.82,0,0,0-2.18-.57l-1.78.79a14.35,14.35,0,0,1-12.74-.55L40.46,70.16A3,3,0,0,0,36.72,70.91Z"/><path data-name="Compound Path" d="M84.74,86.19l0,0L63.39,58.09A3.52,3.52,0,0,1,62.67,56V40.61h4.18a3.32,3.32,0,0,0,3.32-3.32V32.52a3.32,3.32,0,0,0-3.32-3.32H33.15a3.32,3.32,0,0,0-3.32,3.32v4.77a3.32,3.32,0,0,0,3.32,3.32h4.18V56a3.52,3.52,0,0,1-.72,2.12L15.26,86.19a6.86,6.86,0,0,0,5.55,10.87H79.19a6.86,6.86,0,0,0,5.55-10.87ZM82,91.63a3.09,3.09,0,0,1-2.79,1.71H20.81A3.09,3.09,0,0,1,18,91.63a3,3,0,0,1,.23-3.22L39.38,60.6h7.89a1.86,1.86,0,0,0,0-3.72H41a6.84,6.84,0,0,0,.07-.91V54.05h6.22a1.86,1.86,0,1,0,0-3.72H41.05V47.5h6.22a1.86,1.86,0,0,0,0-3.72H41.05v-5a1.86,1.86,0,0,0-1.86-1.86H33.55v-4h32.9v4H60.81A1.86,1.86,0,0,0,59,38.75V56a7.26,7.26,0,0,0,1.47,4.37L81.74,88.39A3.08,3.08,0,0,1,82,91.63Z"/><circle data-name="Path" cx="46.41" cy="21.16" r="4.26"/><circle data-name="Path" cx="58.46" cy="10.74" r="7.8"/></g><text x="0" y="115" fill="#000000" font-size="5px" font-weight="bold" font-family="'Helvetica Neue', Helvetica, Arial-Unicode, Arial, Sans-serif">Created by Nubaia Karim Barsha</text><text x="0" y="120" fill="#000000" font-size="5px" font-weight="bold" font-family="'Helvetica Neue', Helvetica, Arial-Unicode, Arial, Sans-serif">from the Noun Project</text></svg>