<svg xmlns="http://www.w3.org/2000/svg" xmlns:xlink="http://www.w3.org/1999/xlink" version="1.1" x="0px" y="0px" viewBox="0 0 32 40" enable-background="new 0 0 32 32" xml:space="preserve"><g><path d="M26.8,26.055L20,14.724V3h1V1h-1h-8h-1v2h1v11.723L5.201,26.055c-0.73,1.217-0.836,2.467-0.291,3.43   C5.455,30.448,6.581,31,8,31h16c1.419,0,2.546-0.552,3.091-1.515C27.636,28.522,27.53,27.272,26.8,26.055z M14,15.277V3h4v12.277   l3.318,5.53c-2.918-0.803-4.938,0.336-6.773,1.373c-1.647,0.929-3.232,1.795-5.555,1.447L14,15.277z M25.351,28.5   C25.173,28.813,24.668,29,24,29H8c-0.668,0-1.173-0.187-1.35-0.5c-0.177-0.313-0.078-0.843,0.266-1.416L7.89,25.46   c0.772,0.184,1.489,0.274,2.149,0.274c2.277,0,3.955-0.947,5.489-1.813c2.252-1.271,4.052-2.272,7.579-0.132l1.978,3.295   C25.429,27.657,25.528,28.187,25.351,28.5z"/></g><text x="0" y="47" fill="#000000" font-size="5px" font-weight="bold" font-family="'Helvetica Neue', Helvetica, Arial-Unicode, Arial, Sans-serif">Created by Binpodo</text><text x="0" y="52" fill="#000000" font-size="5px" font-weight="bold" font-family="'Helvetica Neue', Helvetica, Arial-Unicode, Arial, Sans-serif">from the Noun Project</text></svg>