<svg width="16" height="20" viewBox="0 0 16 20" fill="none" xmlns="http://www.w3.org/2000/svg">
<path d="M8 0.00134277C12.0041 0.00134277 15.25 3.24728 15.25 7.25134C15.25 9.3474 14.3493 11.2711 12.5869 12.9932C12.51 13.0684 12.4504 13.159 12.4118 13.2585L12.3804 13.3608L11.2493 18.2564C11.0266 19.2204 10.2035 19.9187 9.23025 19.9933L9.05704 19.9999H6.94326C5.95374 19.9999 5.08791 19.3549 4.79629 18.4232L4.75088 18.2559L3.62132 13.3611C3.58904 13.2212 3.51728 13.0935 3.41456 12.9932C1.73515 11.353 0.837782 9.5301 0.756126 7.5496L0.75 7.25134L0.753875 7.01203C0.880141 3.11874 4.07601 0.00134277 8 0.00134277ZM10.115 16.4993H5.884L6.21247 17.9186C6.28314 18.2249 6.53566 18.4507 6.84005 18.4929L6.94326 18.4999H9.05704C9.37129 18.4999 9.64813 18.3048 9.75765 18.0177L9.78779 17.9188L10.115 16.4993ZM8 1.50134C4.89821 1.50134 2.37006 3.95736 2.25415 7.03079L2.25 7.25134L2.25672 7.52835C2.33286 9.09172 3.05722 10.5475 4.46262 11.9201C4.72675 12.1781 4.92265 12.4964 5.03422 12.8463L5.08291 13.0238L5.538 14.9993H10.461L10.9189 13.0232C11.0019 12.6638 11.1718 12.3313 11.4124 12.0542L11.5386 11.9204C12.9432 10.5478 13.6672 9.09198 13.7433 7.52839L13.75 7.25134L13.7458 7.03079C13.6299 3.95736 11.1018 1.50134 8 1.50134Z" fill="#f3f5f7"/>
</svg>
