<svg xmlns="http://www.w3.org/2000/svg" xmlns:xlink="http://www.w3.org/1999/xlink" version="1.1" x="0px" y="0px" viewBox="0 0 100 125" style="enable-background:new 0 0 100 100;" xml:space="preserve"><g><g><g><path d="M50.3,66.3c-6.6,0-12-5.4-12-12s5.4-12,12-12s12,5.4,12,12S56.9,66.3,50.3,66.3z M50.3,45.3c-5,0-9,4-9,9s4,9,9,9     s9-4,9-9S55.3,45.3,50.3,45.3z"/></g><g><path d="M50.3,45.3c-0.8,0-1.5-0.7-1.5-1.5v-16c0-0.8,0.7-1.5,1.5-1.5s1.5,0.7,1.5,1.5v16C51.8,44.6,51.1,45.3,50.3,45.3z"/></g><g><path d="M50.3,29.3c-3.8,0-6.9-3.1-6.9-6.9s3.1-6.9,6.9-6.9s6.9,3.1,6.9,6.9S54.1,29.3,50.3,29.3z M50.3,18.4     c-2.2,0-3.9,1.8-3.9,3.9s1.8,3.9,3.9,3.9s3.9-1.8,3.9-3.9S52.5,18.4,50.3,18.4z"/></g><g><path d="M60.2,52.3c-0.6,0-1.2-0.4-1.4-1c-0.3-0.8,0.1-1.6,0.9-1.9l14.9-5.6c0.8-0.3,1.6,0.1,1.9,0.9c0.3,0.8-0.1,1.6-0.9,1.9     l-14.9,5.6C60.6,52.3,60.4,52.3,60.2,52.3z"/></g><g><path d="M80.2,50.3c-1,0-2-0.2-3-0.7c-1.7-0.8-2.9-2.2-3.5-3.9c-1.3-3.6,0.6-7.6,4.2-8.8c1.7-0.6,3.6-0.5,5.3,0.3     c1.7,0.8,2.9,2.2,3.5,3.9c0.6,1.7,0.5,3.6-0.3,5.3c-0.8,1.7-2.2,2.9-3.9,3.5h0C81.8,50.2,81,50.3,80.2,50.3z M80.2,39.5     c-0.4,0-0.9,0.1-1.3,0.2c-2,0.7-3.1,3-2.4,5c0.3,1,1.1,1.8,2,2.2c0.9,0.5,2,0.5,3,0.2c1-0.3,1.8-1.1,2.2-2c0.5-0.9,0.5-2,0.2-3     C83.4,40.5,81.8,39.5,80.2,39.5z"/></g><g><path d="M32.1,74c-0.4,0-0.7-0.1-1-0.4c-0.6-0.6-0.6-1.5,0-2.1l10.6-11c0.6-0.6,1.5-0.6,2.1,0c0.6,0.6,0.6,1.5,0,2.1l-10.6,11     C32.9,73.9,32.5,74,32.1,74z"/></g><g><path d="M28.2,83.1c-0.1,0-0.1,0-0.2,0c-1.8,0-3.6-0.8-4.8-2.2c-2.6-2.8-2.5-7.2,0.3-9.8l0,0c2.8-2.6,7.2-2.5,9.8,0.3     c2.6,2.8,2.5,7.2-0.3,9.8C31.6,82.5,30,83.1,28.2,83.1z M25.5,73.4c-1.6,1.5-1.6,4-0.1,5.5c0.7,0.8,1.7,1.2,2.7,1.2     c1,0,2-0.4,2.8-1.1c0.8-0.7,1.2-1.7,1.2-2.7c0-1-0.4-2-1.1-2.8C29.5,72,27.1,71.9,25.5,73.4L25.5,73.4z"/></g><g><path d="M70.1,79c-0.4,0-0.8-0.2-1.1-0.5L56,63.2c-0.5-0.6-0.5-1.6,0.2-2.1c0.6-0.5,1.6-0.5,2.1,0.2l12.9,15.2     c0.5,0.6,0.5,1.6-0.2,2.1C70.7,78.9,70.4,79,70.1,79z"/></g><g><path d="M73.6,88.6c-2,0-3.9-0.8-5.3-2.4c0,0,0,0,0,0c-2.5-2.9-2.1-7.3,0.8-9.7c1.4-1.2,3.2-1.8,5-1.6c1.8,0.2,3.5,1,4.7,2.4     c2.5,2.9,2.1,7.3-0.8,9.7C76.7,88,75.2,88.6,73.6,88.6z M70.6,84.2c1.4,1.6,3.9,1.8,5.5,0.5c1.6-1.4,1.8-3.9,0.5-5.5     c-0.7-0.8-1.6-1.3-2.7-1.4c-1-0.1-2.1,0.2-2.9,0.9C69.4,80.1,69.2,82.5,70.6,84.2L70.6,84.2z"/></g><g><path d="M40.2,52.9c-0.1,0-0.3,0-0.4-0.1l-19.2-5.5c-0.8-0.2-1.3-1.1-1-1.9c0.2-0.8,1.1-1.3,1.9-1l19.2,5.5     c0.8,0.2,1.3,1.1,1,1.9C41.5,52.5,40.9,52.9,40.2,52.9z"/></g><g><path d="M15.8,51.3c-0.6,0-1.3-0.1-1.9-0.3c-1.8-0.5-3.2-1.7-4.1-3.3c-0.9-1.6-1.1-3.5-0.6-5.3c1-3.7,4.9-5.8,8.5-4.8     c0,0,0,0,0,0c3.7,1,5.8,4.9,4.8,8.5c-0.5,1.8-1.7,3.3-3.3,4.1C18.1,51,16.9,51.3,15.8,51.3z M15.8,40.5c-1.7,0-3.3,1.1-3.8,2.8     c-0.3,1-0.2,2.1,0.3,3c0.5,0.9,1.3,1.6,2.3,1.9c1,0.3,2.1,0.2,3-0.3s1.6-1.3,1.9-2.3c0.6-2.1-0.6-4.2-2.7-4.8     C16.5,40.5,16.1,40.5,15.8,40.5z"/></g><g><path d="M40.2,52.9c-0.1,0-0.3,0-0.4-0.1l-19.2-5.5c-0.8-0.2-1.3-1.1-1-1.9c0.2-0.8,1.1-1.3,1.9-1l19.2,5.5     c0.8,0.2,1.3,1.1,1,1.9C41.5,52.5,40.9,52.9,40.2,52.9z"/></g><g><path d="M15.8,51.3c-0.6,0-1.3-0.1-1.9-0.3c-1.8-0.5-3.2-1.7-4.1-3.3c-0.9-1.6-1.1-3.5-0.6-5.3c1-3.7,4.9-5.8,8.5-4.8     c0,0,0,0,0,0c3.7,1,5.8,4.9,4.8,8.5c-0.5,1.8-1.7,3.3-3.3,4.1C18.1,51,16.9,51.3,15.8,51.3z M15.8,40.5c-1.7,0-3.3,1.1-3.8,2.8     c-0.3,1-0.2,2.1,0.3,3c0.5,0.9,1.3,1.6,2.3,1.9c1,0.3,2.1,0.2,3-0.3s1.6-1.3,1.9-2.3c0.6-2.1-0.6-4.2-2.7-4.8     C16.5,40.5,16.1,40.5,15.8,40.5z"/></g></g></g><text x="0" y="115" fill="#000000" font-size="5px" font-weight="bold" font-family="'Helvetica Neue', Helvetica, Arial-Unicode, Arial, Sans-serif">Created by Bestdesignmarket</text><text x="0" y="120" fill="#000000" font-size="5px" font-weight="bold" font-family="'Helvetica Neue', Helvetica, Arial-Unicode, Arial, Sans-serif">from the Noun Project</text></svg>