<svg width="20" height="20" viewBox="0 0 20 20" fill="none" xmlns="http://www.w3.org/2000/svg">
<path d="M10 0C15.5228 0 20 4.47715 20 10C20 15.5228 15.5228 20 10 20C4.47715 20 0 15.5228 0 10C0 4.47715 4.47715 0 10 0ZM10 1.5C5.30558 1.5 1.5 5.30558 1.5 10C1.5 14.6944 5.30558 18.5 10 18.5C14.6944 18.5 18.5 14.6944 18.5 10C18.5 5.30558 14.6944 1.5 10 1.5ZM7.05279 6.58541C7.16256 6.36586 7.41206 6.26237 7.63962 6.32882L7.72361 6.3618L14.1056 9.55279C14.2023 9.60117 14.2808 9.67963 14.3292 9.77639C14.439 9.99594 14.372 10.2576 14.1824 10.3998L14.1056 10.4472L7.72361 13.6382C7.65418 13.6729 7.57762 13.691 7.5 13.691C7.25454 13.691 7.05039 13.5141 7.00806 13.2809L7 13.191V6.80902C7 6.73139 7.01807 6.65484 7.05279 6.58541Z" fill="#f3f5f7"/>
</svg>
