<svg xmlns="http://www.w3.org/2000/svg" xmlns:xlink="http://www.w3.org/1999/xlink" viewBox="0 0 64 64"><defs><linearGradient id="a" x1="20.248" y1="3.476" x2="37.161" y2="32.769" gradientUnits="userSpaceOnUse"><stop offset="0.06" stop-color="#04868c"/><stop offset="0.942" stop-color="#025b5e"/></linearGradient><linearGradient id="b" x1="39.749" y1="22.074" x2="55.251" y2="48.926" gradientUnits="userSpaceOnUse"><stop offset="0" stop-color="#18949a"/><stop offset="0.466" stop-color="#14858c"/><stop offset="1" stop-color="#117880"/></linearGradient><linearGradient id="c" x1="26.249" y1="38.673" x2="38.751" y2="60.327" gradientUnits="userSpaceOnUse"><stop offset="0" stop-color="#2dbcc8"/><stop offset="1" stop-color="#24b2c0"/></linearGradient><linearGradient id="d" x1="5.56" y1="13.917" x2="26.44" y2="50.083" gradientUnits="userSpaceOnUse"><stop offset="0" stop-color="#058f92"/><stop offset="0.5" stop-color="#038489"/><stop offset="1" stop-color="#026d71"/></linearGradient></defs><title>SharePoint_64x</title><circle cx="29.5" cy="19.5" r="18.5" fill="url(#a)"/><circle cx="47.5" cy="35.5" r="15.5" fill="url(#b)"/><circle cx="32.5" cy="49.5" r="12.5" fill="url(#c)"/><rect width="64" height="64" fill="none"/><path d="M30.306,16H11.341A18.456,18.456,0,0,0,27.818,37.915,12.4,12.4,0,0,0,20.1,51H30.306a2.643,2.643,0,0,0,2.628-2.179,1.921,1.921,0,0,0,.046-.452V18.631A2.648,2.648,0,0,0,30.306,16Z" opacity="0.2"/><path d="M30.2,15H11.574A18.422,18.422,0,0,0,27.818,37.915,12.5,12.5,0,0,0,20,49.5c0,.169.018.333.025.5H30.2a3.793,3.793,0,0,0,2.61-1.05A3.7,3.7,0,0,0,34,46.24V18.76A3.791,3.791,0,0,0,30.2,15Z" opacity="0.1"/><path d="M30.306,16H11.341A18.456,18.456,0,0,0,27.818,37.915,12.5,12.5,0,0,0,20.019,49H30.306a2.658,2.658,0,0,0,2.674-2.651v-27.7A2.658,2.658,0,0,0,30.306,16Z" opacity="0.2"/><path d="M29.266,16H11.341A18.456,18.456,0,0,0,27.818,37.915,12.5,12.5,0,0,0,20.019,49h9.247a2.669,2.669,0,0,0,2.694-2.651v-27.7A2.669,2.669,0,0,0,29.266,16Z" opacity="0.1"/><rect y="16" width="32" height="32" rx="2.667" fill="url(#d)"/><path d="M11.679,31.675a4.914,4.914,0,0,1-1.526-1.613,4.384,4.384,0,0,1-.531-2.207A4.246,4.246,0,0,1,10.61,25a5.828,5.828,0,0,1,2.626-1.713,11.1,11.1,0,0,1,3.589-.557,13.635,13.635,0,0,1,4.728.663v3.339a7.391,7.391,0,0,0-2.139-.875,10.329,10.329,0,0,0-2.5-.3,5.427,5.427,0,0,0-2.57.544,1.688,1.688,0,0,0-1.019,1.545,1.561,1.561,0,0,0,.431,1.094,3.932,3.932,0,0,0,1.163.832q.732.363,2.183.963a2.239,2.239,0,0,1,.312.125,18.032,18.032,0,0,1,2.752,1.357,4.937,4.937,0,0,1,1.625,1.638,4.742,4.742,0,0,1,.588,2.47,4.6,4.6,0,0,1-.925,2.977,5.175,5.175,0,0,1-2.477,1.663,11.2,11.2,0,0,1-3.526.513,18.619,18.619,0,0,1-3.2-.263,10.99,10.99,0,0,1-2.595-.75V36.734a8.374,8.374,0,0,0,2.627,1.251,10.244,10.244,0,0,0,2.889.462,4.972,4.972,0,0,0,2.62-.556,1.758,1.758,0,0,0,.881-1.57,1.672,1.672,0,0,0-.494-1.2,4.99,4.99,0,0,0-1.363-.951q-.869-.438-2.57-1.15A14.612,14.612,0,0,1,11.679,31.675Z" fill="#fff"/></svg>