<svg width="206" height="104" viewBox="0 0 206 104" fill="none" xmlns="http://www.w3.org/2000/svg">
<g clip-path="url(#clip0)">
<path d="M25.1875 0C26.7663 0 28.2881 0.203451 29.7529 0.610352C31.2178 1.01725 32.585 1.59505 33.8545 2.34375C35.1403 3.09245 36.304 3.98763 37.3457 5.0293C38.3874 6.07096 39.2826 7.2347 40.0312 8.52051C40.7799 9.79004 41.3577 11.1572 41.7646 12.6221C42.1716 14.0869 42.375 15.6087 42.375 17.1875C42.375 19.5475 41.9274 21.7367 41.0322 23.7549C40.137 25.7731 38.8594 27.6042 37.1992 29.248C35.8483 30.5827 34.8066 32.0719 34.0742 33.7158C33.3581 35.3597 33 37.1419 33 39.0625V45.3125C33 45.9635 32.8779 46.5739 32.6338 47.1436C32.3896 47.7132 32.056 48.2096 31.6328 48.6328C31.2096 49.056 30.7132 49.3896 30.1436 49.6338C29.5739 49.8779 28.9635 50 28.3125 50H22.0625C21.4115 50 20.8011 49.8779 20.2314 49.6338C19.6618 49.3896 19.1654 49.056 18.7422 48.6328C18.319 48.2096 17.9854 47.7132 17.7412 47.1436C17.4971 46.5739 17.375 45.9635 17.375 45.3125V39.0625C17.375 37.1419 17.0088 35.3597 16.2764 33.7158C15.5602 32.0719 14.5267 30.5827 13.1758 29.248C11.5156 27.6042 10.238 25.7731 9.34277 23.7549C8.44759 21.7367 8 19.5475 8 17.1875C8 15.6087 8.20345 14.0869 8.61035 12.6221C9.01725 11.1572 9.59505 9.79004 10.3438 8.52051C11.0924 7.2347 11.9876 6.07096 13.0293 5.0293C14.071 3.98763 15.2266 3.09245 16.4961 2.34375C17.7819 1.59505 19.1572 1.01725 20.6221 0.610352C22.0869 0.203451 23.6087 0 25.1875 0ZM28.3125 46.875C28.7357 46.875 29.1019 46.7204 29.4111 46.4111C29.7204 46.1019 29.875 45.7357 29.875 45.3125V40.625H20.5V45.3125C20.5 45.7357 20.6546 46.1019 20.9639 46.4111C21.2731 46.7204 21.6393 46.875 22.0625 46.875H28.3125ZM29.9482 37.5C30.1598 35.4004 30.6969 33.4961 31.5596 31.7871C32.4222 30.0781 33.5859 28.4831 35.0508 27.002C36.4017 25.6348 37.4352 24.1455 38.1514 22.5342C38.8838 20.9066 39.25 19.1243 39.25 17.1875C39.25 15.2507 38.8757 13.4277 38.127 11.7188C37.3945 10.0098 36.3936 8.52051 35.124 7.25098C33.8545 5.98145 32.3652 4.98047 30.6562 4.24805C28.9473 3.49935 27.1243 3.125 25.1875 3.125C23.2507 3.125 21.4277 3.49935 19.7188 4.24805C18.0098 4.98047 16.5205 5.98145 15.251 7.25098C13.9814 8.52051 12.9723 10.0098 12.2236 11.7188C11.4912 13.4277 11.125 15.2507 11.125 17.1875C11.125 19.1243 11.4831 20.9066 12.1992 22.5342C12.9316 24.1455 13.9733 25.6348 15.3242 27.002C16.7891 28.4831 17.9528 30.0781 18.8154 31.7871C19.6781 33.4961 20.2152 35.4004 20.4268 37.5H29.9482Z" fill="#444444"/>
<path d="M147.75 17.1875C147.757 15.7371 147.361 14.3132 146.604 13.0754C145.848 11.8377 144.763 10.8348 143.469 10.1793C142.175 9.52368 140.724 9.24124 139.279 9.36356C137.833 9.48589 136.451 10.0081 135.285 10.8719C134.12 11.7356 133.218 12.9066 132.681 14.2539C132.144 15.6011 131.992 17.0714 132.243 18.5C132.494 19.9285 133.138 21.2591 134.102 22.3425C135.066 23.4259 136.313 24.2195 137.703 24.6344C137.19 25.6774 136.396 26.5566 135.411 27.1732C134.425 27.7899 133.287 28.1195 132.125 28.125H125.875C123.561 28.1331 121.333 29.002 119.625 30.5625V15.4656C121.522 15.0784 123.208 14.0006 124.355 12.4413C125.502 10.8819 126.03 8.95199 125.835 7.02574C125.641 5.09949 124.738 3.3141 123.302 2.01572C121.866 0.717341 119.999 -0.00153351 118.062 -0.00153351C116.126 -0.00153351 114.259 0.717341 112.823 2.01572C111.387 3.3141 110.484 5.09949 110.29 7.02574C110.095 8.95199 110.623 10.8819 111.77 12.4413C112.917 14.0006 114.603 15.0784 116.5 15.4656V34.5281C114.607 34.8902 112.911 35.9327 111.733 37.4588C110.556 38.985 109.977 40.8893 110.107 42.8126C110.237 44.7359 111.066 46.5453 112.438 47.8995C113.81 49.2536 115.63 50.0589 117.555 50.1635C119.48 50.268 121.376 49.6646 122.887 48.4671C124.397 47.2695 125.418 45.5606 125.755 43.6626C126.092 41.7647 125.723 39.8089 124.718 38.1642C123.712 36.5194 122.14 35.2995 120.297 34.7344C120.811 33.6925 121.605 32.8146 122.591 32.1991C123.576 31.5836 124.713 31.255 125.875 31.25H132.125C134.075 31.241 135.973 30.6242 137.556 29.4854C139.139 28.3467 140.328 26.7427 140.956 24.8969C142.829 24.6505 144.55 23.7337 145.799 22.3163C147.048 20.8988 147.741 19.0768 147.75 17.1875ZM113.375 7.8125C113.375 6.8854 113.65 5.97912 114.165 5.20826C114.68 4.43741 115.412 3.8366 116.269 3.48181C117.125 3.12703 118.068 3.0342 118.977 3.21507C119.886 3.39593 120.721 3.84238 121.377 4.49793C122.033 5.15349 122.479 5.98872 122.66 6.89801C122.841 7.8073 122.748 8.7498 122.393 9.60633C122.038 10.4629 121.438 11.1949 120.667 11.71C119.896 12.2251 118.99 12.5 118.062 12.5C116.819 12.5 115.627 12.0061 114.748 11.1271C113.869 10.248 113.375 9.0557 113.375 7.8125ZM122.75 42.1875C122.75 43.1146 122.475 44.0209 121.96 44.7917C121.445 45.5626 120.713 46.1634 119.856 46.5182C119 46.873 118.057 46.9658 117.148 46.7849C116.239 46.6041 115.403 46.1576 114.748 45.5021C114.092 44.8465 113.646 44.0113 113.465 43.102C113.284 42.1927 113.377 41.2502 113.732 40.3937C114.087 39.5371 114.687 38.805 115.458 38.29C116.229 37.7749 117.135 37.5 118.062 37.5C119.306 37.5 120.498 37.9939 121.377 38.8729C122.256 39.752 122.75 40.9443 122.75 42.1875ZM139.937 21.875C139.01 21.875 138.104 21.6001 137.333 21.085C136.562 20.5699 135.962 19.8379 135.607 18.9813C135.252 18.1248 135.159 17.1823 135.34 16.273C135.521 15.3637 135.967 14.5285 136.623 13.8729C137.278 13.2174 138.114 12.7709 139.023 12.5901C139.932 12.4092 140.875 12.502 141.731 12.8568C142.588 13.2116 143.32 13.8124 143.835 14.5833C144.35 15.3541 144.625 16.2604 144.625 17.1875C144.625 18.4307 144.131 19.623 143.252 20.5021C142.373 21.3811 141.181 21.875 139.937 21.875Z" fill="#444444"/>
<path fill-rule="evenodd" clip-rule="evenodd" d="M184.125 3.125L187.25 0H202.875L206 3.125V18.75L202.875 21.875H187.25L184.125 18.75V3.125ZM187.25 3.125V18.75H202.875V3.125H187.25ZM156 31.25V12.5L159.125 9.37499H174.75L177.875 12.5V28.125L176.312 29.6875L176.313 29.6876L177.875 28.125H193.5L196.625 31.25V46.875L193.5 50H177.875H174.75V49.9997L174.75 50H159.125L156 46.875V31.25ZM159.125 46.875V31.25H174.75V46.875H159.125ZM177.875 46.875V31.25H193.5V46.875H177.875ZM159.125 28.125V12.5H174.75V28.125H159.125Z" fill="#444444"/>
<path d="M74.7917 28.125L72.0417 30.875C71.6234 29.1911 70.6537 27.6957 69.2869 26.6269C67.9202 25.5581 66.235 24.9774 64.5 24.9774C62.765 24.9774 61.0798 25.5581 59.7131 26.6269C58.3463 27.6957 57.3766 29.1911 56.9583 30.875L54.2083 28.125L52 30.3333L55.5833 33.9167L55.125 34.375V37.5H52V40.625H55.125V40.7917C55.2844 41.8097 55.5714 42.8037 55.9792 43.75L52 47.7917L54.2083 50L57.6458 46.5625C58.4637 47.606 59.5025 48.4553 60.6875 49.0497C61.8726 49.644 63.1746 49.9686 64.5 50C65.8254 49.9686 67.1274 49.644 68.3125 49.0497C69.4976 48.4553 70.5363 47.606 71.3542 46.5625L74.7917 50L77 47.7917L73.0208 43.75C73.4337 42.7838 73.7208 41.7685 73.875 40.7292V40.5208H77V37.5H73.875V34.375L73.4167 33.9167L77 30.3333L74.7917 28.125ZM64.5 28.125C65.7432 28.125 66.9355 28.6189 67.8146 29.4979C68.6936 30.377 69.1875 31.5693 69.1875 32.8125H59.8125C59.8125 31.5693 60.3064 30.377 61.1854 29.4979C62.0645 28.6189 63.2568 28.125 64.5 28.125V28.125ZM70.75 40.625C70.5974 42.2309 69.8899 43.7335 68.7492 44.8742C67.6085 46.0149 66.1059 46.7224 64.5 46.875C62.8941 46.7224 61.3915 46.0149 60.2508 44.8742C59.1101 43.7335 58.4026 42.2309 58.25 40.625V35.9375H70.75V40.625ZM101.5 20V22.625L80.125 36.1875V32.5L97.8333 21.3125L70.75 4.16667V23.875C69.798 23.2063 68.7422 22.6995 67.625 22.375V1.3125L70 0L101.5 20Z" fill="#444444"/>
<path d="M25.1875 53C26.7663 53 28.2881 53.2035 29.7529 53.6104C31.2178 54.0173 32.585 54.5951 33.8545 55.3438C35.1403 56.0924 36.304 56.9876 37.3457 58.0293C38.3874 59.071 39.2826 60.2347 40.0312 61.5205C40.7799 62.79 41.3577 64.1572 41.7646 65.6221C42.1716 67.0869 42.375 68.6087 42.375 70.1875C42.375 72.5475 41.9274 74.7367 41.0322 76.7549C40.137 78.7731 38.8594 80.6042 37.1992 82.248C35.8483 83.5827 34.8066 85.0719 34.0742 86.7158C33.3581 88.3597 33 90.1419 33 92.0625V98.3125C33 98.9635 32.8779 99.5739 32.6338 100.144C32.3896 100.713 32.056 101.21 31.6328 101.633C31.2096 102.056 30.7132 102.39 30.1436 102.634C29.5739 102.878 28.9635 103 28.3125 103H22.0625C21.4115 103 20.8011 102.878 20.2314 102.634C19.6618 102.39 19.1654 102.056 18.7422 101.633C18.319 101.21 17.9854 100.713 17.7412 100.144C17.4971 99.5739 17.375 98.9635 17.375 98.3125V92.0625C17.375 90.1419 17.0088 88.3597 16.2764 86.7158C15.5602 85.0719 14.5267 83.5827 13.1758 82.248C11.5156 80.6042 10.238 78.7731 9.34277 76.7549C8.44759 74.7367 8 72.5475 8 70.1875C8 68.6087 8.20345 67.0869 8.61035 65.6221C9.01725 64.1572 9.59505 62.79 10.3438 61.5205C11.0924 60.2347 11.9876 59.071 13.0293 58.0293C14.071 56.9876 15.2266 56.0924 16.4961 55.3438C17.7819 54.5951 19.1572 54.0173 20.6221 53.6104C22.0869 53.2035 23.6087 53 25.1875 53ZM28.3125 99.875C28.7357 99.875 29.1019 99.7204 29.4111 99.4111C29.7204 99.1019 29.875 98.7357 29.875 98.3125V93.625H20.5V98.3125C20.5 98.7357 20.6546 99.1019 20.9639 99.4111C21.2731 99.7204 21.6393 99.875 22.0625 99.875H28.3125ZM29.9482 90.5C30.1598 88.4004 30.6969 86.4961 31.5596 84.7871C32.4222 83.0781 33.5859 81.4831 35.0508 80.002C36.4017 78.6348 37.4352 77.1455 38.1514 75.5342C38.8838 73.9066 39.25 72.1243 39.25 70.1875C39.25 68.2507 38.8757 66.4277 38.127 64.7188C37.3945 63.0098 36.3936 61.5205 35.124 60.251C33.8545 58.9814 32.3652 57.9805 30.6562 57.248C28.9473 56.4993 27.1243 56.125 25.1875 56.125C23.2507 56.125 21.4277 56.4993 19.7188 57.248C18.0098 57.9805 16.5205 58.9814 15.251 60.251C13.9814 61.5205 12.9723 63.0098 12.2236 64.7188C11.4912 66.4277 11.125 68.2507 11.125 70.1875C11.125 72.1243 11.4831 73.9066 12.1992 75.5342C12.9316 77.1455 13.9733 78.6348 15.3242 80.002C16.7891 81.4831 17.9528 83.0781 18.8154 84.7871C19.6781 86.4961 20.2152 88.4004 20.4268 90.5H29.9482Z" fill="#2E3192"/>
<path d="M147.75 70.1875C147.757 68.7371 147.361 67.3132 146.604 66.0755C145.848 64.8377 144.763 63.8349 143.469 63.1793C142.175 62.5237 140.724 62.2413 139.279 62.3636C137.833 62.4859 136.451 63.0082 135.285 63.8719C134.12 64.7356 133.218 65.9066 132.681 67.2539C132.144 68.6011 131.992 70.0714 132.243 71.5C132.494 72.9286 133.138 74.2591 134.102 75.3425C135.066 76.426 136.313 77.2195 137.703 77.6344C137.19 78.6774 136.396 79.5566 135.411 80.1732C134.425 80.7899 133.287 81.1195 132.125 81.125H125.875C123.561 81.1332 121.333 82.002 119.625 83.5625V68.4656C121.522 68.0784 123.208 67.0007 124.355 65.4413C125.502 63.8819 126.03 61.952 125.835 60.0258C125.641 58.0995 124.738 56.3141 123.302 55.0157C121.866 53.7174 119.999 52.9985 118.062 52.9985C116.126 52.9985 114.259 53.7174 112.823 55.0157C111.387 56.3141 110.484 58.0995 110.29 60.0258C110.095 61.952 110.623 63.8819 111.77 65.4413C112.917 67.0007 114.603 68.0784 116.5 68.4656V87.5281C114.607 87.8903 112.911 88.9327 111.733 90.4589C110.556 91.985 109.977 93.8893 110.107 95.8126C110.237 97.736 111.066 99.5453 112.438 100.899C113.81 102.254 115.63 103.059 117.555 103.163C119.48 103.268 121.376 102.665 122.887 101.467C124.397 100.27 125.418 98.5606 125.755 96.6626C126.092 94.7647 125.723 92.8089 124.718 91.1642C123.712 89.5195 122.14 88.2995 120.297 87.7344C120.811 86.6926 121.605 85.8146 122.591 85.1991C123.576 84.5837 124.713 84.255 125.875 84.25H132.125C134.075 84.241 135.973 83.6242 137.556 82.4855C139.139 81.3467 140.328 79.7428 140.956 77.8969C142.829 77.6506 144.55 76.7338 145.799 75.3163C147.048 73.8989 147.741 72.0768 147.75 70.1875ZM113.375 60.8125C113.375 59.8854 113.65 58.9791 114.165 58.2083C114.68 57.4374 115.412 56.8366 116.269 56.4818C117.125 56.1271 118.068 56.0342 118.977 56.2151C119.886 56.396 120.721 56.8424 121.377 57.498C122.033 58.1535 122.479 58.9888 122.66 59.898C122.841 60.8073 122.748 61.7498 122.393 62.6064C122.038 63.4629 121.438 64.195 120.667 64.71C119.896 65.2251 118.99 65.5 118.062 65.5C116.819 65.5 115.627 65.0062 114.748 64.1271C113.869 63.248 113.375 62.0557 113.375 60.8125ZM122.75 95.1875C122.75 96.1146 122.475 97.0209 121.96 97.7918C121.445 98.5626 120.713 99.1634 119.856 99.5182C119 99.873 118.057 99.9658 117.148 99.785C116.239 99.6041 115.403 99.1576 114.748 98.5021C114.092 97.8465 113.646 97.0113 113.465 96.102C113.284 95.1927 113.377 94.2502 113.732 93.3937C114.087 92.5372 114.687 91.8051 115.458 91.29C116.229 90.7749 117.135 90.5 118.062 90.5C119.306 90.5 120.498 90.9939 121.377 91.873C122.256 92.752 122.75 93.9443 122.75 95.1875ZM139.937 74.875C139.01 74.875 138.104 74.6001 137.333 74.085C136.562 73.57 135.962 72.8379 135.607 71.9813C135.252 71.1248 135.159 70.1823 135.34 69.273C135.521 68.3638 135.967 67.5285 136.623 66.873C137.278 66.2174 138.114 65.771 139.023 65.5901C139.932 65.4092 140.875 65.5021 141.731 65.8568C142.588 66.2116 143.32 66.8124 143.835 67.5833C144.35 68.3541 144.625 69.2604 144.625 70.1875C144.625 71.4307 144.131 72.623 143.252 73.5021C142.373 74.3812 141.181 74.875 139.937 74.875Z" fill="#F42534"/>
<path fill-rule="evenodd" clip-rule="evenodd" d="M184.125 56.125L187.25 53H202.875L206 56.125V71.75L202.875 74.875H187.25L184.125 71.75V56.125ZM187.25 56.125V71.75H202.875V56.125H187.25ZM156 84.25V65.5L159.125 62.375H174.75L177.875 65.5V81.125L176.312 82.6875L176.313 82.6876L177.875 81.125H193.5L196.625 84.25V99.875L193.5 103H177.875H174.75V103L174.75 103H159.125L156 99.875V84.25ZM159.125 99.875V84.25H174.75V99.875H159.125ZM177.875 99.875V84.25H193.5V99.875H177.875ZM159.125 81.125V65.5H174.75V81.125H159.125Z" fill="black"/>
<path d="M74.7917 81.125L72.0417 83.875C71.6234 82.1911 70.6537 80.6957 69.2869 79.6269C67.9202 78.5581 66.235 77.9774 64.5 77.9774C62.765 77.9774 61.0798 78.5581 59.7131 79.6269C58.3463 80.6957 57.3766 82.1911 56.9583 83.875L54.2083 81.125L52 83.3333L55.5833 86.9167L55.125 87.375V90.5H52V93.625H55.125V93.7917C55.2844 94.8097 55.5714 95.8037 55.9792 96.75L52 100.792L54.2083 103L57.6458 99.5625C58.4637 100.606 59.5025 101.455 60.6875 102.05C61.8726 102.644 63.1746 102.969 64.5 103C65.8254 102.969 67.1274 102.644 68.3125 102.05C69.4976 101.455 70.5363 100.606 71.3542 99.5625L74.7917 103L77 100.792L73.0208 96.75C73.4337 95.7838 73.7208 94.7685 73.875 93.7292V93.5208H77V90.5H73.875V87.375L73.4167 86.9167L77 83.3333L74.7917 81.125ZM64.5 81.125C65.7432 81.125 66.9355 81.6189 67.8146 82.4979C68.6936 83.377 69.1875 84.5693 69.1875 85.8125H59.8125C59.8125 84.5693 60.3064 83.377 61.1854 82.4979C62.0645 81.6189 63.2568 81.125 64.5 81.125V81.125ZM70.75 93.625C70.5974 95.2309 69.8899 96.7335 68.7492 97.8742C67.6085 99.0149 66.1059 99.7224 64.5 99.875C62.8941 99.7224 61.3915 99.0149 60.2508 97.8742C59.1101 96.7335 58.4026 95.2309 58.25 93.625V88.9375H70.75V93.625ZM101.5 73V75.625L80.125 89.1875V85.5L97.8333 74.3125L70.75 57.1667V76.875C69.798 76.2063 68.7422 75.6995 67.625 75.375V54.3125L70 53L101.5 73Z" fill="#37B34A"/>
</g>
<defs>
<clipPath id="clip0">
<rect width="206" height="104" fill="white"/>
</clipPath>
</defs>
</svg>
