<?xml version="1.0" encoding="utf-8"?>
<!-- Generator: Adobe Illustrator 23.0.6, SVG Export Plug-In . SVG Version: 6.00 Build 0)  -->
<svg version="1.1" id="Layer_1" xmlns="http://www.w3.org/2000/svg" xmlns:xlink="http://www.w3.org/1999/xlink" x="0px" y="0px"
	 viewBox="0 0 32 32" style="enable-background:new 0 0 32 32;" xml:space="preserve">
<g>
	<path d="M32,16c0,1.46-0.19,2.88-0.58,4.25s-0.94,2.67-1.66,3.88s-1.59,2.32-2.62,3.32S24.97,29.3,23.7,30H28v2h-8v-8h2v4.59
		c1.22-0.57,2.32-1.3,3.3-2.18s1.82-1.87,2.52-2.96s1.23-2.27,1.61-3.54S30,17.34,30,16c0-1.28-0.17-2.52-0.5-3.71
		s-0.8-2.31-1.41-3.34s-1.34-1.98-2.2-2.84s-1.8-1.59-2.84-2.2S20.9,2.83,19.71,2.5S17.28,2,16,2s-2.52,0.17-3.71,0.5
		S9.98,3.3,8.95,3.91s-1.98,1.34-2.84,2.2s-1.59,1.8-2.2,2.84S2.83,11.1,2.5,12.29S2,14.72,2,16c0,1.56,0.25,3.07,0.75,4.52
		s1.2,2.77,2.11,3.95s1.99,2.22,3.25,3.09s2.65,1.51,4.16,1.93l-0.53,1.92c-1.15-0.32-2.23-0.76-3.26-1.31s-1.97-1.2-2.84-1.94
		s-1.65-1.57-2.35-2.48s-1.29-1.89-1.77-2.92s-0.86-2.11-1.12-3.25S0,17.2,0,16c0-1.47,0.19-2.89,0.57-4.25s0.92-2.64,1.62-3.82
		S3.72,5.67,4.7,4.7s2.05-1.81,3.23-2.51s2.46-1.24,3.82-1.62S14.53,0,16,0s2.89,0.19,4.25,0.57s2.64,0.92,3.82,1.62
		s2.26,1.53,3.23,2.51s1.81,2.05,2.51,3.23s1.24,2.46,1.62,3.82S32,14.53,32,16z M24,16l-12,6.92V9.08L24,16z M14,19.47L20,16
		l-6-3.47V19.47z"/>
</g>
</svg>
