<svg width="24" height="24" viewBox="0 0 24 24" fill="none" xmlns="http://www.w3.org/2000/svg">
<path fill-rule="evenodd" clip-rule="evenodd" d="M11.5774 0.152608C11.9236 -0.0534589 12.3511 -0.050642 12.6947 0.159878L21.4616 5.5315C22.1821 5.97295 22.1789 7.04726 21.4555 7.48405L13.9768 12L18.9454 15.0002C17.9406 15.0092 16.9947 15.2652 16.1656 15.7103L11.9989 13.1943L4.88988 17.487L12.1234 21.7925L13.0052 21.2522C13.036 21.9973 13.2027 22.7074 13.4812 23.3582L12.6947 23.8401C12.3511 24.0506 11.9236 24.0535 11.5774 23.8474L2.55045 18.4745C1.81909 18.0392 1.81595 16.9546 2.54448 16.5146L10.0211 12L2.54448 7.48536C1.81595 7.04544 1.81909 5.96085 2.55045 5.52553L11.5774 0.152608ZM4.88987 6.51298L11.9989 10.8057L19.1293 6.50012L12.1234 2.2075L4.88987 6.51298Z" fill="#3C3C3C"/>
<path d="M18 18V20H16V22H18V24H20V22H22V20H20V18H18V18Z" fill="#3C3C3C"/>
</svg>
