<svg width="12" height="12" viewBox="0 0 12 12" xmlns="http://www.w3.org/2000/svg">
<path fill-rule="evenodd" clip-rule="evenodd" d="M1.5 1.95C1.5 1.70147 1.70147 1.5 1.95 1.5H3.75V1.125C3.75 0.50368 4.25368 0 4.875 0H7.125C7.74632 0 8.25 0.50368 8.25 1.125V1.5H10.05C10.2985 1.5 10.5 1.70147 10.5 1.95V3H1.5V1.95ZM7.5 1.5H4.5V1.125C4.5 0.917893 4.66789 0.75 4.875 0.75H7.125C7.33211 0.75 7.5 0.917893 7.5 1.125V1.5ZM2.25 3.75H9.75V11.25C9.75 11.6642 9.41421 12 9 12H3C2.58579 12 2.25 11.6642 2.25 11.25V3.75Z"/>
</svg>
