<svg width="24" height="24" viewBox="0 0 24 24" fill="none" xmlns="http://www.w3.org/2000/svg">
<path d="M10.8216 4.63366L11 3.14427H9.45405L9.79099 0.128714L7.84865 0L7.49189 3.14427H4.28108L4.61802 0.128714L2.67568 0L2.31892 3.14427H0.753153L0.594595 4.63366H2.14054L1.74414 8.23762H0.178378L0 9.72702H1.56577L1.20901 12.8713L3.15135 13L3.52793 9.72702H6.73874L6.38198 12.8713L8.32433 13L8.7009 9.72702H10.2468L10.4252 8.23762H8.85946L9.27568 4.63366H10.8216ZM6.91712 8.23762H3.68649L4.1027 4.63366H7.31351L6.91712 8.23762Z" transform="translate(6.5 5.5)" fill="#32BCAD"/>
</svg>
