<svg width="24" height="24" viewBox="0 0 24 24" fill="none" xmlns="http://www.w3.org/2000/svg">
<path fill-rule="evenodd" clip-rule="evenodd" d="M15.2998 8C15.2998 12.0312 12.0312 15.2998 8 15.2998C3.96875 15.2998 0.700195 12.0312 0.700195 8C0.700195 3.96875 3.96875 0.700195 8 0.700195C12.0312 0.700195 15.2998 3.96875 15.2998 8ZM16 8C16 12.418 12.418 16 8 16C3.58203 16 0 12.418 0 8C0 3.58203 3.58203 0 8 0C12.418 0 16 3.58203 16 8ZM7.65039 13.7148V8.34961H2.85742V7.65039H7.65039V2.28613H8.34961V7.65039H13.7148V8.34961H8.34961V13.7148H7.65039Z" transform="translate(4 4)" fill="#666666"/>
</svg>
