<svg width="24" height="24" viewBox="0 0 24 24" fill="none" xmlns="http://www.w3.org/2000/svg">
<path fill-rule="evenodd" clip-rule="evenodd" d="M0.90918 0.90918H5.45459V5.4541H3.18164H0.90918V0.90918ZM0 0H0.90918H5.45459H6.36377V0.90918V5.4541V6.36328H5.45459H3.63623V10.9092H8.63623V11.8174H3.63623V17.2725H8.63623V18.1816H3.18164H2.72705V17.7266V11.3633V6.36328H0.90918H0V5.4541V0.90918V0ZM18.1816 10H10.9092C10.4067 10 10 10.4072 10 10.9092V11.8184C10 12.3203 10.4067 12.7275 10.9092 12.7275H18.1816C18.6836 12.7275 19.0908 12.3203 19.0908 11.8184V10.9092C19.0908 10.4072 18.6836 10 18.1816 10ZM10.9092 9.09082C9.90479 9.09082 9.09082 9.90527 9.09082 10.9092V11.8184C9.09082 12.8223 9.90479 13.6367 10.9092 13.6367H18.1816C19.186 13.6367 20 12.8223 20 11.8184V10.9092C20 9.90527 19.186 9.09082 18.1816 9.09082H10.9092ZM10.9092 16.3633H18.1816C18.6836 16.3633 19.0908 16.7705 19.0908 17.2725V18.1816C19.0908 18.6836 18.6836 19.0908 18.1816 19.0908H10.9092C10.4067 19.0908 10 18.6836 10 18.1816V17.2725C10 16.7705 10.4067 16.3633 10.9092 16.3633ZM9.09082 17.2725C9.09082 16.2686 9.90479 15.4541 10.9092 15.4541H18.1816C19.186 15.4541 20 16.2686 20 17.2725V18.1816C20 19.1855 19.186 20 18.1816 20H10.9092C9.90479 20 9.09082 19.1855 9.09082 18.1816V17.2725Z" transform="translate(2 2)" fill="#3C3C3C"/>
</svg>
