<svg width="24" height="24" viewBox="0 0 24 24" fill="none" xmlns="http://www.w3.org/2000/svg">
<path d="M4.86956 0C3.19565 0 1.80435 0.5 0.717391 1.15217L1.32609 2.36957C2.43478 1.78261 3.41304 1.45652 4.73913 1.45652C6.3913 1.45652 7.17391 2.23913 7.17391 3.82609V4.76087H4.65217C1.78261 4.76087 0 6.06522 0 8.06522V8.80435C0 10.8043 1.76087 12 3.71739 12C5.15217 12 6.36956 11.5217 7.36956 10.4783L7.52174 11.7391H9V3.86957C9 1.52174 7.67391 0 4.86956 0ZM4.02174 10.5652C2.65217 10.5652 1.82609 9.82609 1.82609 8.67391V8.19565C1.82609 6.78261 2.8913 6.04348 4.80435 6.04348H7.17391V9.08696C6.39131 10.087 5.26087 10.5652 4.02174 10.5652Z" transform="translate(7 6)" fill="#0696D7"/>
</svg>
