<svg width="16" height="16" viewBox="0 0 16 16" xmlns="http://www.w3.org/2000/svg">
<path fill-rule="evenodd" clip-rule="evenodd" d="M0 8C1.57227 10.9854 4.62793 12.8952 8 13C11.3721 12.8952 14.4277 10.9854 16 8C14.4199 5.02188 11.3691 3.11508 8 3C4.63281 3.12323 1.58594 5.02771 0 8ZM5 8C5 6.34314 6.34277 5 8 5C9.65723 5 11 6.34314 11 8C11 9.65686 9.65723 11 8 11C6.34277 11 5 9.65686 5 8ZM8 10C6.89551 10 6 9.10458 6 8C6 6.89542 6.89551 6 8 6C9.10449 6 10 6.89542 10 8C10 9.10458 9.10449 10 8 10Z"/>
</svg>
