<?xml version="1.0" encoding="UTF-8" standalone="no"?><!DOCTYPE svg PUBLIC "-//W3C//DTD SVG 1.1//EN" "http://www.w3.org/Graphics/SVG/1.1/DTD/svg11.dtd"><!-- Generated by graphviz version 2.40.1 (20161225.0304)
 --><!-- Title: G Pages: 1 --><svg xmlns="http://www.w3.org/2000/svg" xmlns:xlink="http://www.w3.org/1999/xlink" width="217pt" height="260pt" viewBox="0.00 0.00 217.31 260.00">
<g id="graph0" class="graph" transform="scale(1 1) rotate(0) translate(4 256)">
<title>G</title>
<polygon fill="#ffffff" stroke="transparent" points="-4,4 -4,-256 213.3119,-256 213.3119,4 -4,4"/>
<!-- root -->
<g id="node1" class="node">
<title>root</title>
<ellipse fill="none" stroke="#000000" cx="75.176" cy="-234" rx="28.4127" ry="18"/>
<text text-anchor="middle" x="75.176" y="-229.8" font-family="Times,serif" font-size="14.00" fill="#000000">both</text>
</g>
<!-- l -->
<g id="node2" class="node">
<title>l</title>
<ellipse fill="none" stroke="#000000" cx="35.176" cy="-162" rx="35.3528" ry="18"/>
<text text-anchor="middle" x="35.176" y="-157.8" font-family="Times,serif" font-size="14.00" fill="#000000">empty</text>
</g>
<!-- root&#45;&gt;l -->
<g id="edge1" class="edge">
<title>root-&gt;l</title>
<path fill="none" stroke="#000000" d="M65.6965,-216.937C60.9345,-208.3654 55.0601,-197.7914 49.7407,-188.2165"/>
<polygon fill="#000000" stroke="#000000" points="52.7813,-186.4825 44.8652,-179.4407 46.6622,-189.882 52.7813,-186.4825"/>
</g>
<!-- r -->
<g id="node3" class="node">
<title>r</title>
<ellipse fill="none" stroke="#000000" cx="116.176" cy="-162" rx="28.4127" ry="18"/>
<text text-anchor="middle" x="116.176" y="-157.8" font-family="Times,serif" font-size="14.00" fill="#000000">both</text>
</g>
<!-- root&#45;&gt;r -->
<g id="edge2" class="edge">
<title>root-&gt;r</title>
<path fill="none" stroke="#000000" d="M84.8924,-216.937C89.8453,-208.2393 95.9721,-197.4799 101.4873,-187.7948"/>
<polygon fill="#000000" stroke="#000000" points="104.6223,-189.3623 106.5293,-178.9405 98.5394,-185.8984 104.6223,-189.3623"/>
</g>
<!-- rl -->
<g id="node4" class="node">
<title>rl</title>
<ellipse fill="none" stroke="#000000" cx="76.176" cy="-90" rx="33.045" ry="18"/>
<text text-anchor="middle" x="76.176" y="-85.8" font-family="Times,serif" font-size="14.00" fill="#000000">dense</text>
</g>
<!-- r&#45;&gt;rl -->
<g id="edge3" class="edge">
<title>r-&gt;rl</title>
<path fill="none" stroke="#000000" d="M106.6965,-144.937C101.9345,-136.3654 96.0601,-125.7914 90.7407,-116.2165"/>
<polygon fill="#000000" stroke="#000000" points="93.7813,-114.4825 85.8652,-107.4407 87.6622,-117.882 93.7813,-114.4825"/>
</g>
<!-- rr -->
<g id="node5" class="node">
<title>rr</title>
<ellipse fill="none" stroke="#000000" cx="156.176" cy="-90" rx="29.0529" ry="18"/>
<text text-anchor="middle" x="156.176" y="-85.8" font-family="Times,serif" font-size="14.00" fill="#000000">right</text>
</g>
<!-- r&#45;&gt;rr -->
<g id="edge4" class="edge">
<title>r-&gt;rr</title>
<path fill="none" stroke="#000000" d="M125.6554,-144.937C130.4174,-136.3654 136.2919,-125.7914 141.6112,-116.2165"/>
<polygon fill="#000000" stroke="#000000" points="144.6898,-117.882 146.4867,-107.4407 138.5707,-114.4825 144.6898,-117.882"/>
</g>
<!-- rrr -->
<g id="node6" class="node">
<title>rrr</title>
<ellipse fill="none" stroke="#000000" cx="156.176" cy="-18" rx="53.2723" ry="18"/>
<text text-anchor="middle" x="156.176" y="-13.8" font-family="Times,serif" font-size="14.00" fill="#000000">Key: [1, 2]</text>
</g>
<!-- rr&#45;&gt;rrr -->
<g id="edge5" class="edge">
<title>rr-&gt;rrr</title>
<path fill="none" stroke="#000000" d="M156.176,-71.8314C156.176,-64.131 156.176,-54.9743 156.176,-46.4166"/>
<polygon fill="#000000" stroke="#000000" points="159.6761,-46.4132 156.176,-36.4133 152.6761,-46.4133 159.6761,-46.4132"/>
</g>
</g>
</svg>