<?xml version="1.0" encoding="utf-8"?>
<!-- Generator: Adobe Illustrator 16.2.0, SVG Export Plug-In . SVG Version: 6.00 Build 0)  -->
<!DOCTYPE svg PUBLIC "-//W3C//DTD SVG 1.1//EN" "http://www.w3.org/Graphics/SVG/1.1/DTD/svg11.dtd">
<svg version="1.1" id="Layer_1" xmlns="http://www.w3.org/2000/svg" xmlns:xlink="http://www.w3.org/1999/xlink" x="0px" y="0px"
	 width="32px" height="32px" viewBox="0 0 32 32" enable-background="new 0 0 32 32" xml:space="preserve">
<g>
	<path fill="#4E7FAF" d="M24.725,12.13c0.005-0.005,0.006-0.016,0.006-0.021c0.088-0.298,0.146-0.555,0.188-0.775
		c0.002-0.03,0.008-0.058,0.011-0.083c0.094-0.55,0.067-0.83,0.067-0.83c0-4.664-3.856-8.451-8.617-8.451
		c-4.758,0-8.617,3.787-8.617,8.451c0,0-0.023,0.278,0.07,0.826c0.003,0.03,0.008,0.062,0.011,0.092
		c0.039,0.205,0.092,0.445,0.171,0.713c0.01,0.037,0.017,0.069,0.025,0.103c0.336,1.145,1.162,2.863,2.715,5.171
		C12.579,20.048,13,20.605,13,22.08v0.756C13,23.379,13.225,24,13.764,24H19c0.54,0,1-0.621,1-1.164v-0.824
		c0-1.518,0.33-2.012,2.127-4.687C23.688,15.001,24.399,13.274,24.725,12.13"/>
	<path fill="#4E7FAF" d="M19.959,26.879c0-0.707-0.411-0.854-0.411-0.854C19.404,25.902,19.13,26,18.941,26h-5.117
		c-0.192,0-0.464-0.098-0.609,0.025c0,0-0.408,0.244-0.408,0.951c0,0.299,0.051,0.407,0.051,0.407
		c0.059,0.179,0.052,0.449-0.014,0.625c0,0-0.037,0.09-0.037,0.352c0,0.621,0.398,0.909,0.398,0.909
		c0.149,0.111,0.354,0.199,0.45,0.199c0.094,0,0.252,0.131,0.352,0.292l0.542,0.915C14.646,30.837,14.881,31,15.07,31h2.623
		c0.188,0,0.425-0.164,0.524-0.325l0.541-0.9c0.098-0.161,0.257-0.301,0.354-0.301c0.094,0,0.296-0.095,0.449-0.206
		c0,0,0.396-0.297,0.396-0.918c0-0.262-0.037-0.364-0.037-0.364c-0.065-0.176-0.07-0.472-0.013-0.649
		C19.909,27.336,19.959,27.178,19.959,26.879"/>
</g>
</svg>
