<svg version="1.1" id="Layer_1" xmlns="http://www.w3.org/2000/svg" xmlns:xlink="http://www.w3.org/1999/xlink" x="0px" y="0px"
	 width="32px" height="32px" viewBox="0 0 32 32" enable-background="new 0 0 32 32" xml:space="preserve">
<g>
	<path fill="#4E7FAF" d="M22.753,8.005L22.753,8.005L7.245,7.991C6.557,7.99,6,7.431,6,6.744c0-0.689,0.558-1.247,1.246-1.247
		c0,0,0,0,0.001,0l15.507,0.013C23.443,5.511,24,6.071,24,6.758C24,7.447,23.441,8.005,22.753,8.005L22.753,8.005z"/>
</g>
<g>
	<path fill="#4E7FAF" d="M16.776,4.646c-0.002,0-0.002,0-0.002,0L13.34,4.633c-0.459-0.002-0.829-0.376-0.828-0.834
		c0.001-0.458,0.386-0.812,0.843-0.812c0.001,0,0.001,0,0.003,0L16.791,3c0.458,0.001,0.817,0.359,0.815,0.817
		C17.605,4.275,17.233,4.646,16.776,4.646L16.776,4.646z"/>
</g>
<path fill="#4E7FAF" d="M23,9h-1.308c-0.225,0-0.474,0-0.738,0H9.262C8.986,9,8.729,9,8.499,9H7l1.143,15.862
	C8.195,25.896,9.085,27,10.12,27h9.973c1.037,0,1.925-1.033,1.978-2.067L23,9z M11.271,24c-0.01,0-0.021,0-0.03,0
	c-0.507,0-0.925-0.323-0.942-0.832l-0.36-11.215C9.927,11.579,10.138,11,10.448,11h0.854c0.307,0,0.508,0.559,0.521,0.92
	l0.36,11.125C12.199,23.566,11.792,24,11.271,24z M15.979,23.059c0,0.521-0.422,0.941-0.942,0.941c0,0,0,0-0.001,0
	c-0.521-0.001-0.94-0.423-0.94-0.942l0.012-11.161c0-0.312,0.162-0.896,0.395-0.896h1.094c0.233,0,0.395,0.585,0.395,0.897
	L15.979,23.059z M19.686,23.166C19.67,23.677,19.251,24,18.744,24c-0.011,0-0.021,0-0.031,0c-0.52,0-0.927-0.374-0.911-0.894
	l0.359-11.214C18.173,11.534,18.409,11,18.707,11h0.832c0.307,0,0.517,0.571,0.506,0.942L19.686,23.166z"/>
</svg>
