<?xml version="1.0" encoding="utf-8"?>
<!-- Generator: Adobe Illustrator 16.2.0, SVG Export Plug-In . SVG Version: 6.00 Build 0)  -->
<!DOCTYPE svg PUBLIC "-//W3C//DTD SVG 1.1//EN" "http://www.w3.org/Graphics/SVG/1.1/DTD/svg11.dtd">
<svg version="1.1" id="Layer_1" xmlns="http://www.w3.org/2000/svg" xmlns:xlink="http://www.w3.org/1999/xlink" x="0px" y="0px"
	 width="32px" height="32px" viewBox="0 0 32 32" enable-background="new 0 0 32 32" xml:space="preserve">
<g>
	<path fill="#4E7FAF" d="M3.409,17.688l-0.847-0.92c-0.227-0.245-0.209-0.628,0.033-0.856l2.458-2.282
		c0.112-0.103,0.259-0.16,0.411-0.16c0.17,0,0.329,0.069,0.442,0.19l6.753,7.266L24.268,5.99c0.117-0.147,0.284-0.231,0.477-0.231
		c0.14,0,0.268,0.042,0.374,0.127l2.65,2.058c0.126,0.099,0.207,0.239,0.226,0.401c0.023,0.163-0.024,0.322-0.118,0.447
		l-14.92,19.178L3.409,17.688z"/>
</g>
</svg>
