<?xml version="1.0" encoding="utf-8"?>
<!-- Generator: Adobe Illustrator 16.2.0, SVG Export Plug-In . SVG Version: 6.00 Build 0)  -->
<!DOCTYPE svg PUBLIC "-//W3C//DTD SVG 1.1//EN" "http://www.w3.org/Graphics/SVG/1.1/DTD/svg11.dtd">
<svg version="1.1" id="Layer_1" xmlns="http://www.w3.org/2000/svg" xmlns:xlink="http://www.w3.org/1999/xlink" x="0px" y="0px"
	 width="16px" height="16px" viewBox="0 0 16 16" enable-background="new 0 0 16 16" xml:space="preserve">
<g>
	<path fill="#666666" d="M8.008,1.974c3.322,0,6.024,2.704,6.024,6.027c0,3.322-2.702,6.024-6.024,6.024s-6.025-2.702-6.025-6.024
		C1.982,4.678,4.686,1.974,8.008,1.974 M8.008,0.974c-3.882,0-7.025,3.146-7.025,7.027c0,3.879,3.144,7.024,7.025,7.024
		c3.878,0,7.024-3.146,7.024-7.024C15.032,4.12,11.886,0.974,8.008,0.974L8.008,0.974z"/>
</g>
<path fill="#666666" d="M10.565,5.591l-0.047-0.049L9.835,6.231L9.789,6.323l0.032,0.033c0.415,0.455,0.647,1.038,0.65,1.642
	c0.009,1.36-1.09,2.473-2.464,2.48c-1.351,0-2.456-1.098-2.465-2.451C5.538,7.496,5.714,6.979,6.052,6.536l0.214-0.284l0.713,0.817
	l0.535-2.608L4.866,4.649L5.57,5.457l-0.18,0.199c-0.59,0.655-0.914,1.5-0.909,2.379c0.012,1.932,1.594,3.504,3.526,3.504h0.021
	c1.944-0.011,3.516-1.604,3.506-3.548C11.529,7.099,11.186,6.246,10.565,5.591z"/>
</svg>
