<?xml version="1.0" encoding="utf-8"?>
<!-- Generator: Adobe Illustrator 23.0.6, SVG Export Plug-In . SVG Version: 6.00 Build 0)  -->
<svg version="1.1" id="Layer_1" xmlns="http://www.w3.org/2000/svg" xmlns:xlink="http://www.w3.org/1999/xlink" x="0px" y="0px"
	 viewBox="0 0 32 32" style="enable-background:new 0 0 32 32;" xml:space="preserve">
<g>
	<path d="M32,5.23c0,0.69-0.13,1.35-0.39,2s-0.64,1.22-1.14,1.72L9.89,29.53L0,32l2.47-9.89L23.05,1.53c0.5-0.5,1.07-0.88,1.72-1.14
		S26.08,0,26.77,0c0.72,0,1.4,0.14,2.03,0.41s1.19,0.65,1.66,1.13s0.85,1.03,1.13,1.66S32,4.52,32,5.23z M2.75,29.25l5.14-1.28
		c-0.1-0.48-0.27-0.93-0.51-1.36s-0.52-0.81-0.85-1.14s-0.71-0.62-1.14-0.85s-0.88-0.4-1.36-0.51L2.75,29.25z M5.09,22.31
		c1.1,0.36,2.05,0.95,2.85,1.74s1.38,1.75,1.74,2.85L26.58,10L22,5.42L5.09,22.31z M28,8.58c0.26-0.26,0.51-0.51,0.75-0.73
		c0.24-0.23,0.45-0.47,0.64-0.73s0.34-0.53,0.45-0.83S30,5.65,30,5.25c0-0.45-0.09-0.87-0.26-1.26s-0.41-0.73-0.7-1.03
		s-0.64-0.53-1.03-0.7S27.2,2,26.75,2c-0.4,0-0.74,0.05-1.04,0.16s-0.57,0.26-0.83,0.45s-0.5,0.4-0.73,0.64S23.68,3.74,23.42,4
		L28,8.58z"/>
</g>
</svg>
