<svg width="24" height="24" viewBox="0 0 24 24" xmlns="http://www.w3.org/2000/svg">
<path fill-rule="evenodd" clip-rule="evenodd" d="M6.37223 2.23303C6.93486 1.71566 7.84215 2.11603 7.84215 2.88168V4.39993C11.1148 4.39849 12.5229 4.3988 12.5979 4.40142C17.302 4.56586 21 8.44711 21 13.2003C21 18.0602 17.0726 22 12.2279 22C7.38319 22 3.45578 18.0602 3.45578 13.2003C3.45578 12.455 3.54955 11.717 3.73249 11.0021C3.91315 10.296 4.63021 9.87051 5.33407 10.0517C6.03794 10.233 6.46208 10.9523 6.28142 11.6584C6.15309 12.1599 6.08733 12.6774 6.08733 13.2003C6.08733 16.6023 8.83655 19.3602 12.2279 19.3602C15.6192 19.3602 18.3684 16.6023 18.3684 13.2003C18.3684 9.86323 15.7875 7.15434 12.5063 7.03965C12.4788 7.03869 10.7556 7.03856 7.84215 7.03978V8.56041C7.84215 9.32605 6.93486 9.72642 6.37223 9.20906L3.28445 6.3697C2.90518 6.02094 2.90518 5.42114 3.28445 5.07239L6.37223 2.23303ZM20.1233 13.1999C20.1233 8.92491 16.8037 5.42848 12.5678 5.2804C12.5137 5.27851 10.5536 5.27874 8.62923 5.27926L6.96549 5.27983V3.55936C6.96549 3.37142 6.74573 3.27002 6.60348 3.39234L4.0896 5.55387C3.98749 5.64166 3.98749 5.80012 4.0896 5.88792L6.60348 8.04945C6.74573 8.17176 6.96549 8.07036 6.96549 7.88242V6.15977L8.62946 6.1592C9.59653 6.15894 10.5663 6.15878 11.2997 6.15887C11.6665 6.15892 11.974 6.15903 12.1926 6.15922L12.4497 6.15958L12.5198 6.1598C12.5341 6.15986 12.5392 6.15988 12.5372 6.15981C16.2925 6.29108 19.2461 9.39046 19.2461 13.1999C19.2461 17.0879 16.1041 20.2397 12.2283 20.2397C8.35253 20.2397 5.21058 17.0879 5.21058 13.1999C5.21058 12.5945 5.28777 12.0037 5.43221 11.4392C5.49243 11.2038 5.35105 10.964 5.11643 10.9036C4.88181 10.8432 4.64279 10.985 4.58257 11.2204C4.42019 11.855 4.3334 12.5193 4.3334 13.1999C4.3334 17.5738 7.86808 21.1196 12.2283 21.1196C16.5886 21.1196 20.1233 17.5738 20.1233 13.1999ZM11.6144 9.15266C11.8566 9.15266 12.053 9.34965 12.053 9.59264V13.5707L15.397 15.6353C15.6068 15.7568 15.6787 16.0258 15.5576 16.2363C15.4365 16.4467 15.1682 16.5188 14.9584 16.3973L11.744 14.4128C11.703 14.4255 11.6595 14.4323 11.6144 14.4323C11.3722 14.4323 11.1758 14.2353 11.1758 13.9923V13.816V9.59264C11.1758 9.34965 11.3722 9.15266 11.6144 9.15266Z" />
</svg>
