<svg width="24" height="24" viewBox="0 0 24 24" fill="none" xmlns="http://www.w3.org/2000/svg">
<path fill-rule="evenodd" clip-rule="evenodd" d="M3.21436 10V9L3.09082 8.99219C2.59912 8.96094 2.14307 8.93164 2.14307 8.11621V6.25684C2.14307 5.50684 1.78906 5.02637 0.975098 4.9668C1.78906 4.90625 2.14307 4.41602 2.14307 3.66602V2C2.14307 1.33301 2.5 1 3.28906 1V0C2.14307 0 1.07129 0.333008 1.07129 1.66602V3.66602C1.07129 4.16602 0.782227 4.32324 0 4.33301V5.66699C0.782227 5.66699 1.07129 5.83301 1.07129 6.33301V8.33301C1.07129 9.47363 1.85352 9.96973 3.21436 10ZM5.5 7.5C5.5 7.77637 5.27637 8 5 8C4.72363 8 4.5 7.77637 4.5 7.5C4.5 7.22363 4.72363 7 5 7C5.27637 7 5.5 7.22363 5.5 7.5ZM7.5 7.5C7.5 7.77637 7.27637 8 7 8C6.72363 8 6.5 7.77637 6.5 7.5C6.5 7.22363 6.72363 7 7 7C7.27637 7 7.5 7.22363 7.5 7.5ZM9 8C9.27637 8 9.5 7.77637 9.5 7.5C9.5 7.22363 9.27637 7 9 7C8.72363 7 8.5 7.22363 8.5 7.5C8.5 7.77637 8.72363 8 9 8ZM10.7856 9V10C12.1465 9.96973 12.9287 9.47363 12.9287 8.33301V6.33301C12.9287 5.83301 13.2178 5.66699 14 5.66699V4.33301C13.2178 4.32324 12.9287 4.16602 12.9287 3.66602V1.66602C12.9287 0.333008 11.8569 0 10.7109 0V1C11.5 1 11.8569 1.33301 11.8569 2V3.66602C11.8569 4.41602 12.2109 4.90625 13.0249 4.9668C12.2109 5.02637 11.8569 5.50684 11.8569 6.25684V8.11621C11.8569 8.93164 11.4009 8.96094 10.9092 8.99219L10.7856 9Z" transform="translate(5 7)" fill="#EC4A41"/>
</svg>
