<svg width="24" height="24" viewBox="0 0 24 24" fill="none" xmlns="http://www.w3.org/2000/svg">
<path fill-rule="evenodd" clip-rule="evenodd" d="M11.2968 16.4825C11.2968 15.9485 11.7076 15.515 12.2122 15.515C12.7168 15.515 13.1277 15.9485 13.1277 16.4825C13.1277 17.0166 12.7168 17.45 12.2122 17.45C11.7076 17.45 11.2968 17.0166 11.2968 16.4825ZM11.4799 14.5475H12.9446V9.90358H11.4799V14.5475ZM13.012 4.48723C12.6767 3.83759 11.7478 3.83759 11.4125 4.48723L4.10144 18.6527C3.79228 19.2517 4.22711 19.9655 4.9012 19.9655H19.5233C20.1973 19.9655 20.6322 19.2517 20.323 18.6527L13.012 4.48723ZM12.2122 6.17062L18.5332 18.4175H5.89122L12.2122 6.17062Z" fill="#EC4A41"/>
</svg>
