<svg width="24" height="24" viewBox="0 0 24 24" xmlns="http://www.w3.org/2000/svg">
<path fill-rule="evenodd" clip-rule="evenodd" d="M4 3.5C4 3.22386 4.22386 3 4.5 3H5.57113H18.4247H19.4958C19.772 3 19.9958 3.22386 19.9958 3.5C19.9958 3.77614 19.772 4 19.4958 4H18.9128C18.7281 7.84652 16.4244 10.3869 14.007 11.9984C16.4244 13.6099 18.7281 16.1502 18.9128 19.9967H19.4958C19.772 19.9967 19.9958 20.2206 19.9958 20.4967C19.9958 20.7729 19.772 20.9967 19.4958 20.9967H18.4247H5.57113H4.5C4.22386 20.9967 4 20.7729 4 20.4967C4 20.2206 4.22386 19.9967 4.5 19.9967H5.08304C5.26769 16.1502 7.57138 13.6099 9.98881 11.9984C7.57138 10.3869 5.26769 7.84652 5.08304 4H4.5C4.22386 4 4 3.77614 4 3.5ZM6.08443 4C6.27993 7.64145 8.60016 9.99578 11.0434 11.4849C11.4278 11.7192 11.4278 12.2775 11.0434 12.5118C8.60016 14.0009 6.27993 16.3553 6.08443 19.9967H17.9114C17.7159 16.3553 15.3957 14.0009 12.9525 12.5118C12.568 12.2775 12.568 11.7192 12.9525 11.4849C15.3957 9.99578 17.7159 7.64145 17.9114 4H6.08443ZM8.24993 18.8026C8.29584 16.2492 10.0855 14.6302 11.9046 13.642C11.9629 13.6103 12.033 13.6103 12.0914 13.642C13.9104 14.6302 15.7001 16.2492 15.746 18.8026C15.747 18.8578 15.7022 18.9033 15.6469 18.9033H8.34902C8.2938 18.9033 8.24893 18.8578 8.24993 18.8026ZM11.9322 10.3698C10.8544 9.78821 9.78391 8.98578 9.07703 7.89941C9.03455 7.83412 9.0822 7.74915 9.16009 7.74915H14.8353C14.9132 7.74915 14.9609 7.83412 14.9184 7.89941C14.2115 8.98578 13.141 9.78821 12.0632 10.3698C12.0223 10.3919 11.9731 10.3919 11.9322 10.3698Z"/>
</svg>
