<svg width="266" height="150" viewBox="0 0 266 150" fill="none" xmlns="http://www.w3.org/2000/svg">
<path opacity="0.3" d="M166.08 143.7L131.19 147.03L160.11 69.72L226.22 107.8V108.89L166.08 143.7Z" fill="#5A7D91"/>
<path opacity="0.3" d="M82.2469 115.516C82.255 114.008 80.1484 112.775 77.5417 112.761C74.9349 112.746 72.8151 113.957 72.807 115.465C72.7988 116.973 74.9054 118.206 77.5122 118.221C80.1189 118.235 82.2387 117.024 82.2469 115.516Z" fill="#5A7D91"/>
<path opacity="0.3" d="M125.651 133.796C125.669 130.499 121.054 127.801 115.343 127.77C109.633 127.739 104.989 130.387 104.971 133.684C104.953 136.981 109.568 139.679 115.279 139.71C120.989 139.741 125.633 137.093 125.651 133.796Z" fill="#5A7D91"/>
<path d="M190.84 112.14L191.62 110.81V41.95L132.44 76.12L125.94 108.55L132.44 145.64L190.84 112.14Z" fill="#CCD9E0"/>
<path d="M132.44 76.12H130.06L69.79 41.32V111.15L70.48 112.34L129.84 146.49H130.97L132.44 145.64V76.12Z" fill="#E7F0F5"/>
<path d="M191.62 40.05L130.86 4.97L69.79 40.23V41.32L130.06 76.12H132.44L191.62 41.95V40.05Z" fill="white"/>
<path d="M78.53 84.82L77.24 84.14V89.38C77.2363 89.5486 77.1386 89.701 76.9869 89.7748C76.8351 89.8485 76.6549 89.8312 76.52 89.73L74.41 88.06C73.4735 87.3166 72.8119 86.282 72.53 85.12L70.7 77.6V66.65H83.54V75C83.5405 75.739 83.3802 76.4692 83.07 77.14L79.78 84.4C79.6747 84.6259 79.4813 84.7987 79.2451 84.8781C79.0088 84.9575 78.7504 84.9365 78.53 84.82Z" fill="#CCD9E0"/>
<path d="M119.82 113.68L117.82 100.33L111.9 98.4C110.362 96.7389 108.59 95.3106 106.64 94.16C99.16 89.84 93.09 93.3 93.09 101.88C93.09 109.39 97.72 118.32 103.88 123.34L105.22 132.34L117.12 139.19L115.26 126.7C118.26 125.59 120.19 122.38 120.19 117.55C120.183 116.258 120.059 114.97 119.82 113.7V113.68Z" fill="#CCD9E0"/>
<path d="M70.7 111.57L70.96 112.62L80 117.83L83 111.08C83.3102 110.409 83.4705 109.679 83.47 108.94V100.62H70.7V111.57Z" fill="#CCD9E0"/>
<path d="M66.82 106.73C66.2378 106.445 65.8553 105.867 65.82 105.22V96.3H75.4V105L72.87 106.46C71.0105 107.505 68.7652 107.605 66.82 106.73Z" fill="#E7F0F5"/>
<path d="M70.07 107.3C71.0519 107.234 72.0075 106.954 72.87 106.48L75.4 105V96.3H70.07V107.3Z" fill="#CCD9E0"/>
<path fill-rule="evenodd" clip-rule="evenodd" d="M70.07 96.3H65.78V105.22C65.8153 105.867 66.1978 106.445 66.78 106.73C68.0234 107.329 69.4316 107.494 70.78 107.2V107.2C71.01 107.2 71.23 107.11 71.45 107.05L71.67 106.98C71.8303 106.934 71.9873 106.877 72.14 106.81C72.3716 106.722 72.5957 106.615 72.81 106.49L75.4 105V105V96.3H70.07Z" stroke="#8CA9B8" stroke-width="0.66" stroke-linecap="round" stroke-linejoin="round"/>
<path d="M66.82 72.81C66.2393 72.5232 65.8574 71.9466 65.82 71.3V62.38H75.4V71.1L72.87 72.56C71.0059 73.5939 68.763 73.6866 66.82 72.81Z" fill="#E7F0F5"/>
<path d="M70.07 73.38C71.0511 73.3091 72.0057 73.0295 72.87 72.56L75.4 71.1V62.38H70.07V73.38Z" fill="#CCD9E0"/>
<path fill-rule="evenodd" clip-rule="evenodd" d="M70.07 62.38H65.78V71.3C65.8174 71.9466 66.1993 72.5232 66.78 72.81C68.0234 73.4089 69.4316 73.5744 70.78 73.28V73.28C71.01 73.28 71.23 73.19 71.45 73.13L71.67 73.06L72.14 72.89C72.3716 72.8016 72.5957 72.6946 72.81 72.57L75.4 71.1V62.38H70.07Z" stroke="#8CA9B8" stroke-width="0.66" stroke-linecap="round" stroke-linejoin="round"/>
<path fill-rule="evenodd" clip-rule="evenodd" d="M130.23 3.92L130.86 3.56V3.53L131.48 3.89L192.24 38.97L192.86 39.33V111.17L192.7 111.46L191.92 112.8L191.76 113.09L191.46 113.25L133.06 146.76L131.59 147.6L131.3 147.77H129.51L129.22 147.6L69.86 113.46L69.57 113.29L69.4 113L68.73 111.83L68.56 111.53V108.53C67.7377 108.459 66.9399 108.214 66.22 107.81C65.2286 107.32 64.5868 106.325 64.55 105.22V95.05H68.55V74.61C67.7277 74.5392 66.9299 74.2938 66.21 73.89C65.2186 73.4004 64.5768 72.4051 64.54 71.3V61.13H68.54V39.51L69.16 39.15L130.23 3.92ZM191.61 40.08L130.86 5L69.85 40.23V62.38H65.85V71.29C65.8874 71.9366 66.2693 72.5132 66.85 72.8C67.6622 73.218 68.5668 73.4244 69.48 73.4H69.82V96.3H65.82V105.22C65.8553 105.867 66.2378 106.445 66.82 106.73C67.6306 107.153 68.5363 107.359 69.45 107.33H69.79V111.15L70.48 112.35L129.84 146.52H130.97L132.44 145.67L190.84 112.17L191.61 110.84V40.08Z" fill="#5A7D91"/>
<path d="M91.17 82L99.48 99.9L109.87 114.13C109.87 114.13 112.42 112.64 114.05 111.71C116.42 110.34 117.88 107.42 117.88 103.26C117.88 94.91 111.99 84.74 104.71 80.54C101.04 78.42 97.71 78.23 95.34 79.62L91.17 82Z" fill="white"/>
<path d="M109.87 114.13C109.87 114.13 112.42 112.64 114.05 111.71C116.42 110.34 117.88 107.42 117.88 103.26C117.795 99.7614 116.974 96.32 115.47 93.16L100.76 101.65L109.87 114.13Z" fill="#E6EDF0"/>
<path d="M109.87 114.13C109.87 114.13 112.42 112.64 114.05 111.71C116.42 110.34 117.88 107.42 117.88 103.26C117.875 102.025 117.758 100.794 117.53 99.58L104.67 107L109.87 114.13Z" fill="#CCD9E0"/>
<path fill-rule="evenodd" clip-rule="evenodd" d="M91.17 82L99.48 99.9L109.87 114.13C109.87 114.13 112.42 112.64 114.05 111.71C116.42 110.34 117.88 107.42 117.88 103.26C117.88 94.91 111.99 84.74 104.71 80.54C101.04 78.42 97.71 78.23 95.34 79.62L91.17 82Z" stroke="#8CA9B8" stroke-width="0.66" stroke-linecap="round" stroke-linejoin="round"/>
<path d="M109.86 114.147C114.976 111.156 114.923 101.546 109.741 92.6826C104.56 83.8191 96.2117 79.0582 91.0958 82.0489C85.9798 85.0397 86.0329 94.6495 91.2145 103.513C96.396 112.377 104.744 117.137 109.86 114.147Z" fill="#E7F0F5"/>
<path d="M91.16 103.41C93.3836 107.418 96.591 110.794 100.48 113.22C103.48 114.94 106.19 115.39 108.4 114.76L106.2 99.37L91.16 103.41Z" fill="#CCD9E0"/>
<path fill-rule="evenodd" clip-rule="evenodd" d="M109.86 114.147C114.976 111.156 114.923 101.546 109.741 92.6826C104.56 83.8191 96.2117 79.0582 91.0958 82.0489C85.9798 85.0397 86.0329 94.6495 91.2145 103.513C96.396 112.377 104.744 117.137 109.86 114.147Z" stroke="#8CA9B8" stroke-width="0.66" stroke-linecap="round" stroke-linejoin="round"/>
<path d="M107.765 110.564C111.742 108.239 111.703 100.774 107.678 93.8888C103.653 87.0039 97.1666 83.3071 93.1902 85.6317C89.2137 87.9562 89.253 95.422 93.2778 102.307C97.3026 109.192 103.789 112.889 107.765 110.564Z" fill="#8CA9B8"/>
<path d="M100.48 109.85C106.14 113.11 110.73 110.5 110.73 104.01C110.671 101.489 110.114 99.0046 109.09 96.7L92.23 100.28C93.9816 104.21 96.8507 107.538 100.48 109.85Z" fill="#7E9FB0"/>
<path d="M109.25 109.24C106.25 107.85 105.43 104.24 104.63 100.12L93.12 102C94.8562 105.204 97.3916 107.905 100.48 109.84C104.2 112 107.45 111.6 109.25 109.24Z" fill="#6F8EA0"/>
<path fill-rule="evenodd" clip-rule="evenodd" d="M107.765 110.564C111.742 108.239 111.703 100.774 107.678 93.8888C103.653 87.0039 97.1666 83.3071 93.1902 85.6317C89.2137 87.9562 89.253 95.422 93.2778 102.307C97.3026 109.192 103.789 112.889 107.765 110.564Z" stroke="#4E7388" stroke-width="0.66"/>
<path d="M99.38 92C97.75 91.06 96.28 91 95.21 91.59C94.14 92.18 90.47 94.3 90.3 94.4C89.23 95 88.57 96.3 88.57 98.17C88.7975 102.285 90.9744 106.044 94.43 108.29C96.06 109.23 97.54 109.29 98.6 108.69L103.53 105.86C104.59 105.26 105.24 103.96 105.24 102.11C105.009 97.9987 102.833 94.2436 99.38 92Z" fill="#8CA9B8"/>
<path d="M99.23 102.1L95.76 102.47L91.12 105.15C91.9993 106.397 93.1261 107.448 94.43 108.24C96.06 109.18 97.54 109.24 98.6 108.64L103.53 105.81C104.59 105.21 105.24 103.91 105.24 102.06C105.218 100.523 104.878 99.0082 104.24 97.61L99.24 100.48L99.23 102.1Z" fill="#7E9FB0"/>
<path d="M100.23 106.25L96.34 105.57L93.21 107.38C93.5922 107.7 94.0002 107.988 94.43 108.24C96.06 109.18 97.54 109.24 98.6 108.64L103.53 105.81C104.59 105.21 105.24 103.91 105.24 102.06C105.237 101.544 105.19 101.028 105.1 100.52L100.41 103.23L100.23 106.25Z" fill="#6F8EA0"/>
<path d="M96.0446 107.192C97.618 106.272 97.601 103.315 96.0067 100.588C94.4124 97.8607 91.8444 96.3955 90.271 97.3153C88.6976 98.2351 88.7146 101.192 90.3089 103.919C91.9032 106.646 94.4711 108.111 96.0446 107.192Z" fill="#CCD9E0"/>
<path fill-rule="evenodd" clip-rule="evenodd" d="M99.38 92C97.75 91.06 96.28 91 95.21 91.59C94.14 92.18 90.47 94.3 90.3 94.4C89.23 95 88.57 96.3 88.57 98.17C88.6378 100.206 89.2303 102.19 90.29 103.93C90.38 104.09 90.48 104.25 90.58 104.41C91.542 105.987 92.8607 107.316 94.43 108.29C96.06 109.23 97.54 109.29 98.6 108.69V108.69L103.53 105.86C104.59 105.26 105.24 103.96 105.24 102.11C105.009 97.9987 102.833 94.2436 99.38 92V92Z" stroke="#4E7388" stroke-width="0.66"/>
<path fill-rule="evenodd" clip-rule="evenodd" d="M96.0446 107.192C97.618 106.272 97.601 103.315 96.0067 100.588C94.4124 97.8607 91.8444 96.3955 90.271 97.3153C88.6976 98.2351 88.7146 101.192 90.3089 103.919C91.9032 106.646 94.4711 108.111 96.0446 107.192Z" stroke="#4E7388" stroke-width="0.66"/>
<path d="M80.39 68.33L71 66.33C70.7732 66.2806 70.5545 66.1998 70.35 66.09L66.87 64.09C66.257 63.8196 65.8395 63.2373 65.78 62.57V55.57L70.67 56.09L83.37 60.55V67.55L82.45 68.08C81.8149 68.4057 81.0845 68.4944 80.39 68.33Z" fill="#E7F0F5"/>
<path d="M81.14 68.39C81.5958 68.3989 82.0465 68.2923 82.45 68.08L83.37 67.55V60.55L81.14 59.77V68.39Z" fill="#CCD9E0"/>
<path d="M80.39 61.33L71 59.33C70.7728 59.2773 70.554 59.1931 70.35 59.08L66.87 57.08C65.42 56.24 65.41 54.89 66.87 54.08C68.5097 53.2447 70.4503 53.2447 72.09 54.08L83.39 60.55L82.47 61.08C81.8269 61.403 81.0913 61.4914 80.39 61.33Z" fill="white"/>
<path fill-rule="evenodd" clip-rule="evenodd" d="M72.07 54.07C70.4303 53.2347 68.4897 53.2347 66.85 54.07C66.2493 54.3409 65.8406 54.9138 65.78 55.57V55.57V62.57C65.8395 63.2373 66.257 63.8196 66.87 64.09L70.35 66.09C70.5545 66.1998 70.7732 66.2806 71 66.33L80.39 68.33C80.8124 68.4148 81.2476 68.4148 81.67 68.33H81.92L82.07 68.28C82.2021 68.2407 82.3295 68.187 82.45 68.12L83.37 67.59V60.59L72.07 54.07Z" stroke="#8CA9B8" stroke-width="0.66" stroke-linecap="round" stroke-linejoin="round"/>
<path d="M83.37 60.54L82.45 61.07C81.8139 61.3917 81.0861 61.4835 80.39 61.33L71 59.33C70.7728 59.2773 70.554 59.1931 70.35 59.08L66.87 57.08C66.26 56.8113 65.843 56.2336 65.78 55.57" stroke="#8CA9B8" stroke-width="0.66" stroke-linecap="round" stroke-linejoin="round"/>
<path d="M80.39 102.25L71 100.25C70.7732 100.201 70.5545 100.12 70.35 100.01L66.87 98.01C66.257 97.7396 65.8395 97.1573 65.78 96.49V89.49L70.67 90.01L83.37 94.48V101.48L82.45 102.01C81.8137 102.332 81.0834 102.417 80.39 102.25Z" fill="#E7F0F5"/>
<path d="M81.14 102.31C81.5958 102.319 82.0465 102.212 82.45 102L83.37 101.47V94.47L81.14 93.68V102.31Z" fill="#CCD9E0"/>
<path d="M80.39 95.25L71 93.25C70.7728 93.1973 70.554 93.1131 70.35 93L66.87 91C65.42 90.16 65.41 88.81 66.87 88C68.5109 87.1695 70.4491 87.1695 72.09 88L83.39 94.48L82.47 95C81.8292 95.3306 81.0908 95.4193 80.39 95.25Z" fill="white"/>
<path fill-rule="evenodd" clip-rule="evenodd" d="M83.37 94.47L72.07 88C70.4291 87.1695 68.4909 87.1695 66.85 88C66.2493 88.2709 65.8406 88.8438 65.78 89.5V89.5V96.5C65.8464 97.1599 66.2629 97.733 66.87 98L70.35 100C70.5545 100.11 70.7732 100.191 71 100.24L80.39 102.24C80.8119 102.33 81.2481 102.33 81.67 102.24L81.92 102.19H82.07C82.2036 102.155 82.3316 102.101 82.45 102.03V102.03L83.37 101.5V101.5V94.47Z" stroke="#8CA9B8" stroke-width="0.66" stroke-linecap="round" stroke-linejoin="round"/>
<path d="M83.37 94.47L82.45 94.99C81.8162 95.3191 81.0857 95.4113 80.39 95.25L71 93.25C70.7728 93.1973 70.554 93.1131 70.35 93L66.87 91C66.257 90.7296 65.8395 90.1473 65.78 89.48" stroke="#8CA9B8" stroke-width="0.66" stroke-linecap="round" stroke-linejoin="round"/>
<path fill-rule="evenodd" clip-rule="evenodd" d="M74.68 54.09V51.82L76.55 52.91L122.35 79.36L122.97 79.72V136.34L121.1 135.26L75.28 108.81L74.66 108.45V102.29L70.72 101.43C70.3682 101.359 70.0304 101.23 69.72 101.05L66.22 99.05C65.2204 98.5578 64.566 97.5628 64.51 96.45V89.45C64.5562 88.3419 65.21 87.3497 66.21 86.87C68.2373 85.8135 70.6527 85.8135 72.68 86.87L74.68 88V68.41L70.74 67.55C70.3877 67.4804 70.0497 67.3519 69.74 67.17L66.24 65.17C65.2404 64.6778 64.586 63.6828 64.53 62.57V55.57C64.5762 54.4619 65.23 53.4696 66.23 52.99C67.2172 52.4532 68.3265 52.181 69.45 52.2C70.5843 52.1807 71.7042 52.4564 72.7 53L74.68 54.09ZM72.07 54.07C71.2652 53.6386 70.3629 53.4217 69.45 53.44V53.41C68.5449 53.3942 67.6506 53.6075 66.85 54.03C66.2493 54.3009 65.8406 54.8738 65.78 55.53V62.53C65.8395 63.1973 66.257 63.7796 66.87 64.05L70.35 66.05C70.5545 66.1598 70.7732 66.2406 71 66.29L75.93 67.36V90.22L72.07 88.01C71.2652 87.5786 70.3629 87.3617 69.45 87.38C68.5449 87.3642 67.6506 87.5775 66.85 88C66.2636 88.2621 65.8575 88.8124 65.78 89.45V96.45C65.8395 97.1173 66.257 97.6996 66.87 97.97L70.35 99.97C70.5545 100.08 70.7732 100.161 71 100.21L75.93 101.28V107.73L121.74 134.19V80.45L75.93 54V56.28L72.07 54.07Z" fill="#5A7D91"/>
</svg>
