<svg width="24" height="24" viewBox="0 0 24 24" xmlns="http://www.w3.org/2000/svg">
<path fill-rule="evenodd" clip-rule="evenodd" d="M11 19H13C13.5356 18.9616 13.9616 18.5356 14 18V13.75L20.29 8.89C20.728 8.56067 20.9899 8.04792 21 7.5V6C21.003 5.63566 20.8076 5.29852 20.49 5.12C20.3379 5.04326 20.1703 5.00222 20 5H4C3.44772 5 3 5.44772 3 6V7.5C3.05427 8.02296 3.30003 8.50736 3.69 8.86L10 13.75V18C10.0384 18.5356 10.4644 18.9616 11 19ZM4 7.5V6H20V7.5C19.9859 7.7292 19.8727 7.94091 19.69 8.08L13 13.25V18H11V13.25L4.35 8.11C4.17691 7.94471 4.05535 7.73285 4 7.5Z"/>
</svg>
