<svg width="24" height="24" viewBox="0 0 24 24" fill="none" xmlns="http://www.w3.org/2000/svg">
<path fill-rule="evenodd" clip-rule="evenodd" d="M12.6947 0.159878C12.3511 -0.050642 11.9236 -0.0534589 11.5774 0.152608L2.55045 5.52553C1.81909 5.96085 1.81595 7.04544 2.54448 7.48536L10.0211 12L2.54448 16.5146C1.81595 16.9546 1.81909 18.0392 2.55045 18.4745L11.5774 23.8474C11.9236 24.0535 12.3511 24.0506 12.6947 23.8401L21.4616 18.4685C22.1821 18.0271 22.1789 16.9527 21.4555 16.5159L13.9768 12L21.4555 7.48405C22.1789 7.04726 22.1821 5.97295 21.4616 5.5315L12.6947 0.159878ZM11.9989 10.8057L4.88987 6.51298L12.1234 2.2075L19.1293 6.50012L11.9989 10.8057ZM12.1234 21.7925L4.88988 17.487L11.9989 13.1943L19.1293 17.4999L12.1234 21.7925Z" fill="#3C3C3C"/>
</svg>
