<svg width="16" height="16" viewBox="0 0 16 16" xmlns="http://www.w3.org/2000/svg">
<path fill-rule="evenodd" clip-rule="evenodd" d="M2.45996 14.72L1.33984 13.67L13.5996 1.23999L14.7402 2.35999L2.45996 14.72ZM0 8C0.578125 9.07059 1.35156 10.0237 2.28027 10.81L4.86035 8.23999C4.7832 7.3118 5.12012 6.39703 5.78027 5.73999C6.43262 5.08804 7.34082 4.75854 8.25977 4.84L9.84961 3.23999C9.24512 3.08813 8.62402 3.00757 8 3C4.63281 3.12323 1.58594 5.02771 0 8ZM10.3896 10C9.76074 10.7548 8.81055 11.1667 7.83008 11.11L6.16992 12.77C6.76855 12.917 7.38281 12.9941 8 13C11.3721 12.8952 14.4277 10.9854 16 8C15.4199 6.93906 14.6504 5.99344 13.7295 5.20999L11.1299 7.79999C11.1768 8.60135 10.9111 9.38965 10.3896 10Z"/>
</svg>
