<svg width="16" height="16" viewBox="0 0 16 16" xmlns="http://www.w3.org/2000/svg">
<path fill-rule="evenodd" clip-rule="evenodd" d="M11.764 0C10.2958 0 9.67832 0.620895 8.71343 1.5911L8.618 1.687C8.53024 1.7751 8.44448 1.86008 8.361 1.94278L8.36098 1.9428C7.47327 2.82228 6.845 3.44474 6.845 4.835C6.845 5.435 6.913 6.014 7.191 6.499L6.472 7.288C5.99 7.01 5.339 6.96 4.742 6.96C3.39049 6.96 2.82183 7.54256 1.98951 8.39523L1.98943 8.39531C1.88815 8.49906 1.78297 8.60681 1.672 8.718L1.60473 8.78543C0.622492 9.76981 0 10.3937 0 11.88C0 13.707 1.297 15.008 3.119 15.008C4.58738 15.008 5.20334 14.3886 6.16616 13.4203L6.265 13.321C6.3499 13.236 6.43293 13.1539 6.5138 13.074L6.51385 13.0739C7.40735 12.1904 8.038 11.5668 8.038 10.173C8.038 9.573 7.972 8.994 7.692 8.509L8.411 7.72C8.893 7.998 9.542 8.048 10.141 8.048C11.4925 8.048 12.0612 7.46544 12.8935 6.61277L12.8935 6.61272C12.9948 6.50896 13.1 6.4012 13.211 6.29L13.2783 6.22257C14.2605 5.23819 14.883 4.61435 14.883 3.128C14.883 1.301 13.588 0 11.764 0ZM4.829 12.458C4.184 13.09 3.737 13.461 3.118 13.461C2.253 13.461 1.538 12.745 1.538 11.88C1.538 11.261 1.782 10.85 2.821 9.869C4.1986 8.56934 4.21553 8.5695 4.72341 8.57435C4.75637 8.57467 4.7914 8.575 4.829 8.575C4.942 8.575 5.05 8.586 5.155 8.609L4.446 9.377C4.11 9.713 3.962 10.434 4.296 10.771C4.634 11.109 5.179 11.109 5.513 10.771L6.374 9.833C6.397 9.937 6.407 10.046 6.407 10.159C6.407 10.776 6.278 11.036 4.829 12.458ZM10.1586 6.43365C10.6667 6.4385 10.6854 6.43867 12.063 5.139C13.1 4.159 13.344 3.747 13.344 3.128C13.344 2.263 12.629 1.547 11.764 1.547C11.147 1.547 10.698 1.918 10.053 2.55C8.604 3.972 8.475 4.233 8.475 4.85C8.475 4.963 8.485 5.072 8.506 5.176L9.393 4.27C9.729 3.932 10.274 3.932 10.612 4.27C10.948 4.607 10.772 5.295 10.438 5.631L9.727 6.399C9.832 6.422 9.942 6.433 10.053 6.433C10.0906 6.433 10.1256 6.43333 10.1586 6.43365Z"/>
</svg>
