<svg width="294" height="166" viewBox="0 0 294 166" fill="none" xmlns="http://www.w3.org/2000/svg">
<path opacity="0.3" d="M125.867 139.739L136.179 140.17L153.864 150.761L159.501 159.615L177.494 158.508L190.857 150.507L193.067 152.133C193.636 152.548 194.314 152.787 195.018 152.821C195.721 152.854 196.418 152.681 197.024 152.322L212.498 143.092C212.603 143.03 212.692 142.944 212.757 142.84C212.822 142.736 212.86 142.618 212.869 142.496C212.878 142.374 212.856 142.251 212.807 142.139C212.758 142.027 212.682 141.929 212.586 141.853L210 139.761L225.717 130.343C225.756 130.321 225.788 130.289 225.811 130.25C225.834 130.211 225.846 130.167 225.846 130.122C225.846 130.077 225.834 130.033 225.811 129.994C225.788 129.955 225.756 129.923 225.717 129.901L221.804 127.245L201.158 129.17L206.375 118.303L215.825 112.98C215.882 112.947 215.93 112.899 215.963 112.842C215.996 112.784 216.014 112.719 216.014 112.653C216.014 112.587 215.996 112.522 215.963 112.464C215.93 112.407 215.882 112.36 215.825 112.327L202.119 104.58L147.564 102.798L123.403 133.021L125.867 139.739Z" fill="#9B9B9B"/>
<path d="M125.414 138.887L80.0984 112.681C79.8022 112.455 79.57 112.155 79.4246 111.811C79.2792 111.468 79.2258 111.092 79.2695 110.722V37.1508C79.2822 36.2394 79.509 35.3437 79.9314 34.5363C80.3538 33.7289 80.96 33.0323 81.701 32.5028L126.298 6.71747C126.53 6.56651 126.797 6.47978 127.073 6.46617C127.348 6.45256 127.623 6.51255 127.868 6.64L173.184 32.8237L139.749 75.0984L125.414 138.887Z" fill="white"/>
<path d="M79.4132 35.9003C79.3099 36.3093 79.2543 36.7289 79.2474 37.1508V110.722C79.2037 111.092 79.2571 111.468 79.4025 111.811C79.5479 112.155 79.7801 112.455 80.0763 112.681L125.392 138.887L142.071 72.1325L79.4132 35.9003Z" fill="#ECEBEC"/>
<path d="M171.614 112.991L127.017 138.765C125.679 139.551 124.585 138.765 124.585 136.928V63.3567C124.6 62.4456 124.827 61.5506 125.25 60.7434C125.672 59.9362 126.277 59.2394 127.017 58.7087L171.614 32.9344C172.952 32.1597 174.046 32.9344 174.046 34.7715V108.343C174.031 109.254 173.804 110.149 173.382 110.956C172.959 111.763 172.354 112.46 171.614 112.991V112.991Z" fill="#D0D0D0"/>
<path d="M127.238 6.42973C127.459 6.42665 127.677 6.48405 127.868 6.59573L173.184 32.7795C173.494 33.0027 173.739 33.3054 173.893 33.6558C174.046 34.0062 174.103 34.3916 174.057 34.7715V108.343C174.042 109.254 173.815 110.149 173.393 110.956C172.97 111.763 172.365 112.46 171.625 112.991L127.028 138.765C126.739 138.948 126.408 139.051 126.066 139.064C125.841 139.063 125.619 139.002 125.425 138.887L80.1095 112.681C79.8133 112.455 79.581 112.155 79.4357 111.811C79.2903 111.468 79.2368 111.092 79.2805 110.722V37.1508C79.2933 36.2394 79.52 35.3437 79.9424 34.5363C80.3649 33.7289 80.9711 33.0323 81.7121 32.5028L126.309 6.71747C126.601 6.54219 126.931 6.44324 127.271 6.42973H127.238ZM127.271 5.0464C126.687 5.0589 126.115 5.22286 125.613 5.52227L80.9826 31.3076C80.0302 31.9569 79.2491 32.8276 78.7062 33.8452C78.1634 34.8629 77.875 35.9971 77.8658 37.1508V110.722C77.8161 111.339 77.9324 111.958 78.2026 112.514C78.4728 113.071 78.887 113.545 79.4021 113.887L124.718 140.082C125.119 140.321 125.577 140.447 126.044 140.447C126.629 140.435 127.2 140.271 127.702 139.971L172.299 114.186C173.252 113.537 174.033 112.666 174.576 111.648C175.119 110.631 175.407 109.496 175.416 108.343V34.7715C175.47 34.1394 175.348 33.5049 175.063 32.9384C174.778 32.3718 174.342 31.8954 173.803 31.5621V31.5621C173.427 31.3187 172.852 30.9756 171.935 30.4555L166.895 27.5339L151.421 18.6031L128.564 5.40053C128.161 5.16802 127.703 5.04588 127.238 5.0464H127.271Z" fill="#6C6C6C"/>
<path d="M127.437 62.8919C127.475 62.1997 127.766 61.5458 128.255 61.0548L171.194 36.2323V108.807C171.156 109.5 170.865 110.154 170.376 110.645L128.023 135.135C127.964 135.17 127.897 135.189 127.829 135.19C127.76 135.191 127.693 135.174 127.633 135.14C127.574 135.106 127.524 135.057 127.49 134.998C127.455 134.939 127.437 134.872 127.437 134.803V62.8919Z" fill="#B0B0B0"/>
<path d="M166.994 114.374L138.025 97.6191L166.817 80.9748L195.786 97.7297L166.994 114.374Z" fill="#7C7C7C"/>
<path d="M129.537 99.4561V124.577L153.808 110.545V85.4236L129.537 99.4561Z" fill="#7C7C7C"/>
<path d="M129.537 99.4561V124.577L153.808 110.545V85.4236L129.537 99.4561Z" stroke="#6B6B6B" stroke-width="0.66" stroke-linejoin="round"/>
<path d="M153.941 125.12L133.472 113.278L153.819 101.526L174.289 113.356L153.941 125.12Z" fill="#7C7C7C"/>
<path d="M194.327 96.8776L186.789 92.5173L185.054 93.0817L186.701 102.433C186.701 102.433 191.852 98.8253 194.327 96.8776Z" fill="#8C8C8C"/>
<path d="M153.941 125.12L133.472 113.278L153.819 101.526L174.289 113.356L153.941 125.12Z" stroke="#6B6B6B" stroke-width="0.66" stroke-linejoin="round"/>
<path d="M128.841 132.014L158.439 149.123V115.215L128.841 98.0949V132.014Z" fill="#ECEBEC"/>
<path d="M128.841 128.041L158.439 145.161V136.186L128.841 119.066V128.041Z" fill="#ECEBEC"/>
<path d="M128.841 122.475L158.439 139.584V136.186L128.841 119.066V122.475Z" fill="white"/>
<path d="M128.841 101.736L158.439 118.845V115.215L128.841 98.0949V101.736Z" fill="white"/>
<path d="M130.023 128.783V123.117L134.444 122.331L134.499 119.487L138.567 121.7C138.605 121.722 138.647 121.733 138.691 121.733C138.735 121.732 138.777 121.72 138.815 121.698C138.852 121.675 138.882 121.643 138.903 121.604C138.924 121.566 138.933 121.522 138.932 121.479V107.568H145.232L128.852 98.0949V132.014L158.451 149.123V145.217L130.023 128.783Z" fill="#D0D0D0"/>
<path d="M128.841 122.475L158.439 139.584V136.186L128.841 119.066V122.475Z" stroke="#B1B1B1" stroke-width="0.66" stroke-linecap="round" stroke-linejoin="round"/>
<path d="M128.841 128.041L158.439 145.161L128.841 128.041Z" stroke="#B3B3B3" stroke-width="0.66" stroke-linecap="round" stroke-linejoin="round"/>
<path d="M128.841 101.736L158.439 118.845" stroke="#B1B1B1" stroke-width="0.66" stroke-linecap="round" stroke-linejoin="round"/>
<path d="M160.462 78.9385L197.091 100.12V96.6895L160.462 75.5079V78.9385Z" fill="white"/>
<path d="M160.462 78.9385L185.098 93.1813L188.392 91.6541L160.462 75.5079V78.9385Z" fill="#D0D0D0"/>
<path d="M152.946 117.163V153.982C152.918 154.275 152.966 154.572 153.086 154.841C153.206 155.111 153.394 155.345 153.632 155.52L159.092 158.674L199.577 129.79L207.436 91.964L201.987 88.81L152.946 117.163Z" fill="#ECEBEC"/>
<path d="M152.947 117.163L158.716 120.505L186.801 107.413L207.436 91.964L201.987 88.81L152.947 117.163Z" fill="white"/>
<path d="M152.947 117.163L158.716 120.505L186.801 107.413L207.436 91.964L201.987 88.81L152.947 117.163Z" stroke="#B1B1B1" stroke-width="0.66" stroke-linejoin="round"/>
<path d="M201.987 88.81L152.946 117.163V153.982C152.92 154.334 152.968 154.689 153.086 155.022C153.204 155.355 153.39 155.66 153.631 155.918" stroke="#B1B1B1" stroke-width="0.66" stroke-linejoin="round"/>
<path d="M158.395 120.317V157.147C158.395 158.674 159.501 159.283 160.805 158.519L205.015 132.955C205.715 132.5 206.299 131.886 206.717 131.163C207.136 130.44 207.378 129.628 207.425 128.794V91.964L158.395 120.317Z" fill="#D0D0D0"/>
<path d="M207.436 91.964L158.395 120.317V157.147C158.395 158.674 159.501 159.659 160.816 158.884" stroke="#B3B2B3" stroke-width="0.66" stroke-linecap="round" stroke-linejoin="round"/>
<path d="M177.947 120.737L174.212 118.579V115.768L185.905 109.947L196.571 108.453V111.264C196.561 111.408 196.512 111.546 196.431 111.665C196.349 111.784 196.237 111.879 196.107 111.939L180.633 120.793C180.213 120.996 179.75 121.097 179.284 121.087C178.817 121.078 178.359 120.958 177.947 120.737Z" fill="#ECEBEC"/>
<path d="M185.949 109.947L179.594 113.112V121.114C179.979 121.123 180.36 121.031 180.699 120.848L196.173 111.995C196.304 111.934 196.415 111.839 196.497 111.72C196.579 111.602 196.627 111.463 196.637 111.32V108.453L185.949 109.947Z" fill="#D0D0D0"/>
<path d="M177.947 117.926L174.212 115.713L192.128 105.355L195.864 107.568C196.659 108.033 196.748 108.675 196.063 109.128L180.589 117.982C180.174 118.178 179.72 118.275 179.262 118.265C178.803 118.256 178.353 118.14 177.947 117.926Z" fill="white"/>
<path d="M196.56 108.453C196.538 108.262 196.466 108.079 196.352 107.924C196.237 107.768 196.084 107.646 195.908 107.568L192.172 105.355L174.256 115.713V118.524L177.947 120.737C178.355 120.967 178.81 121.096 179.277 121.115C179.744 121.135 180.208 121.043 180.633 120.848L196.107 111.995C196.237 111.934 196.349 111.839 196.431 111.72C196.512 111.602 196.561 111.463 196.571 111.32C196.571 110.954 196.56 108.453 196.56 108.453Z" stroke="#B2B1B2" stroke-width="0.66" stroke-linecap="round" stroke-linejoin="round"/>
<path d="M177.947 117.926L174.212 115.713L192.128 105.355L195.864 107.568C196.659 108.033 196.748 108.675 196.063 109.128L180.589 117.982C180.174 118.178 179.72 118.275 179.262 118.265C178.803 118.256 178.353 118.14 177.947 117.926Z" stroke="#B1B1B1" stroke-width="0.66" stroke-linejoin="round"/>
<path d="M160.462 75.5079L192.736 94.1663L201.987 88.81L207.436 91.964V128.783C207.389 129.617 207.147 130.429 206.728 131.152C206.31 131.875 205.727 132.489 205.026 132.944L160.816 158.508C160.483 158.715 160.102 158.829 159.711 158.84C159.489 158.843 159.272 158.786 159.081 158.674L153.632 155.52C153.394 155.345 153.206 155.111 153.086 154.841C152.966 154.572 152.918 154.275 152.946 153.982V145.947L128.841 132.014V98.0949L160.462 75.5079ZM160.374 73.8589L159.655 74.3791L128.034 96.9661L127.459 97.3867V132.8L128.144 133.198L151.565 146.733V153.971C151.533 154.505 151.642 155.039 151.88 155.519C152.119 155.998 152.479 156.407 152.924 156.704L158.451 159.869C158.852 160.094 159.305 160.213 159.766 160.212C160.391 160.2 161.002 160.02 161.534 159.692L205.745 134.128C206.656 133.554 207.414 132.766 207.953 131.833C208.493 130.9 208.797 129.849 208.839 128.772V91.1451L208.154 90.7467L202.705 87.5927L202.009 87.1943L201.324 87.5927L192.758 92.5395L161.147 74.3127L160.374 73.8589Z" fill="#6D6D6D"/>
<path d="M157.434 114.573L189.763 95.8816L157.434 114.573Z" stroke="#727272" stroke-width="0.66" stroke-linejoin="round"/>
<path d="M128.841 98.0949L157.434 114.573" stroke="#6B6B6B" stroke-width="0.66" stroke-linejoin="round"/>
<path d="M189.763 95.8816L160.462 78.9385" stroke="#6B6B6B" stroke-width="0.66" stroke-linejoin="round"/>
<path d="M171.57 32.9787L127.359 58.5427C126.65 58.9927 126.057 59.6042 125.629 60.3273C125.201 61.0505 124.949 61.8647 124.895 62.7037V99.7439L130.421 102.92L170.211 71.3136L178.655 35.9003L173.294 32.8016C173.017 32.6749 172.711 32.6246 172.408 32.6557C172.105 32.6868 171.816 32.7983 171.57 32.9787V32.9787Z" fill="white"/>
<path d="M124.895 62.7037V99.7439L130.421 102.92L135.439 98.936L142.071 72.1547L124.95 62.2611C124.961 62.3939 124.895 62.5488 124.895 62.7037Z" fill="#ECEBEC"/>
<path d="M177.03 36.1216L132.819 61.6856C132.123 62.143 131.542 62.7578 131.126 63.4805C130.709 64.2031 130.468 65.0136 130.421 65.8467V102.92L179.462 74.5672V37.4939C179.428 35.9667 178.356 35.4133 177.03 36.1216Z" fill="#D0D0D0"/>
<path d="M179.517 36.0995C179.137 35.8852 178.709 35.7726 178.273 35.7726C177.838 35.7726 177.409 35.8852 177.03 36.0995L132.819 61.6635C132.12 62.1231 131.538 62.7413 131.121 63.4681C130.704 64.1949 130.465 65.0098 130.421 65.8467V102.92" stroke="#B1B1B1" stroke-width="0.66" stroke-linejoin="round"/>
<path d="M172.653 32.6467C172.878 32.6421 173.1 32.6995 173.294 32.8127L178.655 35.9113C178.921 36.0739 179.135 36.3092 179.272 36.5896C179.409 36.8699 179.463 37.1837 179.428 37.4939V74.5451L130.421 102.92L124.895 99.7439V62.7037C124.943 61.8697 125.186 61.0586 125.604 60.3358C126.023 59.6131 126.605 58.9989 127.304 58.5427L171.515 32.9787C171.849 32.7753 172.229 32.661 172.62 32.6467H172.653ZM172.62 31.2633C171.995 31.2756 171.384 31.4552 170.852 31.7835L126.641 57.3475C125.73 57.9216 124.972 58.7093 124.432 59.6426C123.893 60.5758 123.589 61.6264 123.546 62.7037V100.541L124.243 100.939L129.692 104.093L130.377 104.491L131.073 104.093L180.158 75.7403L180.843 75.3419V37.4939C180.882 36.934 180.763 36.3744 180.499 35.8792C180.235 35.384 179.837 34.9733 179.351 34.694C178.898 34.4395 174.422 31.8388 174.013 31.6175C173.61 31.3835 173.152 31.2612 172.686 31.2633H172.62Z" fill="#6C6C6C"/>
<path d="M149.962 64.7511L146.226 62.5931V59.76L157.92 53.9279L168.542 52.4339V55.2448C168.533 55.3889 168.485 55.5278 168.403 55.6467C168.321 55.7656 168.209 55.86 168.077 55.9199L152.604 64.8396C152.186 65.0273 151.73 65.1169 151.273 65.1016C150.815 65.0862 150.367 64.9663 149.962 64.7511Z" fill="#ECEBEC"/>
<path d="M157.92 53.95L151.421 57.1925V65.1273C151.843 65.1496 152.263 65.0579 152.637 64.8617L168.111 55.942C168.242 55.8821 168.354 55.7877 168.436 55.6688C168.518 55.5499 168.566 55.411 168.575 55.2669V52.456L157.92 53.95Z" fill="#D0D0D0"/>
<path d="M149.962 61.9733L146.226 59.76L164.143 49.4016L167.878 51.6149C168.674 52.0687 168.763 52.7216 168.077 53.1643L152.604 62.084C152.184 62.2683 151.728 62.3542 151.27 62.335C150.812 62.3159 150.365 62.1921 149.962 61.9733V61.9733Z" fill="white"/>
<path d="M168.531 52.456C168.507 52.2663 168.434 52.086 168.32 51.9328C168.205 51.7796 168.053 51.6586 167.878 51.5817L164.143 49.3684L146.226 59.76V62.5709L149.962 64.7289C150.37 64.9548 150.826 65.0824 151.292 65.1016C151.758 65.1208 152.222 65.0311 152.648 64.8396L168.122 55.9199C168.253 55.86 168.365 55.7656 168.447 55.6467C168.529 55.5278 168.577 55.3889 168.586 55.2448C168.542 54.9681 168.531 52.456 168.531 52.456Z" stroke="#B2B1B2" stroke-width="0.66" stroke-linecap="round" stroke-linejoin="round"/>
<path d="M149.962 61.9733L146.226 59.76L164.143 49.4016L167.878 51.6149C168.674 52.0687 168.763 52.7216 168.077 53.1643L152.604 62.084C152.184 62.2683 151.728 62.3542 151.27 62.335C150.812 62.3159 150.365 62.1921 149.962 61.9733Z" stroke="#B1B1B1" stroke-width="0.66" stroke-linejoin="round"/>
</svg>
