<svg width="24" height="24" viewBox="0 0 24 24" xmlns="http://www.w3.org/2000/svg">
<path fill-rule="evenodd" clip-rule="evenodd" d="M3.5 6C3.5 5.17157 4.17157 4.5 5 4.5C5.82843 4.5 6.5 5.17157 6.5 6C6.5 6.82843 5.82843 7.5 5 7.5C4.17157 7.5 3.5 6.82843 3.5 6ZM5 2.5C3.067 2.5 1.5 4.067 1.5 6C1.5 7.933 3.067 9.5 5 9.5C6.32397 9.5 7.47623 8.76487 8.0709 7.68053L15.5106 9.27476C15.5445 9.71075 15.6582 10.1243 15.8372 10.5009L10.8243 15.0125C10.2931 14.6874 9.66843 14.5 9 14.5C7.067 14.5 5.5 16.067 5.5 18C5.5 19.933 7.067 21.5 9 21.5C10.933 21.5 12.5 19.933 12.5 18C12.5 17.4627 12.3789 16.9537 12.1626 16.4988L17.1753 11.9873C17.7066 12.3125 18.3314 12.5 19 12.5C20.933 12.5 22.5 10.933 22.5 9C22.5 7.067 20.933 5.5 19 5.5C17.6762 5.5 16.524 6.23495 15.9293 7.31908L8.48934 5.72479C8.34899 3.92044 6.84038 2.5 5 2.5ZM9 16.5C8.17157 16.5 7.5 17.1716 7.5 18C7.5 18.8284 8.17157 19.5 9 19.5C9.82843 19.5 10.5 18.8284 10.5 18C10.5 17.1716 9.82843 16.5 9 16.5ZM17.5 9C17.5 8.17157 18.1716 7.5 19 7.5C19.8284 7.5 20.5 8.17157 20.5 9C20.5 9.82843 19.8284 10.5 19 10.5C18.1716 10.5 17.5 9.82843 17.5 9Z"/>
</svg>
