<svg width="18" height="17" viewBox="0 0 18 17" fill="none" xmlns="http://www.w3.org/2000/svg">
<path fill-rule="evenodd" clip-rule="evenodd" d="M5.375 4.50914C6.37345 2.3508 8.52631 0.972986 10.894 0.977C13.5939 0.970549 15.9784 2.75432 16.751 5.35846C17.5236 7.9626 16.4996 10.7647 14.2358 12.2412C11.9721 13.7177 9.00957 13.5157 6.95908 11.745L6.1976 12.5086L6.41046 12.7235C6.51737 12.8179 6.57052 12.9597 6.55216 13.1015C6.55494 13.281 6.48525 13.4539 6.35901 13.5807L3.24199 16.7367C3.1173 16.8671 2.94499 16.9404 2.76503 16.9397L2.74474 16.9396C2.56627 16.9421 2.3943 16.8717 2.26811 16.7445L1.18356 15.6496C0.924587 15.3863 0.924942 14.9624 1.18436 14.7004L4.36216 11.6466C4.62769 11.3971 5.04048 11.3981 5.3056 11.649L5.46778 11.8127L6.23941 11.039C4.71375 9.21463 4.37656 6.66748 5.375 4.50914ZM6.32373 7.08511C6.32161 9.62173 8.36373 11.6833 10.8849 11.6897C12.0957 11.6928 13.2572 11.2119 14.1141 10.3527C14.9709 9.49353 15.4528 8.32652 15.4539 7.10839C15.456 4.57177 13.4139 2.51023 10.8926 2.5038C8.37143 2.49737 6.32586 4.54849 6.32373 7.08511Z" fill="#808080"/>
</svg>
