<svg width="24" height="24" viewBox="0 0 24 24" fill="none" xmlns="http://www.w3.org/2000/svg">
<path fill-rule="evenodd" clip-rule="evenodd" d="M4.5 12.5996V14C2.59521 13.958 1.5 13.2627 1.5 11.667V8.86621C1.5 8.16699 1.09521 7.93359 0 7.93359V6.06641C1.09521 6.05273 1.5 5.83301 1.5 5.13281V2.33301C1.5 0.466797 3 0 4.60498 0V1.39941C3.5 1.39941 3 1.86621 3 2.7998V5.13281C3 6.18262 2.50488 6.86914 1.36523 6.95312C2.50488 7.03711 3 7.70898 3 8.75977V11.3633C3 12.5049 3.63916 12.5449 4.32764 12.5879L4.5 12.5996ZM9.5 12.5996V14C11.4048 13.958 12.5 13.2627 12.5 11.667V8.86621C12.5 8.16699 12.9048 7.93359 14 7.93359V6.06641C12.9048 6.05273 12.5 5.83301 12.5 5.13281V2.33301C12.5 0.466797 11 0 9.39502 0V1.39941C10.5 1.39941 11 1.86621 11 2.7998V5.13281C11 6.18262 11.4951 6.86914 12.6348 6.95312C11.4951 7.03711 11 7.70898 11 8.75977V11.3633C11 12.5049 10.3608 12.5449 9.67236 12.5879L9.5 12.5996Z" transform="translate(5 5)" fill="#4679B9"/>
</svg>
