<svg width="12" height="14" viewBox="0 0 12 14" xmlns="http://www.w3.org/2000/svg">
  <path d="M7.49815 2.87425C7.49792 3.11326 7.54375 3.35008 7.63315 3.57175L3.74815 5.89675C2.94315 5.27463 1.7889 5.40799 1.14697 6.19728C0.505033 6.98657 0.609657 8.14377 1.38274 8.80513C2.15583 9.46648 3.31528 9.39065 3.99565 8.63425L7.54315 10.7492C7.51471 10.8773 7.49962 11.008 7.49815 11.1392C7.49436 12.044 8.13713 12.8223 9.02623 12.9897C9.91533 13.1571 10.7972 12.6658 11.1226 11.8216C11.4481 10.9774 11.1243 10.0213 10.353 9.5485C9.58162 9.07571 8.58267 9.22114 7.97815 9.89425L4.46065 7.74925C4.48566 7.62581 4.49822 7.50019 4.49815 7.37425C4.50033 7.13019 4.45446 6.88809 4.36315 6.66175L8.24815 4.35175C8.94382 4.8735 9.90693 4.84846 10.5746 4.29128C11.2422 3.7341 11.4391 2.791 11.0502 2.01322C10.6613 1.23544 9.78868 0.827115 8.94236 1.0269C8.09604 1.22669 7.49815 1.98216 7.49815 2.85175V2.87425Z"/>
</svg>
