<svg width="24" height="24" viewBox="0 0 24 24" fill="none" xmlns="http://www.w3.org/2000/svg">
<path d="M12 23C16.41 23 20.8469 21.9055 21.8913 20.5602C21.9621 20.4688 22 20.3607 22 20.25V4.575C22 2.2529 16.8481 1 12 1C7.15188 1 2 2.2529 2 4.575V20.25C1.99996 20.3607 2.03786 20.4688 2.10875 20.5602C3.20688 21.9737 7.36625 23 12 23ZM12 2.1C17.4212 2.1 20.75 3.54155 20.75 4.575C20.75 5.60845 17.4212 7.05 12 7.05C6.57875 7.05 3.25 5.60845 3.25 4.575C3.25 3.54155 6.57875 2.1 12 2.1ZM3.25 6.37515C3.26875 6.38725 3.29062 6.39825 3.30937 6.4098C3.34562 6.43235 3.38438 6.4538 3.42188 6.4758C3.54438 6.54913 3.67354 6.61898 3.80938 6.68535C3.85187 6.70625 3.89312 6.7277 3.93437 6.7486C4.10687 6.83037 4.28792 6.90883 4.4775 6.984C4.50938 6.99665 4.54375 7.0082 4.57625 7.02085C4.74292 7.08355 4.91458 7.14405 5.09125 7.20235L5.26313 7.25735C5.47188 7.32225 5.68562 7.38495 5.9075 7.44325L5.91875 7.44655C6.14563 7.5054 6.38125 7.55985 6.62062 7.61155C6.68313 7.62585 6.74937 7.63905 6.81437 7.65225C7.01625 7.69405 7.22062 7.7331 7.42875 7.7694C7.475 7.77765 7.52062 7.78645 7.56687 7.79415C7.81687 7.83595 8.06687 7.8739 8.32563 7.908C8.38813 7.9168 8.45062 7.9245 8.51312 7.9322C8.7225 7.95915 8.93437 7.98335 9.1475 8.0048C9.21 8.0114 9.27625 8.01855 9.34062 8.0246C9.60521 8.0499 9.87104 8.07135 10.1381 8.08895L10.28 8.09665C10.5067 8.11058 10.7342 8.12158 10.9625 8.12965L11.1825 8.1368C11.4531 8.1445 11.7244 8.15 11.995 8.15C12.2656 8.15 12.5363 8.1445 12.8075 8.1368L13.0275 8.12965C13.2554 8.12122 13.4829 8.11022 13.71 8.09665L13.8519 8.08895C14.1194 8.07135 14.3852 8.0499 14.6494 8.0246C14.7119 8.01855 14.7781 8.0114 14.8425 8.0048C15.0556 7.98335 15.2675 7.95915 15.4769 7.9322C15.5394 7.9245 15.6019 7.9168 15.6644 7.908C15.9206 7.8739 16.1744 7.83595 16.4231 7.79415C16.4694 7.78645 16.515 7.77765 16.5613 7.7694C16.7694 7.7331 16.9738 7.69405 17.1756 7.65225C17.2381 7.63905 17.305 7.62585 17.3694 7.61155C17.6087 7.55985 17.8444 7.5054 18.0713 7.44655L18.0825 7.44325C18.3044 7.38495 18.52 7.32225 18.7269 7.25735L18.8988 7.20235C19.0754 7.14405 19.2471 7.08355 19.4137 7.02085C19.4462 7.0082 19.4806 6.99665 19.5125 6.984C19.7025 6.91067 19.8835 6.8322 20.0556 6.7486C20.0994 6.7277 20.1406 6.70625 20.1806 6.68535C20.316 6.61752 20.4452 6.54767 20.5681 6.4758C20.6056 6.4538 20.6444 6.43235 20.6806 6.4098C20.6994 6.39825 20.7212 6.38725 20.74 6.37515V9.525C20.74 10.3588 18.57 11.4577 14.8837 11.8515C14.7806 11.8619 14.6756 11.8713 14.5712 11.8807C14.4294 11.8939 14.2856 11.9065 14.14 11.9175C13.9944 11.9285 13.8406 11.939 13.6894 11.9478C13.5506 11.956 13.4094 11.9626 13.2675 11.9692C13.1256 11.9758 13.0006 11.9813 12.865 11.9857C12.5788 11.994 12.2887 12 11.99 12C11.6912 12 11.4012 11.994 11.115 11.9857C10.9794 11.9813 10.8462 11.9753 10.7125 11.9692C10.5787 11.9632 10.4294 11.956 10.2906 11.9478C10.1394 11.939 9.98875 11.9285 9.84 11.9175C9.69125 11.9065 9.55062 11.8939 9.40875 11.8807C9.30438 11.8713 9.19938 11.8619 9.09625 11.8515C5.42 11.4577 3.25 10.3588 3.25 9.525V6.37515ZM3.25 11.5248C4.83938 12.3581 7.60125 12.9416 10.7069 13.0703H10.7619C10.9344 13.0774 11.1069 13.0841 11.2812 13.0879C11.5212 13.094 11.7612 13.0978 12 13.0978C12.2388 13.0978 12.4788 13.094 12.7188 13.0879C12.8931 13.0841 13.0656 13.0774 13.2381 13.0703H13.2931C16.3988 12.9416 19.1606 12.3581 20.75 11.5248V14.475C20.75 15.3088 18.58 16.4077 14.8937 16.8015C14.7906 16.8119 14.6856 16.8213 14.5812 16.8307C14.4394 16.8439 14.2956 16.8565 14.15 16.8675C14.0044 16.8785 13.8506 16.8889 13.6994 16.8977C13.5606 16.906 13.4194 16.9126 13.2775 16.9192C13.1356 16.9258 13.0106 16.9313 12.875 16.9357C12.5887 16.9439 12.2987 16.95 12 16.95C11.7013 16.95 11.4113 16.9439 11.125 16.9357C10.9894 16.9313 10.8562 16.9253 10.7225 16.9192C10.5887 16.9132 10.4394 16.906 10.3006 16.8977C10.1494 16.8889 9.99875 16.8785 9.85 16.8675C9.70125 16.8565 9.56063 16.8439 9.41875 16.8307C9.31437 16.8213 9.20937 16.8119 9.10625 16.8015C5.42 16.4077 3.25 15.3088 3.25 14.475V11.5248ZM3.25 16.4748C4.83938 17.3081 7.60125 17.8916 10.7069 18.0203H10.7619C10.9344 18.0275 11.1069 18.034 11.2812 18.0379C11.5212 18.044 11.7612 18.0478 12 18.0478C12.2388 18.0478 12.4788 18.044 12.7188 18.0379C12.8931 18.034 13.0656 18.0275 13.2381 18.0203H13.2931C16.3988 17.8916 19.1606 17.3081 20.75 16.4748V20.0564C19.875 20.8627 16.3337 21.9 12 21.9C7.79625 21.9 4.1925 20.9705 3.25 20.0597V16.4748Z" fill="#3C3C3C"/>
</svg>
