<svg width="24" height="24" viewBox="0 0 24 24" xmlns="http://www.w3.org/2000/svg">
<path fill-rule="evenodd" clip-rule="evenodd" d="M3.99969 22H5.99969C6.53152 21.9535 6.95319 21.5318 6.99969 21V19.61C8.74196 21.0494 10.9025 21.8877 13.1597 22H13.3797C15.2999 22.0501 17.1741 21.4076 18.6597 20.19C19.2867 19.614 19.8592 18.9814 20.3697 18.3C20.5297 18.1129 20.5297 17.8371 20.3697 17.65L18.3697 15.65C18.2695 15.5554 18.1375 15.5019 17.9997 15.5C17.8609 15.4964 17.7268 15.5508 17.6297 15.65C17.6289 15.6508 17.6236 15.6568 17.6143 15.6675C17.5103 15.7862 16.8979 16.486 16.2097 17.11C15.3947 17.7563 14.3672 18.0738 13.3297 18H13.1797C12.0213 17.9753 10.8927 17.629 9.91969 17H10.9997C11.5353 16.9616 11.9613 16.5356 11.9997 16V14C11.9946 13.7502 11.8902 13.5127 11.7097 13.34C11.5295 13.1344 11.2729 13.0115 10.9997 13H4.48969C4.08223 12.969 3.68176 13.1188 3.39474 13.4097C3.10772 13.7005 2.96323 14.103 2.99969 14.51V21C3.00345 21.2638 3.11128 21.5154 3.29969 21.7C3.48432 21.8884 3.73592 21.9962 3.99969 22ZM6 21H4V14.5C4 14.08 4.19 14 4.49 14H11V16H8.5C8.31005 16.0132 8.14407 16.1331 8.07189 16.3093C7.99972 16.4855 8.03388 16.6874 8.16 16.83C9.48518 18.17 11.2761 18.9473 13.16 19H13.33C14.6067 19.0794 15.8667 18.676 16.86 17.87C17.31 17.46 17.72 17.03 18 16.73L19.3 18.08C18.9052 18.581 18.4704 19.0492 18 19.48C16.6912 20.5226 15.0522 21.0618 13.38 21H13.18C10.8 20.8339 8.55648 19.8273 6.85 18.16C6.70874 18.0108 6.49057 17.9632 6.3 18.04C6.1154 18.1176 5.99661 18.2998 6 18.5V21Z"/>
<path fill-rule="evenodd" clip-rule="evenodd" d="M12.9998 12H19.5298C19.9348 12.0352 20.3343 11.8874 20.6189 11.597C20.9034 11.3067 21.0432 10.9042 20.9998 10.5V4C20.9857 3.74531 20.8748 3.50562 20.6898 3.33C20.5126 3.13292 20.2644 3.01422 19.9998 3H17.9998C17.4716 3.05413 17.0539 3.47176 16.9998 4V5.42C15.2641 3.97176 13.107 3.12295 10.8498 3H10.6298C8.6938 2.93492 6.79995 3.5745 5.2998 4.8C4.685 5.39064 4.12597 6.03671 3.6298 6.73C3.46975 6.91712 3.46975 7.19289 3.6298 7.38L5.6298 9.38C5.72625 9.48026 5.86076 9.53479 5.9998 9.53C6.14515 9.53127 6.28387 9.46921 6.3798 9.36C6.38062 9.35918 6.38586 9.3532 6.39519 9.34253C6.49915 9.22375 7.11158 8.52398 7.7998 7.9C8.61287 7.24927 9.64088 6.92802 10.6798 7H10.8298C11.9914 7.02393 13.1235 7.37014 14.0998 8H12.9998C12.4642 8.0384 12.0382 8.46443 11.9998 9V11C12.0008 11.2575 12.1011 11.5046 12.2798 11.69C12.4676 11.887 12.7276 11.999 12.9998 12ZM19.5302 11H17.5302L13.0002 10.98V8.98H15.4702C15.6606 9.00056 15.8438 8.90097 15.9302 8.73C16.0128 8.55003 15.9814 8.33827 15.8502 8.19C14.5288 6.84176 12.7371 6.05699 10.8502 6H10.6802C9.39465 5.92824 8.12971 6.34631 7.14016 7.17C6.69016 7.58 6.28016 8.01 6.00016 8.31L4.66016 7C5.06635 6.48387 5.51455 6.00223 6.00016 5.56C7.30604 4.5008 8.94955 3.94704 10.6302 4H10.8302C13.2095 4.18518 15.4457 5.20938 17.1402 6.89C17.2837 7.03572 17.5016 7.07929 17.6902 7C17.8787 6.92554 18.0019 6.74269 18.0002 6.54V4H20.0002V10.54C20.0002 11 19.8302 11 19.5302 11Z"/>
</svg>
