<svg width="17" height="16" viewBox="0 0 17 16" fill="none" xmlns="http://www.w3.org/2000/svg">
<path fill-rule="evenodd" clip-rule="evenodd" d="M7.29678 12.4825C7.29678 11.9485 7.70763 11.515 8.21223 11.515C8.71682 11.515 9.12768 11.9485 9.12768 12.4825C9.12768 13.0166 8.71682 13.45 8.21223 13.45C7.70763 13.45 7.29678 13.0166 7.29678 12.4825ZM7.47987 10.5475H8.94459V5.90358H7.47987V10.5475ZM9.01199 0.487231C8.6767 -0.16241 7.74775 -0.162411 7.41246 0.48723L0.101438 14.6527C-0.207722 15.2517 0.227112 15.9655 0.901202 15.9655H15.5233C16.1973 15.9655 16.6322 15.2517 16.323 14.6527L9.01199 0.487231ZM8.21223 2.17062L14.5332 14.4175H1.89122L8.21223 2.17062Z" fill="#EC4A41"/>
</svg>
