<svg id="emoji" viewBox="0 0 72 72" xmlns="http://www.w3.org/2000/svg">
  <g id="color">
    <circle cx="48.4645" cy="23.7594" r="2.1014" fill="#fff"/>
    <path fill="#fcea2b" d="m16.12,48.114c-3.1584,3.1634-4.6518,7.5601-3.97,11.688,4.128.6763,8.5223-.8196,11.683-3.977,3.1584-3.1634,4.6518-7.5601,3.97-11.688-4.128-.6763-8.5223.8196-11.683,3.977Z"/>
    <path fill="#61b2e4" d="m31.973,45.839c-.1919.966-.6657,1.8536-1.3616,2.5507-.3389.3373-.7246.6241-1.1452.8516,2.1626,2.9716,3.7579,6.2847,4.6952,9.7506.7092-.6216,1.3906-1.2786,2.0417-1.9685,1.9136-2.0343,3.5491-4.3376,4.8516-6.8326,1.2507-2.4201,2.1751-4.9922,2.7442-7.6354-3.7285,1.9544-7.7719,3.0771-11.826,3.2837h0Z"/>
    <path fill="#92d3f5" d="m14.923,35.749c-.69.65-1.3472,1.3303-1.9691,2.0383,3.4682.9313,6.7846,2.521,9.7604,4.6784.2264-.414.5104-.7939.8435-1.1281.6949-.6935,1.5791-1.1665,2.5417-1.3598.2106-4.0507,1.3364-8.0899,3.293-11.814.0019-.0037.0037-.0074.0056-.0112-2.645.5687-5.2188,1.4928-7.6405,2.7434-2.496,1.303-4.7999,2.9389-6.8346,4.853h0Z"/>
    <path fill="#ea5a47" d="m34.821,20.747c-5.2314,5.2507-8.3665,12.1635-8.7228,19.233,1.6376-.3318,3.3326.1781,4.515,1.3584,1.186,1.1868,1.6956,2.8903,1.356,4.5332,7.0754-.3609,13.9919-3.5024,19.242-8.7398,6.7117-6.7229,9.8843-16.067,8.4337-24.839-1.7318-.2827-3.5044-.3879-5.2915-.3141-7.1741.2926-14.2097,3.4508-19.532,8.7677l-.0004.0006Zm10.249-.5291c1.8412-1.8413,4.8269-1.8418,6.6687-.0012.0004.0004.0008.0008.0012.0012,1.8418,1.8407,1.8424,4.8255.0012,6.6667-.0004.0004-.0008.0008-.0012.0012-1.8419,1.8404-4.8274,1.8398-6.6685-.0014-1.8417-1.8406-1.8424-4.8252-.0014-6.6665Z"/>
    <path fill="#f1b31c" d="m26.538,52.037c-.8756.9831-1.8894,1.8467-3.0072,2.5617-3.4907,2.2228-7.7244,2.8345-11.441,1.653-.1495,1.1964-.1293,2.3916.06,3.5496,4.128.6763,8.5223-.8195,11.683-3.9769,1.1048-1.1131,2.0209-2.3956,2.7055-3.7874h-.0003Z"/>
    <path fill="#d22f27" d="m26.204,38.687c-.033.4281-.0559.8558-.0684,1.283,1.6271-.316,3.305.1967,4.4773,1.3682,1.186,1.1868,1.6956,2.8903,1.356,4.5332,7.075-.3618,13.9907-3.5038,19.24-8.7412,1.4932-1.5067,2.8266-3.1619,3.9746-4.9339-1.3472,1.2267-2.8051,2.3344-4.353,3.3074-7.5574,4.7109-16.6938,5.8918-24.627,3.1832h.0005Z"/>
    <path fill="#61b2e4" d="m24.039,48.551c.8703-.4372,1.7206-.9178,2.5501-1.438,2.4433-1.5323,4.6776-3.4046,6.6294-5.5552l.0028-.0028c1.8803-2.0911,3.4745-4.4187,4.7329-6.9122.061-.1204.0967-.252.1047-.3867-3.3985-.7533-14.846,10.251-14.0199,14.2949h0Z"/>
  </g>
  <g id="line">
    <path d="m48.405,29.49c-3.2761,0-5.941-2.6641-5.941-5.9392s2.6649-5.9392,5.941-5.9392,5.941,2.6641,5.941,5.9392-2.6649,5.9392-5.941,5.9392Zm0-9.8987c-2.1839,0-3.9607,1.7757-3.9607,3.9595s1.7768,3.9595,3.9607,3.9595,3.9607-1.7758,3.9607-3.9595-1.7769-3.9595-3.9607-3.9595Z"/>
    <path fill="none" stroke="#000" stroke-linecap="round" stroke-linejoin="round" stroke-width="1.949" d="m20.653,45.063c-1.678.7083-3.2222,1.7475-4.5331,3.0508-3.1581,3.1631-4.6517,7.5594-3.9703,11.687,4.128.6762,8.5221-.8196,11.683-3.9769,1.3043-1.3104,2.3446-2.8541,3.0537-4.5318"/>
    <path fill="none" stroke="#000" stroke-linecap="round" stroke-linejoin="round" stroke-width="1.949" d="m14.923,35.749c-.69.65-1.3472,1.3303-1.9691,2.0383,3.4682.9313,6.7846,2.521,9.7604,4.6784.2264-.414.5104-.7939.8435-1.1281.6949-.6935,1.5791-1.1665,2.5417-1.3598.2106-4.0507,1.3364-8.0899,3.293-11.814.0019-.0037.0037-.0074.0056-.0112-2.645.5687-5.2188,1.4928-7.6405,2.7434-2.496,1.303-4.7999,2.9389-6.8346,4.853h0Z"/>
    <path fill="none" stroke="#000" stroke-linecap="round" stroke-linejoin="round" stroke-width="1.949" d="m31.973,45.839c-.1919.966-.6657,1.8536-1.3616,2.5507-.3389.3373-.7246.6241-1.1452.8516,2.1626,2.9716,3.7579,6.2847,4.6952,9.7506.7092-.6216,1.3906-1.2786,2.0417-1.9685,1.9136-2.0343,3.5491-4.3376,4.8516-6.8326,1.2507-2.4201,2.1751-4.9922,2.7442-7.6354-3.7285,1.9544-7.7719,3.0771-11.826,3.2837h0Z"/>
    <path fill="none" stroke="#000" stroke-linecap="round" stroke-linejoin="round" stroke-width="1.949" d="m31.83,43.345c.2696.8863.2506,1.6919.1371,2.5245,7.0759-.3611,13.993-3.5031,19.243-8.7412,6.7106-6.7215,9.8836-16.063,8.4351-24.834-8.7712-1.4365-18.108,1.742-24.823,8.4508-5.2322,5.2509-8.3679,12.164-8.7242,19.234.9413-.1907,1.8984-.0942,2.7693.2387"/>
    <path fill="none" stroke="#000" stroke-linecap="round" stroke-linejoin="round" stroke-width="1.949" d="m37.072,34.196h-.0002c-2.4156,1.2183-4.6724,2.7626-6.6996,4.5844-2.0849,1.8911-3.9,4.0556-5.3844,6.4211-.5039.8031-.9684,1.6273-1.3917,2.4694"/>
  </g>
</svg>
