<?xml version="1.0" encoding="UTF-8" standalone="no"?>
<!DOCTYPE svg PUBLIC "-//W3C//DTD SVG 1.1//EN" "http://www.w3.org/Graphics/SVG/1.1/DTD/svg11.dtd">
<!-- Generated by Microsoft Visio, SVG Export Routerlicious-Architecture.svg Routerlicious -->
<svg xmlns="http://www.w3.org/2000/svg" xmlns:xlink="http://www.w3.org/1999/xlink" xmlns:ev="http://www.w3.org/2001/xml-events"
		xmlns:v="http://schemas.microsoft.com/visio/2003/SVGExtensions/" width="11in" height="8.5in" viewBox="0 0 792 612"
		xml:space="preserve" color-interpolation-filters="sRGB" class="st29">
	<v:documentProperties v:langID="1033" v:viewMarkup="false">
		<v:userDefs>
			<v:ud v:nameU="msvNoAutoConnect" v:val="VT0(1):26"/>
			<v:ud v:nameU="msvWarnOnPersonalInfo" v:val="VT0(0):5"/>
		</v:userDefs>
	</v:documentProperties>

	<style type="text/css">
	<![CDATA[
		.st1 {fill:#4672c4}
		.st2 {stroke:#4672c4;stroke-linecap:round;stroke-linejoin:round;stroke-width:1}
		.st3 {fill:#ffffff;stroke:none;stroke-linecap:butt;stroke-width:7.2}
		.st4 {fill:#3c63ac;font-family:Calibri;font-size:1.00001em}
		.st5 {fill:#232f3e;stroke:none;stroke-linecap:butt;stroke-width:0.75}
		.st6 {fill:#000000;font-family:Calibri;font-size:0.75em}
		.st7 {fill:#3c63ac;font-family:Calibri;font-size:0.833336em}
		.st8 {fill:#e7edf8;stroke:#939393;stroke-width:0.25}
		.st9 {fill:#000000;font-family:Calibri;font-size:0.833336em;font-weight:bold}
		.st10 {fill:#ed7d31;stroke:#c7c8c8;stroke-width:0.25}
		.st11 {fill:#feffff;font-family:Calibri;font-size:1.00001em}
		.st12 {fill:#ffffff;fill-opacity:0;stroke:none;stroke-linecap:butt;stroke-width:0.75}
		.st13 {fill:#606771;font-family:Segoe UI;font-size:0.833336em;font-weight:bold}
		.st14 {fill:#70ad47;stroke:#c7c8c8;stroke-width:0.25}
		.st15 {marker-end:url(#mrkr4-72);stroke:#4672c4;stroke-linecap:round;stroke-linejoin:round;stroke-width:1}
		.st16 {fill:#4672c4;fill-opacity:1;stroke:#4672c4;stroke-opacity:1;stroke-width:0.28409090909091}
		.st17 {fill:#f7cbac;stroke:#939393;stroke-width:0.25}
		.st18 {fill:#3d64ac;font-family:Calibri;font-size:1.00001em}
		.st19 {font-size:1em}
		.st20 {stroke:#c7c8c8;stroke-width:0.25}
		.st21 {fill:#feffff;font-family:Calibri;font-size:1.00001em;font-weight:bold}
		.st22 {fill:#718bcc;stroke:#718bcc;stroke-linecap:round;stroke-linejoin:round;stroke-width:0.25}
		.st23 {fill:#7f7f7f;font-family:Calibri;font-size:1.00001em}
		.st24 {fill:#f2f2f2;stroke:#c7c8c8;stroke-width:0.25}
		.st25 {fill:#6f6f6f;font-family:Calibri;font-size:1.33333em;font-weight:bold}
		.st26 {fill:#3d64ac;font-family:Calibri;font-size:0.666664em}
		.st27 {marker-end:url(#mrkr4-72);marker-start:url(#mrkr4-166);stroke:#4672c4;stroke-linecap:round;stroke-linejoin:round;stroke-width:1}
		.st28 {fill:#7b7b7b;font-family:Calibri;font-size:1.00001em}
		.st29 {fill:none;fill-rule:evenodd;font-size:12px;overflow:visible;stroke-linecap:square;stroke-miterlimit:3}
	]]>
	</style>

	<defs id="Markers">
		<g id="lend4">
			<path d="M 2 1 L 0 0 L 2 -1 L 2 1 " style="stroke:none"/>
		</g>
		<marker id="mrkr4-72" class="st16" v:arrowType="4" v:arrowSize="2" v:setback="7.04" refX="-7.04" orient="auto"
				markerUnits="strokeWidth" overflow="visible">
			<use xlink:href="#lend4" transform="scale(-3.52,-3.52) "/>
		</marker>
		<marker id="mrkr4-166" class="st16" v:arrowType="4" v:arrowSize="2" v:setback="6.68" refX="6.68" orient="auto"
				markerUnits="strokeWidth" overflow="visible">
			<use xlink:href="#lend4" transform="scale(3.52) "/>
		</marker>
	</defs>
	<g v:mID="4" v:index="1" v:groupContext="foregroundPage">
		<v:userDefs>
			<v:ud v:nameU="msvThemeOrder" v:val="VT0(0):26"/>
		</v:userDefs>
		<title>Routerlicious</title>
		<v:pageProperties v:drawingScale="1" v:pageScale="1" v:drawingUnits="19" v:shadowOffsetX="9" v:shadowOffsetY="-9"/>
		<v:layer v:name="Text and Annotations" v:index="0"/>
		<v:layer v:name="Connector" v:index="1"/>
		<v:layer v:name="Common Icons" v:index="2"/>
		<v:layer v:name="Flowchart" v:index="3"/>
		<g id="shape1042-1" v:mID="1042" v:groupContext="shape" transform="translate(1015.44,199.677) rotate(89.4449)">
			<title>Line Double Arrow.94</title>
			<desc>​Metadata</desc>
			<v:userDefs>
				<v:ud v:nameU="Scale" v:val="VT0(1):26"/>
				<v:ud v:nameU="AntiScale" v:val="VT0(1):26"/>
				<v:ud v:nameU="visVersion" v:val="VT0(17):26"/>
			</v:userDefs>
			<v:textBlock v:margins="rect(4,4,4,4)"/>
			<v:textRect cx="41.2433" cy="612" width="82.49" height="0" transform="rotate(-180)"/>
			<path d="M5.67 609.17 L5.67 614.83 L0 612 L5.67 609.17 ZM76.82 609.17 L76.82 614.83 L82.49 612 L76.82 609.17 Z"
					class="st1"/>
			<path d="M5.67 609.17 L5.67 614.83 L0 612 L5.67 609.17" class="st2"/>
			<path d="M76.82 609.17 L76.82 614.83 L82.49 612 L76.82 609.17" class="st2"/>
			<path d="M5.67 612 L76.82 612" class="st2"/>
			<rect v:rectContext="textBkgnd" x="-65.1527" y="-619.2" width="47.8188" height="14.4001" transform="rotate(180)"
					class="st3"/>
			<text x="-5.429em" y="-608.4" transform="rotate(180)" class="st4" v:langID="1033"><v:paragraph v:horizAlign="1"/><v:tabList/>​Metadata</text>		</g>
		<g id="group1000-8" transform="translate(40.5,-272.25)" v:mID="1000" v:groupContext="group">
			<v:userDefs>
				<v:ud v:nameU="msvDisableCustomConnectionPoints" v:prompt="" v:val="VT4(True)"/>
			</v:userDefs>
			<title>Users.15</title>
			<desc>Users</desc>
			<g id="group1001-9" v:mID="1001" v:groupContext="group">
				<v:userDefs>
					<v:ud v:nameU="msvDisableCustomConnectionPoints" v:prompt="" v:val="VT0(1):5"/>
				</v:userDefs>
				<title>Sheet.1001</title>
				<g id="shape1002-10" v:mID="1002" v:groupContext="shape" transform="translate(-1.79856E-13,-17.1273)">
					<title>Sheet.1002</title>
					<v:userDefs>
						<v:ud v:nameU="msvDisableCustomConnectionPoints" v:prompt="" v:val="VT0(1):5"/>
					</v:userDefs>
					<path d="M10.11 612 L0.77 612 C0.57 612 0.37 611.92 0.23 611.78 C0.08 611.63 0 611.44 0 611.24 L0 610.1 C0 608.06
								 0.69 606.09 1.95 604.49 C3.21 602.89 4.98 601.76 6.97 601.29 C7.15 601.24 7.35 601.27 7.52 601.36
								 C8.1 601.67 8.75 601.83 9.41 601.83 C10.07 601.83 10.72 601.67 11.3 601.36 C11.46 601.27 11.66 601.24
								 11.85 601.29 C12.89 601.54 13.88 601.97 14.77 602.56 L13.91 603.83 C13.25 603.4 12.52 603.07 11.76
								 602.86 C11.02 603.2 10.22 603.37 9.41 603.37 C8.6 603.37 7.8 603.2 7.06 602.86 C5.47 603.31 4.07
								 604.25 3.08 605.56 C2.08 606.87 1.54 608.46 1.54 610.1 L1.54 610.48 L10.11 610.48 L10.11 612 L10.11
								 612 Z" class="st5"/>
				</g>
				<g id="shape1003-12" v:mID="1003" v:groupContext="shape" transform="translate(4.36937,-25.785)">
					<title>Sheet.1003</title>
					<v:userDefs>
						<v:ud v:nameU="msvDisableCustomConnectionPoints" v:prompt="" v:val="VT0(1):5"/>
					</v:userDefs>
					<path d="M5.03 612 C3.69 612 2.42 611.47 1.47 610.54 C0.53 609.6 0 608.33 0 607 C0 605.68 0.53 604.41 1.47 603.47
								 C2.41 602.54 3.69 602.01 5.03 602.01 C6.15 602 7.24 602.36 8.13 603.04 C9.02 603.72 9.65 604.67
								 9.93 605.75 C10.21 606.83 10.12 607.97 9.67 608.99 C9.23 610.01 8.45 610.85 7.46 611.38 C6.71 611.79
								 5.88 612 5.03 612 ZM5.03 603.53 C4.1 603.53 3.2 603.89 2.54 604.54 C1.88 605.19 1.5 606.08 1.49
								 607 C1.49 607.63 1.66 608.24 1.98 608.78 C2.3 609.31 2.77 609.75 3.32 610.05 C3.84 610.33 4.43 610.48
								 5.03 610.48 C5.62 610.48 6.21 610.33 6.73 610.05 C7.42 609.68 7.96 609.09 8.27 608.38 C8.58 607.67
								 8.64 606.88 8.45 606.13 C8.25 605.38 7.81 604.72 7.19 604.25 C6.57 603.78 5.81 603.53 5.03 603.54
								 L5.03 603.53 L5.03 603.53 Z" class="st5"/>
				</g>
				<g id="shape1004-14" v:mID="1004" v:groupContext="shape" transform="translate(21.201,-17.1273)">
					<title>Sheet.1004</title>
					<v:userDefs>
						<v:ud v:nameU="msvDisableCustomConnectionPoints" v:prompt="" v:val="VT0(1):5"/>
					</v:userDefs>
					<path d="M14.05 612 L4.71 612 L4.71 610.48 L13.28 610.48 L13.28 610.1 C13.28 608.46 12.73 606.86 11.74 605.56
								 C10.74 604.25 9.34 603.3 7.75 602.86 C7.01 603.2 6.21 603.38 5.4 603.38 C4.59 603.38 3.79 603.2
								 3.05 602.86 C2.27 603.07 1.53 603.42 0.87 603.87 L0 602.63 C0.89 602.01 1.88 601.55 2.93 601.29
								 C3.12 601.25 3.32 601.27 3.49 601.36 C4.07 601.68 4.72 601.84 5.38 601.84 C6.05 601.84 6.7 601.68
								 7.28 601.36 C7.45 601.27 7.64 601.25 7.82 601.29 C9.81 601.77 11.58 602.9 12.85 604.5 C14.11 606.1
								 14.8 608.07 14.8 610.1 L14.8 611.24 C14.8 611.44 14.72 611.63 14.58 611.77 C14.44 611.91 14.25 612
								 14.05 612 Z" class="st5"/>
				</g>
				<g id="shape1005-16" v:mID="1005" v:groupContext="shape" transform="translate(21.4163,-25.785)">
					<title>Sheet.1005</title>
					<v:userDefs>
						<v:ud v:nameU="msvDisableCustomConnectionPoints" v:prompt="" v:val="VT0(1):5"/>
					</v:userDefs>
					<path d="M5.17 612 C3.94 612 2.75 611.55 1.82 610.74 C0.9 609.93 0.31 608.81 0.15 607.59 C0 606.37 0.3 605.14
								 1 604.13 C1.69 603.12 2.73 602.39 3.93 602.09 C5.12 601.78 6.39 601.93 7.49 602.48 C8.59 603.04
								 9.44 603.98 9.89 605.12 C10.34 606.26 10.36 607.53 9.94 608.68 C9.52 609.83 8.69 610.79 7.61 611.38
								 C6.86 611.79 6.02 612 5.17 612 ZM5.17 603.53 C4.24 603.53 3.35 603.89 2.68 604.54 C2.02 605.19 1.65
								 606.08 1.64 607 C1.64 607.63 1.81 608.24 2.13 608.78 C2.45 609.31 2.91 609.75 3.46 610.05 C3.99
								 610.33 4.57 610.48 5.17 610.48 C5.77 610.48 6.36 610.33 6.88 610.05 C7.57 609.68 8.11 609.1 8.43
								 608.38 C8.74 607.67 8.8 606.88 8.61 606.12 C8.41 605.37 7.96 604.71 7.34 604.24 C6.72 603.77 5.95
								 603.52 5.17 603.53 Z" class="st5"/>
				</g>
				<g id="shape1006-18" v:mID="1006" v:groupContext="shape" transform="translate(4.97463,-1.13687E-13)">
					<title>Sheet.1006</title>
					<v:userDefs>
						<v:ud v:nameU="msvDisableCustomConnectionPoints" v:prompt="" v:val="VT0(1):5"/>
					</v:userDefs>
					<path d="M25.24 612 L0.77 612 C0.57 612 0.38 611.92 0.23 611.78 C0.09 611.63 0.01 611.44 0.01 611.24 L0.01 609.62
								 C0 606.82 0.94 604.09 2.69 601.88 C4.43 599.67 6.87 598.1 9.62 597.44 C9.8 597.39 10 597.42 10.17
								 597.51 C11.04 597.97 12.01 598.21 13 598.21 C13.99 598.21 14.96 597.97 15.84 597.51 C16.01 597.42
								 16.2 597.39 16.39 597.44 C19.14 598.1 21.58 599.66 23.33 601.87 C25.08 604.08 26.02 606.81 26.01
								 609.62 L26.01 611.24 C26.01 611.44 25.93 611.63 25.79 611.78 C25.64 611.92 25.45 612 25.24 612 ZM1.54
								 610.48 L24.48 610.48 L24.48 609.62 C24.48 607.21 23.68 604.86 22.2 602.94 C20.72 601.02 18.64 599.65
								 16.29 599.02 C15.27 599.51 14.14 599.77 13 599.77 C11.86 599.77 10.73 599.51 9.71 599.02 C7.36 599.65
								 5.29 601.03 3.82 602.95 C2.34 604.86 1.54 607.21 1.54 609.63 L1.54 610.48 Z" class="st5"/>
				</g>
				<g id="shape1007-20" v:mID="1007" v:groupContext="shape" transform="translate(10.9353,-12.2582)">
					<title>Sheet.1007</title>
					<v:userDefs>
						<v:ud v:nameU="msvDisableCustomConnectionPoints" v:prompt="" v:val="VT0(1):5"/>
					</v:userDefs>
					<path d="M7.07 612 C5.91 612 4.77 611.71 3.75 611.16 C2.41 610.43 1.35 609.28 0.74 607.88 C0.13 606.48 0 604.92
								 0.38 603.45 C0.76 601.97 1.62 600.67 2.83 599.73 C4.04 598.8 5.53 598.29 7.06 598.29 C8.59 598.29
								 10.08 598.8 11.29 599.73 C12.5 600.67 13.36 601.97 13.74 603.45 C14.12 604.92 13.99 606.48 13.38
								 607.88 C12.77 609.28 11.71 610.43 10.36 611.16 C9.36 611.71 8.22 612 7.07 612 ZM7.07 600 C5.9 599.99
								 4.75 600.37 3.82 601.08 C2.88 601.78 2.22 602.78 1.92 603.91 C1.62 605.04 1.71 606.24 2.18 607.31
								 C2.64 608.38 3.46 609.27 4.49 609.83 C5.28 610.25 6.16 610.47 7.06 610.47 C7.96 610.47 8.84 610.25
								 9.63 609.83 C10.67 609.27 11.48 608.39 11.96 607.32 C12.43 606.25 12.52 605.05 12.23 603.92 C11.93
								 602.79 11.26 601.79 10.33 601.08 C9.39 600.37 8.25 599.99 7.07 600 Z" class="st5"/>
				</g>
			</g>
			<g id="shape1000-22" v:mID="1000" v:groupContext="groupContent">
				<v:textBlock v:margins="rect(0,0,0,0)"/>
				<v:textRect cx="18" cy="617.402" width="72" height="10.8036"/>
				<text x="7.78" y="620.1" class="st6" v:langID="1033"><v:paragraph v:horizAlign="1"/><v:tabList/>Users</text>			</g>
		</g>
		<g id="shape1008-24" v:mID="1008" v:groupContext="shape" transform="translate(75.9638,-290.25) rotate(-0.0502038)">
			<title>Line Double Arrow.23</title>
			<desc>Ops/Deltas</desc>
			<v:userDefs>
				<v:ud v:nameU="Scale" v:val="VT0(1):26"/>
				<v:ud v:nameU="AntiScale" v:val="VT0(1):26"/>
				<v:ud v:nameU="visVersion" v:val="VT0(17):26"/>
			</v:userDefs>
			<v:textBlock v:margins="rect(4,4,4,4)"/>
			<v:textRect cx="47.25" cy="612" width="94.51" height="0"/>
			<path d="M5.67 609.17 L5.67 614.83 L0 612 L5.67 609.17 ZM88.83 609.17 L88.83 614.83 L94.5 612 L88.83 609.17 Z"
					class="st1"/>
			<path d="M5.67 609.17 L5.67 614.83 L0 612 L5.67 609.17" class="st2"/>
			<path d="M88.83 609.17 L88.83 614.83 L94.5 612 L88.83 609.17" class="st2"/>
			<path d="M5.67 612 L88.83 612" class="st2"/>
			<rect v:rectContext="textBkgnd" x="24.6888" y="606" width="45.1225" height="12.0001" class="st3"/>
			<text x="24.69" y="615" class="st7" v:langID="1033"><v:paragraph v:horizAlign="1"/><v:tabList/>Ops/Deltas</text>		</g>
		<g id="group1009-31" transform="translate(171,-256.698)" v:mID="1009" v:groupContext="group">
			<v:userDefs>
				<v:ud v:nameU="visVersion" v:prompt="" v:val="VT0(17):26"/>
			</v:userDefs>
			<title>Layered Box.24</title>
			<desc>​Alfred</desc>
			<g id="shape1010-32" v:mID="1010" v:groupContext="shape" transform="translate(10.8446,0)">
				<title>Rectangle.33</title>
				<v:userDefs>
					<v:ud v:nameU="visVersion" v:val="VT0(17):26"/>
				</v:userDefs>
				<rect x="0" y="557.579" width="66.9266" height="54.421" class="st8"/>
			</g>
			<g id="shape1011-34" v:mID="1011" v:groupContext="shape" transform="translate(5.42229,-6.4247)">
				<title>Rectangle.32</title>
				<v:userDefs>
					<v:ud v:nameU="visVersion" v:val="VT0(17):26"/>
				</v:userDefs>
				<rect x="0" y="557.579" width="66.9266" height="54.421" class="st8"/>
			</g>
			<g id="shape1012-36" v:mID="1012" v:groupContext="shape" transform="translate(0,-12.8494)">
				<title>Rectangle</title>
				<v:userDefs>
					<v:ud v:nameU="visVersion" v:val="VT0(17):26"/>
				</v:userDefs>
				<rect x="0" y="557.579" width="66.9266" height="54.421" class="st8"/>
			</g>
			<g id="shape1009-38" v:mID="1009" v:groupContext="groupContent">
				<v:textBlock v:margins="rect(4,4,4,4)"/>
				<v:textRect cx="33.4633" cy="571.94" width="66.93" height="54.421"/>
				<text x="2.065em" y="574.94" class="st9" v:langID="1033"><v:paragraph v:horizAlign="1"/><v:tabList/>​Alfred</text>			</g>
		</g>
		<g id="group1013-40" transform="translate(293.305,-245.268)" v:mID="1013" v:groupContext="group">
			<v:userDefs>
				<v:ud v:nameU="visVersion" v:prompt="" v:val="VT0(15):26"/>
			</v:userDefs>
			<title>Can.32</title>
			<desc>Kafka</desc>
			<g id="shape1014-41" v:mID="1014" v:groupContext="shape">
				<title>Sheet.1014</title>
				<v:userDefs>
					<v:ud v:nameU="ControlHalfHeight" v:prompt="" v:val="VT0(0.125):1"/>
					<v:ud v:nameU="FillForegnd" v:prompt="" v:val="VT0(1):26"/>
					<v:ud v:nameU="FillForegnd" v:prompt="" v:val="VT5(#ed7d31)"/>
				</v:userDefs>
				<path d="M0 603 A18 9 -180 1 0 36 603 L36 531 L0 531 L0 603 Z" class="st10"/>
			</g>
			<g id="shape1013-43" v:mID="1013" v:groupContext="groupContent">
				<v:textBlock v:margins="rect(4,4,4,4)"/>
				<v:textRect cx="18" cy="567" width="36" height="90"/>
				<ellipse cx="18" cy="531" rx="18" ry="9" class="st10"/>
				<text x="4.58" y="570.6" class="st11" v:langID="1033"><v:paragraph v:horizAlign="1"/><v:tabList/>Kafka</text>			</g>
		</g>
		<g id="group1015-46" transform="translate(365.378,-256.64)" v:mID="1015" v:groupContext="group">
			<v:userDefs>
				<v:ud v:nameU="visVersion" v:prompt="" v:val="VT0(17):26"/>
			</v:userDefs>
			<title>Layered Box.36</title>
			<desc>Deli</desc>
			<g id="shape1016-47" v:mID="1016" v:groupContext="shape" transform="translate(10.8446,0)">
				<title>Rectangle.33</title>
				<v:userDefs>
					<v:ud v:nameU="visVersion" v:val="VT0(17):26"/>
				</v:userDefs>
				<rect x="0" y="557.579" width="66.9266" height="54.421" class="st8"/>
			</g>
			<g id="shape1017-49" v:mID="1017" v:groupContext="shape" transform="translate(5.42229,-6.4247)">
				<title>Rectangle.32</title>
				<v:userDefs>
					<v:ud v:nameU="visVersion" v:val="VT0(17):26"/>
				</v:userDefs>
				<rect x="0" y="557.579" width="66.9266" height="54.421" class="st8"/>
			</g>
			<g id="shape1018-51" v:mID="1018" v:groupContext="shape" transform="translate(0,-12.8494)">
				<title>Rectangle</title>
				<v:userDefs>
					<v:ud v:nameU="visVersion" v:val="VT0(17):26"/>
				</v:userDefs>
				<rect x="0" y="557.579" width="66.9266" height="54.421" class="st8"/>
			</g>
			<g id="shape1015-53" v:mID="1015" v:groupContext="groupContent">
				<v:textBlock v:margins="rect(4,4,4,4)"/>
				<v:textRect cx="33.4633" cy="571.94" width="66.93" height="54.421"/>
				<text x="25.34" y="574.94" class="st9" v:langID="1033"><v:paragraph v:horizAlign="1"/><v:tabList/>Deli</text>			</g>
		</g>
		<g id="shape1020-55" v:mID="1020" v:groupContext="shape" v:layerMember="0" transform="translate(261,-333)">
			<title>Rounded Rectangle.54</title>
			<desc>Raw operations</desc>
			<v:userDefs>
				<v:ud v:nameU="CTypeTopLeftSnip" v:prompt="" v:val="VT0(0):5"/>
				<v:ud v:nameU="CTypeTopRightSnip" v:prompt="" v:val="VT0(0):5"/>
				<v:ud v:nameU="CTypeBotLeftSnip" v:prompt="" v:val="VT0(0):5"/>
				<v:ud v:nameU="CTypeBotRightSnip" v:prompt="" v:val="VT0(0):5"/>
				<v:ud v:nameU="CornerLockHoriz" v:prompt="" v:val="VT0(1):5"/>
				<v:ud v:nameU="CornerLockVert" v:prompt="" v:val="VT0(1):5"/>
				<v:ud v:nameU="CornerLockDiag" v:prompt="" v:val="VT0(0):5"/>
				<v:ud v:nameU="TopLeftOffset" v:prompt="" v:val="VT0(0.15):1"/>
				<v:ud v:nameU="TopRightOffset" v:prompt="" v:val="VT0(0.15):1"/>
				<v:ud v:nameU="BotLeftOffset" v:prompt="" v:val="VT0(0.15):1"/>
				<v:ud v:nameU="BotRightOffset" v:prompt="" v:val="VT0(0.15):1"/>
				<v:ud v:nameU="visVersion" v:prompt="" v:val="VT0(15):26"/>
				<v:ud v:nameU="TopLeftOffset" v:prompt="" v:val="VT0(0.14999888888889):24"/>
				<v:ud v:nameU="TopRightOffset" v:prompt="" v:val="VT0(0.14999888888889):24"/>
				<v:ud v:nameU="BotLeftOffset" v:prompt="" v:val="VT0(0.14999888888889):24"/>
				<v:ud v:nameU="BotRightOffset" v:prompt="" v:val="VT0(0.14999888888889):24"/>
			</v:userDefs>
			<v:textBlock v:margins="rect(10,10,10,10)"/>
			<v:textRect cx="53.9996" cy="594" width="108" height="36"/>
			<path d="M10.8 612 L97.2 612 A10.7997 10.7997 -180 0 0 108 601.2 L108 586.8 A10.7997 10.7997 -180 0 0 97.2 576 L10.8
						 576 A10.7997 10.7997 -180 0 0 0 586.8 L0 601.2 A10.7997 10.7997 -180 0 0 10.8 612 Z" class="st12"/>
			<text x="10" y="597" class="st13" v:langID="1033"><v:paragraph/><v:tabList/>Raw operations</text>		</g>
		<g id="group1022-58" transform="translate(508.5,-245.25)" v:mID="1022" v:groupContext="group">
			<v:userDefs>
				<v:ud v:nameU="visVersion" v:prompt="" v:val="VT0(15):26"/>
			</v:userDefs>
			<title>Can.49</title>
			<desc>Kafka</desc>
			<g id="shape1023-59" v:mID="1023" v:groupContext="shape">
				<title>Sheet.1023</title>
				<v:userDefs>
					<v:ud v:nameU="ControlHalfHeight" v:prompt="" v:val="VT0(0.125):1"/>
					<v:ud v:nameU="FillForegnd" v:prompt="" v:val="VT0(1):26"/>
					<v:ud v:nameU="FillForegnd" v:prompt="" v:val="VT5(#70ad47)"/>
				</v:userDefs>
				<path d="M0 603 A18 9 -180 1 0 36 603 L36 531 L0 531 L0 603 Z" class="st14"/>
			</g>
			<g id="shape1022-61" v:mID="1022" v:groupContext="groupContent">
				<v:textBlock v:margins="rect(4,4,4,4)"/>
				<v:textRect cx="18" cy="567" width="36" height="90"/>
				<ellipse cx="18" cy="531" rx="18" ry="9" class="st14"/>
				<text x="4.58" y="570.6" class="st11" v:langID="1033"><v:paragraph v:horizAlign="1"/><v:tabList/>Kafka</text>			</g>
		</g>
		<g id="shape1024-64" v:mID="1024" v:groupContext="shape" v:layerMember="0" transform="translate(457.525,-333)">
			<title>Rounded Rectangle.55</title>
			<desc>Sequenced operations</desc>
			<v:userDefs>
				<v:ud v:nameU="CTypeTopLeftSnip" v:prompt="" v:val="VT0(0):5"/>
				<v:ud v:nameU="CTypeTopRightSnip" v:prompt="" v:val="VT0(0):5"/>
				<v:ud v:nameU="CTypeBotLeftSnip" v:prompt="" v:val="VT0(0):5"/>
				<v:ud v:nameU="CTypeBotRightSnip" v:prompt="" v:val="VT0(0):5"/>
				<v:ud v:nameU="CornerLockHoriz" v:prompt="" v:val="VT0(1):5"/>
				<v:ud v:nameU="CornerLockVert" v:prompt="" v:val="VT0(1):5"/>
				<v:ud v:nameU="CornerLockDiag" v:prompt="" v:val="VT0(0):5"/>
				<v:ud v:nameU="TopLeftOffset" v:prompt="" v:val="VT0(0.15):1"/>
				<v:ud v:nameU="TopRightOffset" v:prompt="" v:val="VT0(0.15):1"/>
				<v:ud v:nameU="BotLeftOffset" v:prompt="" v:val="VT0(0.15):1"/>
				<v:ud v:nameU="BotRightOffset" v:prompt="" v:val="VT0(0.15):1"/>
				<v:ud v:nameU="visVersion" v:prompt="" v:val="VT0(15):26"/>
				<v:ud v:nameU="TopLeftOffset" v:prompt="" v:val="VT0(0.18954888888889):1"/>
				<v:ud v:nameU="TopRightOffset" v:prompt="" v:val="VT0(0.18954888888889):1"/>
				<v:ud v:nameU="BotLeftOffset" v:prompt="" v:val="VT0(0.18954888888889):1"/>
				<v:ud v:nameU="BotRightOffset" v:prompt="" v:val="VT0(0.18954888888889):1"/>
			</v:userDefs>
			<v:textBlock v:margins="rect(10,10,10,10)"/>
			<v:textRect cx="68.2376" cy="594" width="136.48" height="36"/>
			<path d="M13.65 612 L122.83 612 A13.6473 13.6473 -180 0 0 136.48 598.35 L136.48 589.65 A13.6473 13.6473 -180 0 0 122.83
						 576 L13.65 576 A13.6473 13.6473 -180 0 0 -0 589.65 L0 598.35 A13.6473 13.6473 -180 0 0 13.65 612 Z"
					class="st12"/>
			<text x="10" y="597" class="st13" v:langID="1033"><v:paragraph/><v:tabList/>Sequenced operations</text>		</g>
		<g id="shape1025-67" v:mID="1025" v:groupContext="shape" v:layerMember="1" transform="translate(443.15,-299.263)">
			<title>Dynamic connector.57</title>
			<path d="M0 620.99 L13.5 620.99 L13.5 621.01 L58.31 621.01" class="st15"/>
		</g>
		<g id="group1026-73" transform="translate(590.51,-320.616)" v:mID="1026" v:groupContext="group">
			<v:userDefs>
				<v:ud v:nameU="visVersion" v:prompt="" v:val="VT0(17):26"/>
			</v:userDefs>
			<title>Layered Box.58</title>
			<desc>Scriptorium</desc>
			<g id="shape1027-74" v:mID="1027" v:groupContext="shape" transform="translate(15.1095,0)">
				<title>Rectangle.33</title>
				<v:userDefs>
					<v:ud v:nameU="visVersion" v:val="VT0(17):26"/>
				</v:userDefs>
				<rect x="0" y="568.267" width="93.2473" height="43.7326" class="st17"/>
			</g>
			<g id="shape1028-76" v:mID="1028" v:groupContext="shape" transform="translate(7.55476,-5.16288)">
				<title>Rectangle.32</title>
				<v:userDefs>
					<v:ud v:nameU="visVersion" v:val="VT0(17):26"/>
				</v:userDefs>
				<rect x="0" y="568.267" width="93.2473" height="43.7326" class="st17"/>
			</g>
			<g id="shape1029-78" v:mID="1029" v:groupContext="shape" transform="translate(0,-10.3258)">
				<title>Rectangle</title>
				<v:userDefs>
					<v:ud v:nameU="visVersion" v:val="VT0(17):26"/>
				</v:userDefs>
				<rect x="0" y="568.267" width="93.2473" height="43.7326" class="st17"/>
			</g>
			<g id="shape1026-80" v:mID="1026" v:groupContext="groupContent">
				<v:textBlock v:margins="rect(4,4,4,4)"/>
				<v:textRect cx="46.6236" cy="579.808" width="93.25" height="43.7326"/>
				<text x="22.3" y="582.81" class="st9" v:langID="1033"><v:paragraph v:horizAlign="1"/><v:tabList/>Scriptorium</text>			</g>
		</g>
		<g id="group1030-82" transform="translate(590.502,-196.502)" v:mID="1030" v:groupContext="group">
			<v:userDefs>
				<v:ud v:nameU="visVersion" v:prompt="" v:val="VT0(17):26"/>
			</v:userDefs>
			<title>Layered Box.67</title>
			<desc>Scribe</desc>
			<g id="shape1031-83" v:mID="1031" v:groupContext="shape" transform="translate(15.1095,0)">
				<title>Rectangle.33</title>
				<v:userDefs>
					<v:ud v:nameU="visVersion" v:val="VT0(17):26"/>
				</v:userDefs>
				<rect x="0" y="568.267" width="93.2473" height="43.7326" class="st17"/>
			</g>
			<g id="shape1032-85" v:mID="1032" v:groupContext="shape" transform="translate(7.55476,-5.16288)">
				<title>Rectangle.32</title>
				<v:userDefs>
					<v:ud v:nameU="visVersion" v:val="VT0(17):26"/>
				</v:userDefs>
				<rect x="0" y="568.267" width="93.2473" height="43.7326" class="st17"/>
			</g>
			<g id="shape1033-87" v:mID="1033" v:groupContext="shape" transform="translate(0,-10.3258)">
				<title>Rectangle</title>
				<v:userDefs>
					<v:ud v:nameU="visVersion" v:val="VT0(17):26"/>
				</v:userDefs>
				<rect x="0" y="568.267" width="93.2473" height="43.7326" class="st17"/>
			</g>
			<g id="shape1030-89" v:mID="1030" v:groupContext="groupContent">
				<v:textBlock v:margins="rect(4,4,4,4)"/>
				<v:textRect cx="46.6236" cy="579.808" width="93.25" height="43.7326"/>
				<text x="33.96" y="582.81" class="st9" v:langID="1033"><v:paragraph v:horizAlign="1"/><v:tabList/>Scribe</text>			</g>
		</g>
		<g id="shape1034-91" v:mID="1034" v:groupContext="shape" v:layerMember="1" transform="translate(544.5,-290.25)">
			<title>Dynamic connector.72</title>
			<path d="M0 612 L100.18 612 L100.18 644.65" class="st15"/>
		</g>
		<g id="shape1035-96" v:mID="1035" v:groupContext="shape" v:layerMember="1" transform="translate(544.5,-290.25)">
			<title>Dynamic connector.74</title>
			<path d="M0 612 L100.19 612 L100.19 588.67" class="st15"/>
		</g>
		<g id="shape1044-101" v:mID="1044" v:groupContext="shape" v:layerMember="1" transform="translate(378.024,-432.591)">
			<title>Dynamic connector.97</title>
			<desc>Read Deltas/ Metadata</desc>
			<v:textBlock v:margins="rect(4,4,4,4)"/>
			<v:textRect cx="-138.381" cy="612" width="73.18" height="36.8038"/>
			<path d="M0 612 L-168.14 612 L-168.14 713.58" class="st15"/>
			<rect v:rectContext="textBkgnd" x="-169.608" y="597.6" width="62.4556" height="28.8001" class="st3"/>
			<text x="-169.61" y="608.4" class="st18" v:langID="1033"><v:paragraph v:horizAlign="1"/><v:tabList/>Read Deltas/<v:newlineChar/><v:paragraph
						v:horizAlign="1"/><tspan x="-162.29" dy="1.2em" class="st19">Metadata</tspan></text>		</g>
		<g id="shape1045-109" v:mID="1045" v:groupContext="shape" v:layerMember="1" transform="translate(644.688,-374.674)">
			<title>Dynamic connector.98</title>
			<desc>​Add operations</desc>
			<v:textBlock v:margins="rect(4,4,4,4)"/>
			<v:textRect cx="-79.1931" cy="554.389" width="63.36" height="36.8038"/>
			<path d="M0 612 L0 554.39 L-208.96 554.39" class="st15"/>
			<rect v:rectContext="textBkgnd" x="-105.511" y="539.989" width="52.6352" height="28.8001" class="st3"/>
			<text x="-7.414em" y="550.79" class="st18" v:langID="1033"><v:paragraph v:horizAlign="1"/><v:tabList/>​Add<tspan
						x="-105.51" dy="1.2em" class="st19">operations</tspan></text>		</g>
		<g id="shape1046-117" v:mID="1046" v:groupContext="shape" v:layerMember="3" transform="translate(323.633,-558)">
			<title>Disk storage.99</title>
			<desc>Git</desc>
			<v:custProps>
				<v:cp v:nameU="Cost" v:lbl="Cost" v:type="7" v:format="@" v:langID="1033"/>
				<v:cp v:nameU="Duration" v:lbl="Duration" v:type="2" v:langID="1033"/>
				<v:cp v:nameU="Resources" v:lbl="Resources" v:langID="1033"/>
			</v:custProps>
			<v:userDefs>
				<v:ud v:nameU="visVersion" v:val="VT0(15):26"/>
			</v:userDefs>
			<v:textBlock v:margins="rect(2,2,2,2)"/>
			<v:textRect cx="36.1836" cy="604.855" width="72.37" height="14.2898"/>
			<path d="M0 583.24 L0 604.76 A36.1836 7.23672 -180 1 0 72.37 604.76 L72.37 583.24 A36.1836 7.23672 -180 0 0 0 583.24 Z"
					class="st1"/>
			<path d="M0 583.24 L0 604.76 A36.1836 7.23672 -180 1 0 72.37 604.76 L72.37 583.24 A36.1836 7.23672 -180 0 0 0 583.24"
					class="st20"/>
			<path d="M0 583.24 A36.1836 7.23672 -180 1 0 72.37 583.24" class="st20"/>
			<path d="M0 586.86 A36.1836 7.23672 -180 1 0 72.37 586.86" class="st20"/>
			<text x="28.81" y="608.46" class="st21" v:langID="1033"><v:paragraph v:horizAlign="1"/><v:tabList/>Git</text>		</g>
		<g id="shape1047-123" v:mID="1047" v:groupContext="shape" v:layerMember="1" transform="translate(698.859,-223.531)">
			<title>Dynamic connector.103</title>
			<path d="M0 612 L25.52 612 L25.52 322.56 L-277.46 322.56" class="st15"/>
		</g>
		<g id="group1036-128" transform="translate(378.239,-406.393)" v:mID="1036" v:groupContext="group" v:layerMember="2">
			<v:userDefs>
				<v:ud v:nameU="visVersion" v:prompt="" v:val="VT0(17):26"/>
				<v:ud v:nameU="visAltText" v:prompt="" v:val="VT4(Database)"/>
				<v:ud v:nameU="visAltDescription" v:prompt="" v:val="VT4(Database Icon.)"/>
				<v:ud v:nameU="Font" v:prompt="" v:val="VT0(243):26"/>
			</v:userDefs>
			<title>Database.83</title>
			<desc>MongoDB</desc>
			<g id="group1037-129" v:mID="1037" v:groupContext="group" v:layerMember="2">
				<title>Sheet.1037</title>
				<g id="shape1038-130" v:mID="1038" v:groupContext="shape" v:layerMember="2" transform="translate(0,-53.1076)">
					<title>Sheet.1038</title>
					<ellipse cx="25.2261" cy="604.919" rx="25.2261" ry="7.08101" class="st22"/>
				</g>
				<g id="shape1039-132" v:mID="1039" v:groupContext="shape" v:layerMember="2" transform="translate(0,-35.4051)">
					<title>Sheet.1039</title>
					<path d="M43.24 604.92 C42.16 604.92 41.44 604.21 41.44 603.15 C41.44 602.09 42.16 601.38 43.24 601.38 C44.33
								 601.38 45.05 602.09 45.05 603.15 C45.05 604.21 44.33 604.92 43.24 604.92 ZM25.23 597.84 C11.35 597.84
								 0 594.65 0 590.76 L0 604.92 C0 608.81 11.35 612 25.23 612 C39.1 612 50.45 608.81 50.45 604.92 L50.45
								 590.76 C50.45 594.65 39.1 597.84 25.23 597.84 Z" class="st22"/>
				</g>
				<g id="shape1040-134" v:mID="1040" v:groupContext="shape" v:layerMember="2" transform="translate(0,-17.7025)">
					<title>Sheet.1040</title>
					<path d="M43.24 604.92 C42.16 604.92 41.44 604.21 41.44 603.15 C41.44 602.09 42.16 601.38 43.24 601.38 C44.33
								 601.38 45.05 602.09 45.05 603.15 C45.05 604.21 44.33 604.92 43.24 604.92 ZM25.23 597.84 C11.35 597.84
								 0 594.65 0 590.76 L0 604.92 C0 608.81 11.35 612 25.23 612 C39.1 612 50.45 608.81 50.45 604.92 L50.45
								 590.76 C50.45 594.65 39.1 597.84 25.23 597.84 Z" class="st22"/>
				</g>
				<g id="shape1041-136" v:mID="1041" v:groupContext="shape" v:layerMember="2">
					<title>Sheet.1041</title>
					<path d="M43.24 604.92 C42.16 604.92 41.44 604.21 41.44 603.15 C41.44 602.09 42.16 601.38 43.24 601.38 C44.33
								 601.38 45.05 602.09 45.05 603.15 C45.05 604.21 44.33 604.92 43.24 604.92 ZM25.23 597.84 C11.35 597.84
								 0 594.65 0 590.76 L0 604.92 C0 608.81 11.35 612 25.23 612 C39.1 612 50.45 608.81 50.45 604.92 L50.45
								 590.76 C50.45 594.65 39.1 597.84 25.23 597.84 Z" class="st22"/>
				</g>
			</g>
			<g id="shape1036-138" v:mID="1036" v:groupContext="groupContent" v:layerMember="2">
				<v:textBlock v:margins="rect(0,0,0,0)" v:verticalAlign="2"/>
				<v:textRect cx="25.2261" cy="619.202" width="51.5" height="14.4037"/>
				<text x="0.84" y="622.8" class="st23" v:langID="1033"><v:paragraph v:horizAlign="1"/><v:tabList/>MongoDB</text>			</g>
		</g>
		<g id="shape1048-140" v:mID="1048" v:groupContext="shape" transform="translate(320.634,-54.9324)">
			<title>Rectangle.108</title>
			<desc>Routerlicious</desc>
			<v:userDefs>
				<v:ud v:nameU="visVersion" v:val="VT0(15):26"/>
			</v:userDefs>
			<v:textBlock v:margins="rect(4,4,4,4)"/>
			<v:textRect cx="53.046" cy="597.812" width="106.1" height="28.3752"/>
			<rect x="0" y="583.625" width="106.092" height="28.3752" class="st24"/>
			<text x="9.28" y="602.61" class="st25" v:langID="1033"><v:paragraph v:horizAlign="1"/><v:tabList/>Routerlicious</text>		</g>
		<g id="shape1049-143" v:mID="1049" v:groupContext="shape" v:layerMember="1" transform="translate(297,-160.5)">
			<title>Dynamic connector.109</title>
			<desc>Ops</desc>
			<v:textBlock v:margins="rect(4,4,4,4)"/>
			<v:textRect cx="-87.1144" cy="607.458" width="40" height="17.6036"/>
			<path d="M0 612 L-87.11 612 L-87.11 522.84" class="st15"/>
			<rect v:rectContext="textBkgnd" x="-93.4287" y="602.659" width="12.6288" height="9.59985" class="st3"/>
			<text x="-93.43" y="609.86" class="st26" v:langID="1033"><v:paragraph v:horizAlign="1"/><v:tabList/>Ops</text>		</g>
		<g id="shape1050-150" v:mID="1050" v:groupContext="shape" v:layerMember="1" transform="translate(248.771,-299.3)">
			<title>Dynamic connector.110</title>
			<path d="M0 620.97 L13.5 620.97 L13.5 621.03 L37.49 621.03" class="st15"/>
		</g>
		<g id="shape1051-155" v:mID="1051" v:groupContext="shape" v:layerMember="1" transform="translate(329.305,-281.272)">
			<title>Dynamic connector.111</title>
			<path d="M0 603 L13.5 603 L13.5 603 L29.03 603" class="st15"/>
		</g>
		<g id="shape1052-160" v:mID="1052" v:groupContext="shape" v:layerMember="1" transform="translate(306,-512.971)">
			<title>Dynamic connector.114</title>
			<desc>Summary Tree/Blob</desc>
			<v:textBlock v:margins="rect(4,4,4,4)"/>
			<v:textRect cx="-226.11" cy="612" width="74.88" height="17.6036"/>
			<path d="M-6.68 612 L-7.04 612 L-247.5 612 L-247.5 809.68" class="st27"/>
			<rect v:rectContext="textBkgnd" x="-258.639" y="607.2" width="65.058" height="9.59985" class="st3"/>
			<text x="-258.64" y="614.4" class="st26" v:langID="1033"><v:paragraph v:horizAlign="1"/><v:tabList/>Summary Tree/Blob</text>		</g>
		<g id="shape1053-170" v:mID="1053" v:groupContext="shape" transform="translate(-251.698,84.3054) rotate(-91.1521)">
			<title>Line Arrow.118</title>
			<v:userDefs>
				<v:ud v:nameU="Scale" v:val="VT0(1):26"/>
				<v:ud v:nameU="AntiScale" v:val="VT0(1):26"/>
				<v:ud v:nameU="visVersion" v:val="VT0(17):26"/>
			</v:userDefs>
			<path d="M11.61 608.8 L11.61 615.2 L18 612 L11.61 608.8 Z" class="st1"/>
			<path d="M11.61 608.8 L11.61 615.2 L18 612 L11.61 608.8" class="st2"/>
			<path d="M0 612 L11.61 612" class="st2"/>
		</g>
		<g id="group1054-174" transform="translate(306,-485.942)" v:mID="1054" v:groupContext="group">
			<v:userDefs>
				<v:ud v:nameU="visVersion" v:prompt="" v:val="VT0(17):26"/>
			</v:userDefs>
			<title>Layered Box.1000</title>
			<desc>Historian</desc>
			<g id="shape1055-175" v:mID="1055" v:groupContext="shape" transform="translate(15.1095,0)">
				<title>Rectangle.33</title>
				<v:userDefs>
					<v:ud v:nameU="visVersion" v:val="VT0(17):26"/>
				</v:userDefs>
				<rect x="0" y="568.267" width="93.2473" height="43.7326" class="st17"/>
			</g>
			<g id="shape1056-177" v:mID="1056" v:groupContext="shape" transform="translate(7.55476,-5.16288)">
				<title>Rectangle.32</title>
				<v:userDefs>
					<v:ud v:nameU="visVersion" v:val="VT0(17):26"/>
				</v:userDefs>
				<rect x="0" y="568.267" width="93.2473" height="43.7326" class="st17"/>
			</g>
			<g id="shape1057-179" v:mID="1057" v:groupContext="shape" transform="translate(0,-10.3258)">
				<title>Rectangle</title>
				<v:userDefs>
					<v:ud v:nameU="visVersion" v:val="VT0(17):26"/>
				</v:userDefs>
				<rect x="0" y="568.267" width="93.2473" height="43.7326" class="st17"/>
			</g>
			<g id="shape1054-181" v:mID="1054" v:groupContext="groupContent">
				<v:textBlock v:margins="rect(4,4,4,4)"/>
				<v:textRect cx="46.6236" cy="579.808" width="93.25" height="43.7326"/>
				<text x="27.67" y="582.81" class="st9" v:langID="1033"><v:paragraph v:horizAlign="1"/><v:tabList/>Historian</text>			</g>
		</g>
		<g id="group1058-183" transform="translate(364.5,-193.5)" v:mID="1058" v:groupContext="group">
			<v:userDefs>
				<v:ud v:nameU="visVersion" v:prompt="" v:val="VT0(17):26"/>
			</v:userDefs>
			<title>Layered Box.1058</title>
			<desc>Boardcaster</desc>
			<g id="shape1059-184" v:mID="1059" v:groupContext="shape" transform="translate(10.8446,0)">
				<title>Rectangle.33</title>
				<v:userDefs>
					<v:ud v:nameU="visVersion" v:val="VT0(17):26"/>
				</v:userDefs>
				<rect x="0" y="582.876" width="66.9266" height="29.1236" class="st17"/>
			</g>
			<g id="shape1060-186" v:mID="1060" v:groupContext="shape" transform="translate(5.42229,-3.4382)">
				<title>Rectangle.32</title>
				<v:userDefs>
					<v:ud v:nameU="visVersion" v:val="VT0(17):26"/>
				</v:userDefs>
				<rect x="0" y="582.876" width="66.9266" height="29.1236" class="st17"/>
			</g>
			<g id="shape1061-188" v:mID="1061" v:groupContext="shape" transform="translate(0,-6.8764)">
				<title>Rectangle</title>
				<v:userDefs>
					<v:ud v:nameU="visVersion" v:val="VT0(17):26"/>
				</v:userDefs>
				<rect x="0" y="582.876" width="66.9266" height="29.1236" class="st17"/>
			</g>
			<g id="shape1058-190" v:mID="1058" v:groupContext="groupContent">
				<v:textBlock v:margins="rect(4,4,4,4)"/>
				<v:textRect cx="33.4633" cy="590.562" width="66.93" height="29.1236"/>
				<text x="8.46" y="593.56" class="st9" v:langID="1033"><v:paragraph v:horizAlign="1"/><v:tabList/>Boardcaster</text>			</g>
		</g>
		<g id="group1062-192" transform="translate(297,-142.5)" v:mID="1062" v:groupContext="group" v:layerMember="2">
			<v:userDefs>
				<v:ud v:nameU="visVersion" v:prompt="" v:val="VT0(17):26"/>
				<v:ud v:nameU="visAltText" v:prompt="" v:val="VT4(Database)"/>
				<v:ud v:nameU="visAltDescription" v:prompt="" v:val="VT4(Database Icon.)"/>
				<v:ud v:nameU="Font" v:prompt="" v:val="VT0(243):26"/>
			</v:userDefs>
			<title>Database.1062</title>
			<desc>Redis</desc>
			<g id="group1063-193" v:mID="1063" v:groupContext="group" v:layerMember="2">
				<title>Sheet.1063</title>
				<g id="shape1064-194" v:mID="1064" v:groupContext="shape" v:layerMember="2" transform="translate(0,-28.4211)">
					<title>Sheet.1064</title>
					<ellipse cx="13.5" cy="608.211" rx="13.5" ry="3.78947" class="st22"/>
				</g>
				<g id="shape1065-196" v:mID="1065" v:groupContext="shape" v:layerMember="2" transform="translate(0,-18.9474)">
					<title>Sheet.1065</title>
					<path d="M23.14 608.21 C22.56 608.21 22.18 607.83 22.18 607.26 C22.18 606.69 22.56 606.32 23.14 606.32 C23.72
								 606.32 24.11 606.69 24.11 607.26 C24.11 607.83 23.72 608.21 23.14 608.21 ZM13.5 604.42 C6.08 604.42
								 0 602.72 0 600.63 L0 608.21 C0 610.29 6.08 612 13.5 612 C20.93 612 27 610.29 27 608.21 L27 600.63
								 C27 602.72 20.93 604.42 13.5 604.42 Z" class="st22"/>
				</g>
				<g id="shape1066-198" v:mID="1066" v:groupContext="shape" v:layerMember="2" transform="translate(0,-9.47368)">
					<title>Sheet.1066</title>
					<path d="M23.14 608.21 C22.56 608.21 22.18 607.83 22.18 607.26 C22.18 606.69 22.56 606.32 23.14 606.32 C23.72
								 606.32 24.11 606.69 24.11 607.26 C24.11 607.83 23.72 608.21 23.14 608.21 ZM13.5 604.42 C6.08 604.42
								 0 602.72 0 600.63 L0 608.21 C0 610.29 6.08 612 13.5 612 C20.93 612 27 610.29 27 608.21 L27 600.63
								 C27 602.72 20.93 604.42 13.5 604.42 Z" class="st22"/>
				</g>
				<g id="shape1067-200" v:mID="1067" v:groupContext="shape" v:layerMember="2">
					<title>Sheet.1067</title>
					<path d="M23.14 608.21 C22.56 608.21 22.18 607.83 22.18 607.26 C22.18 606.69 22.56 606.32 23.14 606.32 C23.72
								 606.32 24.11 606.69 24.11 607.26 C24.11 607.83 23.72 608.21 23.14 608.21 ZM13.5 604.42 C6.08 604.42
								 0 602.72 0 600.63 L0 608.21 C0 610.29 6.08 612 13.5 612 C20.93 612 27 610.29 27 608.21 L27 600.63
								 C27 602.72 20.93 604.42 13.5 604.42 Z" class="st22"/>
				</g>
			</g>
			<g id="shape1062-202" v:mID="1062" v:groupContext="groupContent" v:layerMember="2">
				<v:textBlock v:margins="rect(0,0,0,0)" v:verticalAlign="2"/>
				<v:textRect cx="13.5" cy="619.202" width="28.96" height="14.4037"/>
				<text x="0.38" y="622.8" class="st28" v:langID="1033"><v:paragraph v:horizAlign="1"/><v:tabList/>Redis</text>			</g>
		</g>
		<g id="shape1068-204" v:mID="1068" v:groupContext="shape" v:layerMember="1" transform="translate(403.386,-193.5)">
			<title>Dynamic connector.1068</title>
			<desc>Ops</desc>
			<v:textBlock v:margins="rect(4,4,4,4)"/>
			<v:textRect cx="-23.1928" cy="645" width="40" height="17.6036"/>
			<path d="M0 612 L0 645 L-72.35 645" class="st15"/>
			<rect v:rectContext="textBkgnd" x="-29.5071" y="640.2" width="12.6288" height="9.59985" class="st3"/>
			<text x="-29.51" y="647.4" class="st26" v:langID="1033"><v:paragraph v:horizAlign="1"/><v:tabList/>Ops</text>		</g>
		<g id="shape1069-211" v:mID="1069" v:groupContext="shape" v:layerMember="1" transform="translate(412.825,-256.64)">
			<title>Dynamic connector.1069</title>
			<desc>Ops</desc>
			<v:textBlock v:margins="rect(4,4,4,4)"/>
			<v:textRect cx="-9.07" cy="625.5" width="40" height="17.6036"/>
			<path d="M-8.56 612 L-8.56 625.5 L-9.44 625.5 L-9.44 632.1" class="st15"/>
			<rect v:rectContext="textBkgnd" x="-15.3843" y="620.7" width="12.6288" height="9.59985" class="st3"/>
			<text x="-15.38" y="627.9" class="st26" v:langID="1033"><v:paragraph v:horizAlign="1"/><v:tabList/>Ops</text>		</g>
	</g>
</svg>
