<svg id="Layer_1" data-name="Layer 1" xmlns="http://www.w3.org/2000/svg" viewBox="0 0 16 16"><defs><style>.cls-1{fill:#fff}</style></defs><title>v copy</title><path class="cls-1" d="M2.5 9.45A1.59 1.59 0 0 1 1.36 9a1.37 1.37 0 0 1-.44-1 1.33 1.33 0 0 1 .45-1 1.66 1.66 0 0 1 1.15-.4 1.68 1.68 0 0 1 1.16.4 1.32 1.32 0 0 1 .46 1 1.35 1.35 0 0 1-.45 1 1.7 1.7 0 0 1-1.19.45zm5.5 0A1.59 1.59 0 0 1 6.84 9a1.37 1.37 0 0 1-.45-1 1.33 1.33 0 0 1 .45-1A1.66 1.66 0 0 1 8 6.55 1.67 1.67 0 0 1 9.16 7a1.33 1.33 0 0 1 .45 1 1.35 1.35 0 0 1-.45 1A1.69 1.69 0 0 1 8 9.45zm5.47 0A1.62 1.62 0 0 1 12.3 9a1.36 1.36 0 0 1-.46-1 1.32 1.32 0 0 1 .46-1 1.86 1.86 0 0 1 2.32 0 1.32 1.32 0 0 1 .46 1 1.35 1.35 0 0 1-.45 1 1.7 1.7 0 0 1-1.19.45z"/></svg>