<?xml version="1.0" encoding="UTF-8" standalone="no"?>
<svg width="124px" height="25px" viewBox="0 0 124 25" version="1.1" xmlns="http://www.w3.org/2000/svg" xmlns:xlink="http://www.w3.org/1999/xlink">
    <!-- Generator: Sketch 42 (36781) - http://www.bohemiancoding.com/sketch -->
    <title>firststart-sidebar-sprite</title>
    <desc>Created with Sketch.</desc>
    <defs></defs>
    <g id="Page-1" stroke="none" stroke-width="1" fill="none" fill-rule="evenodd">
        <g id="firststart-sidebar-sprite" fill-rule="nonzero">
            <g id="Layer_1">
                <g id="Group" transform="translate(26.000000, 0.000000)">
                    <polygon id="Shape" fill="#BCBBBB" points="18.6 22.8 18.6 16.1 20.8 16.1 20.8 25 0.7 25 0.7 16.1 3 16.1 3 22.8"></polygon>
                    <path d="M5.2,20.5 L16.4,20.5 L16.4,18.3 L5.2,18.3 L5.2,20.5 L5.2,20.5 Z M15.2,0 L13.4,1.3 L20.1,10.2 L21.9,8.9 L15.2,0 L15.2,0 Z M9.7,5.3 L18.3,12.4 L19.7,10.7 L11.1,3.6 L9.7,5.3 L9.7,5.3 Z M6.9,10.2 L17,14.9 L17.9,12.9 L7.8,8.2 L6.9,10.2 L6.9,10.2 Z M5.4,15.5 L16.3,17.8 L16.8,15.6 L5.9,13.3 L5.4,15.5 L5.4,15.5 Z" id="Shape" fill="#F48024"></path>
                </g>
                <path d="M74.8,5.5 C73.9,5.9 72.9,6.2 71.9,6.3 C73,5.7 73.8,4.7 74.2,3.5 C73.2,4.1 72.1,4.5 70.9,4.7 C70,3.7 68.6,3.1 67.2,3.1 C64.4,3.1 62.1,5.4 62.1,8.2 C62.1,8.6 62.1,9 62.2,9.4 C57.9,9.2 54.2,7.1 51.6,4 C51.1,4.8 50.8,5.7 50.8,6.6 C50.8,8.4 51.7,9.9 53.1,10.9 C52.3,10.9 51.5,10.6 50.8,10.3 C50.8,10.3 50.8,10.3 50.8,10.4 C50.8,12.9 52.6,15 54.9,15.4 C54.5,15.5 54,15.6 53.5,15.6 C53.2,15.6 52.8,15.6 52.5,15.5 C53.2,17.5 55,19 57.3,19.1 C55.5,20.5 53.3,21.3 50.9,21.3 C50.5,21.3 50.1,21.3 49.7,21.2 C52,22.7 54.7,23.5 57.6,23.5 C67,23.5 72.2,15.7 72.2,8.9 L72.2,8.2 C73.2,7.5 74.1,6.6 74.8,5.5 L74.8,5.5 Z" id="Shape" fill="#1DA1F2"></path>
                <path d="M12.5,0.5 C5.6,0.5 0,6 0,12.8 C0,18.2 3.6,22.8 8.5,24.5 C9.1,24.6 9.4,24.2 9.4,23.9 L9.4,21.6 C5.9,22.3 5.2,20.1 5.2,20.1 C4.6,18.7 3.8,18.3 3.8,18.3 C2.7,17.5 3.9,17.6 3.9,17.6 C5.2,17.7 5.8,18.9 5.8,18.9 C6.9,20.8 8.7,20.2 9.4,19.9 C9.5,19.1 9.8,18.6 10.2,18.3 C7.4,18 4.5,16.9 4.5,12.2 C4.5,10.9 5,9.8 5.8,8.9 C5.7,8.5 5.3,7.3 5.9,5.6 C5.9,5.6 7,5.3 9.3,6.9 C10.3,6.6 11.4,6.5 12.4,6.5 C13.5,6.5 14.5,6.6 15.5,6.9 C17.9,5.3 18.9,5.6 18.9,5.6 C19.6,7.3 19.2,8.5 19,8.9 C19.8,9.8 20.3,10.9 20.3,12.2 C20.3,16.9 17.4,18 14.6,18.3 C15,18.7 15.4,19.4 15.4,20.6 L15.4,24 C15.4,24.3 15.6,24.7 16.3,24.6 C21.3,23 24.8,18.4 24.8,12.9 C25,6 19.4,0.5 12.5,0.5 Z" id="Shape" fill="#000000"></path>
                <path d="M89.1,0 C95.1,0 100,3 100,6.8 C100,9.2 98,11.3 95.1,12.5 C95.8,13.8 96.8,15.1 98,16.8 C95.7,16 92.2,15.2 90.2,13.6 L89.2,13.7 C83.2,13.7 78.3,10.7 78.3,6.9 C78.1,3 83,0 89.1,0 Z M91.7,16.1 C91.7,19.3 87.9,21.8 83.4,21.8 L82.7,21.8 C81,23.4 78.7,25 76,25 C76.6,23.8 77.9,22.6 78.7,20.9 C76.4,19.9 74.9,18.1 74.9,16.1 C74.9,14.1 76.4,12.4 78.7,11.3 C80.7,13.2 84.1,14.5 88,14.5 L89,14.4 C89.8,15 90.6,15.4 91.7,15.9 L91.7,16.1 Z" id="Shape" fill="#26C2F0"></path>
                <g id="Group" transform="translate(101.000000, 2.000000)" fill="#FFA500">
                    <circle id="Oval" cx="3.5" cy="18.4" r="2.6"></circle>
                    <path d="M15.3,20.9 L11.5,20.9 C11.5,15 6.7,10.2 0.8,10.2 L0.8,6.5 C8.9,6.5 15.3,13 15.3,20.9 Z" id="Shape"></path>
                    <path d="M22.2,21 L18.4,21 C17.6,11.7 10.1,4.3 0.8,3.7 L0.8,0 C12.2,0.6 21.4,9.6 22.2,21 Z" id="Shape"></path>
                </g>
            </g>
        </g>
    </g>
</svg>