<svg width="64" height="64" xmlns="http://www.w3.org/2000/svg" xmlns:xlink="http://www.w3.org/1999/xlink" xml:space="preserve" overflow="hidden"><defs><clipPath id="clip0"><rect x="671" y="241" width="64" height="64"/></clipPath></defs><g clip-path="url(#clip0)" transform="translate(-671 -241)"><path d="M671 248.2C671 244.224 674.224 241 678.2 241L689.4 241C693.376 241 696.6 244.224 696.6 248.2L696.6 259.4C696.6 263.376 693.376 266.6 689.4 266.6L678.2 266.6C674.224 266.6 671 263.376 671 259.4Z" fill="#0078D4"/><path d="M703 280.2C703 276.224 706.224 273 710.2 273L727.8 273C731.776 273 735 276.224 735 280.2L735 297.8C735 301.776 731.776 305 727.8 305L710.2 305C706.224 305 703 301.776 703 297.8Z" fill="#0078D4"/><path d="M718.328 250.6 699.8 250.6 699.8 260.808C699.8 265.774 695.774 269.8 690.808 269.8 690.797 269.8 690.787 269.8 690.776 269.8L680.6 269.8 680.6 288.328C680.565 292.198 683.673 295.364 687.544 295.4 687.576 295.4 687.608 295.4 687.64 295.4L699.864 295.4 699.864 278.472C699.829 273.718 703.654 269.836 708.408 269.8 708.429 269.8 708.451 269.8 708.472 269.8L725.368 269.8 725.368 257.64C725.386 253.77 722.262 250.618 718.392 250.6 718.371 250.6 718.349 250.6 718.328 250.6Z" fill="#50E6FF"/></g></svg>